<mxfile modified="2020-10-19T02:13:08.157Z" host="app.diagrams.net" agent="5.0 (Windows NT 10.0; Win64; x64) AppleWebKit/537.36 (KHTML, like Gecko) Chrome/86.0.4240.75 Safari/537.36" etag="WIijKY6mNCxcYgPq8k-B" version="13.8.0" type="github">
  <diagram id="Ht1M8jgEwFfnCIfOTk4-" name="Page-1">
    <mxGraphModel dx="2354" dy="1470" grid="1" gridSize="10" guides="1" tooltips="1" connect="1" arrows="1" fold="1" page="1" pageScale="1" pageWidth="1169" pageHeight="827" math="0" shadow="0">
      <root>
        <mxCell id="0" />
        <mxCell id="1" parent="0" />
        <mxCell id="PCQHjBC-jvNUetgwWqMC-95" value="" style="shape=image;verticalLabelPosition=bottom;labelBackgroundColor=#ffffff;verticalAlign=top;aspect=fixed;imageAspect=0;image=data:image/png,iVBORw0KGgoAAAANSUhEUgAAAo0AAALzCAYAAAB0hT38AAAgAElEQVR4Aex9P+jlynX/rZJHID8WY5xNMM7DOPGSEGchwdmIh2NI4W1ib8DFEmNYCMhbvqTxQoqNq41JsWrMQiA8SLNV8hICWly9IsWWr9yACpevfOVLNz8+Z3Sk0VxJV7p3JM1IHy3f1b/5c+Zz5s58dObMzMnwIAJEgAgQASJABIgAESACFxA4XXjP10SACBCB3SPwq1/9yty5c8ecTqegf++99555+/bt7vFjAYkAETgGAiSNx9AzS0kEiMAIAp988on57ne/OxLiuldPnjwxH3300XWRGYsIEAEiEBkCJI2RKYTiEAEisD4CJI3rY84ciQARSA8Bksb0dEaJiQARCIwASWNgQJkcESACu0SApHGXamWhiAARmIMASeMctBiWCBCBoyJA0nhUzbPcRIAINAiQNDZQ8IIIEAEiMIgASeMgNHxBBIjAURAgaTyKpllOIkAEbkGApPEW9BiXCBCBXSBA0rgLNbIQRIAILIwASePCADN5IkAE4keApDF+HVFCIkAEtkeApHF7HVACIkAENkaApHFjBTB7IkAEkkCApDEJNVFIIkAElkSApHFJdJk2ESACe0GApHEvmmQ5iAARuBoBksaroWNEIkAEDoQASeOBlM2iEgEi0I8ASWM/LnxKBIgAEXARIGl00eA1ESACh0SApPGQamehiQARmIkASeNMwBicCBCB/SFA0rg/nbJERIAIhEeApDE8pkyRCBCBxBAgaUxMYRSXCBCBTRAgadwEdmZKBIhATAiQNMakDcpCBIhArAiQNMaqGcpFBIjAagiQNK4GNTMiAkQgYQRIGhNWHkUnAkQgDAIkjWFwZCpEgAjsG4GbSeO7d+/MixcvzKNHj8x3v/td8/7775vT6STXLnRolPF86O/JkyducPPRRx8NhkUaS4d//vx5Rx7cD8mO50uHBx7ugfKPyXNreOhyLH3o0z2WDq/1akimX/3qV644TT1cKvxQuvq8I4wxo1gijn9oOn1nYOEeKHtfOH22dHjo3j0u/daXDn9N27AUafzhD39ofvCDH7jwSFuhuuk7760tudRWsS0Z7hdRP/yjr864z24Jv3Vb4rdVKbYlLv6hecytbcNnn33minfV9XmNnJgMMr937578oSBQLv5CCDVRBAYjAkSACARBAG2XT2ZDJAzC5H/AhUiXaRABIkAE5iIAA9+dO3fM48ePha/NjY/wV5NGRIaVkQcRIAJEIHUESBpT1yDlJwJEYAoCMOy9evVKRuPwofz27dsp0Zowk0kjGOqbN2+aiLwgAkSACOwFAZLGvWiS5SACRGAqAi9fvjR3794Vy+MXX3wxKdpF0oiEMMRy//594/uNTcqBgYgAESACkSNA0hi5gigeESACiyAAjofh6qdPn05Kf5Q0fv755+bBgwcyyWUqC52UKwMRASJABFZA4OOPP5aJJ/C7HvvDh/FSPo2YJDiWt77DVz8PIkAEiMAWCEzleKOk8eHDh2ezlLcoDPMkAkSACFyDAMggZmQqMRs7g2CGPmDBHMtT34GwYjQHH+o8iAARIAKxIjBIGj/88EP58p7KPmMtIOUiAkTg2AiAmIE8xtqWwSkdH+ixynfs2sPSE4HjIYBRj6H2qJc0YokIfJ3zq/d4lYUlJgJ7RABtGohZbG0aPs6n+hLtUS8sExEgAvEhAJcafGj3Hb2kEQ0r11vsg4vPiAARSBUBnewSw4Q+fMXD+Zx+jKnWJspNBPaLANonzKr+9NNPzwrZSxrPQvEBESACRGAHCKARxOS+vsZwreLhoxw+jK9fv14rS+ZDBIgAEZiFAD5oYXH0D5JGHxHeEwEisGsEMIoC4rjFurOwcmLCy9wFdXetEBaOCBCB6BBQa6M/QbBDGvH1HcPQTXToUSAiQAR2hQAaRPg4YhLKWgeIIte7XQtt5kMEiMCtCMDaCDca9+iQRjSiPqt0A/OaCBABIrAnBDAJBZNRlj4wFI0h6dgm4ixdbqZPBIhAughgVAZ7VeMjW4+GNKIx819qIJ6JABEgAntFQL+m3YYxZFmXTj+krEyLCBABIuAigA9rdwS6IY2wMPY5PbqReU0EiAAR2CMCS1kC17Jk7lEnLBMRIALxIdCQRnwNP3v2LD4JKRERIAJEYAUEQvocbuEzuQJEzIIIEIGDI9CQRhBGEEceRIAIEIGjIhBidvOWs7OPqjeWmwgQgXUQaEgjZshw3bB1QGcuRIAIxIvALesoxrAOZLzIUjIiQARSQwCjJi43bEgjZvZhxwQeRIAIEIGjI4CGcu6OLTHtOHN0/bH8RIAIhEEAIyfYVlqPhjRib1Z3howG4JkIEAEicFQEpu4NHeve1kfVG8tNBIhAGATAC3tJY5jkmQoRIAJEYF8IYAFwrGE7tCTP8+fPzZMnTwbf7wsNloYIEIEjIUDSeCRts6xEgAgEQQBbDmLrQQzV6AESCbII0siDCBABIrBHBEga96hVlokIEIHFEXAnuWCyDKyPGJbmQQSIABHYKwKDpJE+jXtVOctFBIhAKATQgGLSICcOhkKU6RABIhAzAoOkkY1gzGqjbESACMSCAKyMsDryIAJEgAjsHQGSxr1rmOUjAkSACBABIkAEiEAABPCR7G780iy5Q0tjAHSZBBEgAkSACBABIkAEdooASeNOFctiEQEiQASIABEgAkQgJALRk0Ysa4GdFvi3Pgbu8iIhKx3TIgJEgAgQASJABNJDIHrSiFndd+/ebWYs6sxFnu0MzqVwuH//viwpkl6VpsREgAgQASJABIhACASS82kEacQCujzWRUD30V03V+ZGBIgAESACRIAIxILA4OzpWNdpJGncpuqQNG6DO3MlAkSACBABIhALAoOkMRYBfTlIGn1E1rknaVwHZ+ZCBIgAESACRCBWBEgaY9VMZHKRNEamEIpDBIgAESACRGBlBEgaVwY81exIGlPVHOUmAkSACBABIhAGgUHSSJ/GMADvJRWSxr1okuUgAkSACBABInAdAoOkMdYdYejTeJ2ib41F0ngrgoxPBIgAESACRCBtBEga09bfatKTNK4GNTMiAkSACBABIhAlAlynMUq1xCcUSWN8OqFERIAIEAEiQAS2RCCJHWG4uPf6VYSkcX3MmSMRIALhEHj9+rV5/vy5+fDDD2VHsQcPHpjT6ZT0H8oAVzKUCWX7+OOPwwHGlIjABARIGieAdMQgJI1H1DrLTATSRgAkCkaGO3fumMePHwuxevnypUF79vbt27QLZ4yUAWVBmUAaHz16JGVFmUkgk1dvEgUgaUxCTesLSdK4PuZL5Pjpp59K5/Lw4UOxULz//vtJW1pcS5FaXdBhohOFwzaPYyKACZMgiiBRuIYf1lEOlBVlVgL56tWroxSd5VwBAfo0rgDyHrIgaUxXi9Dd06dPDQji/fv3hTS+efNGrC17IlawHKGs6DAxXKflJYFMt+7Olfzdu3cGHw/4cDgSURzCCRjgtw9M8MHIgwjcisDg7Gk0vDF2KJALDQKPdREgaVwX7xC5gUSp9Q3Whhh/zyHKOZYGOkolkDiTSIyhlfa7Z8+emXv37u1i2Dm0JtAW4IMRGPEgArcgMEgab0l0ybgkjUuiO5w2SeMwNrG9+eyzz8R/C4RxD35bofCFxRHWR5x57AeBL774QoZiX7x4sZ9CLVQSYATfTmDGgwhcgwBJ4zWoHTAOSWMaSscMURAjnHmcIwBLIyyOsLoc0fJ6jkjaT5QwctLHdD2ibYC/I4njdMwYskWApLHFglcjCJA0joATyStY0GhFmKYMDFvTz2saVrGGwgcAdAj/XFNVpiirWaJWZWHOolTV+bPeVCvj5la5N73h24fId5KsVTcPYypTlmUn3zZVXFWAYdIBzIAd3TUmwcVADgKDpJE+jQ5KvJQJBlgPjEecCMDZHRY0HtMRwDA+Ok5aqaZjFktIWMnQHrXuF6XJT5kpQJpA/Mqy569Lwsr8ZPKyWyI8O/kPu0HkrhOuKkx2yo2XVE8sPKpMkZ3n2xcYeWQdWVBG5FOZIu/JD3JkmcnLypR5Jte4P/8rhHgCO2BIi2Mf+nw2hMAgaURlgnUptoM+jdtohJbGbXCfkiuWz+GyGlOQOg+jw5toV3ikgwA+kHzf1Eotc1Vh8jw3eZ6ZE0hUc23Jki0lyJtPvEqTN8/GLI5K3mq8fNJYgbC2Jr+qgCz6l5nsBDKo9+7ZtXxCFlde5OXkO2itLE1RWNIoBPpMpd10gSE/Ns9A4oMRBEgaR8DhqxYBksYWi5iuMBuSEwBu08i51eq29Bh7WQRgGYZPnj2s5a5dr9MhgmXeWg3FCleTsDI3WVbvBCOWuFwslLDONYY9Ce+k5RSpY2XE8w5ptPJkDmOrhERay2cBIpsXPVZQ+16pZiOLpi0vamsqCGNel6EV2BmarkxZgICCIKr1FdZQXFemKrsWV2BJa7ujYF6OIgCXBveDjYt7j8J13JckjfHpvtt5xidfShJhqBqTY3DmES8CsHJAT32+eFUBQuYMEg+RRhQPZEzCWotjgbBZbgod1oZ1EMTSt/YJifOGsJXY1UPP3SFlF8ua9NXMEPK65FJDVpDlVFtIZSi7lCFtWE3lOfwafedFWFdBgJWs1oTRwlGTRJGzJpGamTGCJSeGOYDwchYCJI2z4DpOYJLGuHStEzkW90dKaILBrRpCHcdQ/+KY3irogeMPW8WUkDn+frAoNiRKSWINXvOuHq4t7ZC2kkYZ6oZvJHwH1fwHIgZrXeFYMJFcTcZgvWzy83WE/LDPtUNqh0ij9cmERTD3fBpBcNVaWJpSiK1LAlH2Qnwr7WQbK0Qnn6p/Ig0/QH2F8X4qAiSNU5E6WLg+0hjrZKm9qwakBosYw+qy/KGdMTrHmCcYhEECQ/1cADkMlqFTwYcSLGLnRztELZM+aqLYIUuu1RHegToU7T7H0K3/18kM9b9C5A75wz0IISagDB2QRayWVSlDy+LjKJbM1qdR+a1Nw1pArd0Uw80YjoalEdbP3OQYfsYw80CWHT9KL58cxLInHrAFxjyIwBwESBrnoHWgsD5p5ISk7ZS/tvN6rBMMltAACDnWueQw9RLo3pZmr5VRhmHtxJIMZKqx9lki2Rj2OkTPWuxA8lpiiY8jEDJntrFnGWykb9KyE06sP2W//6MskwPC2KRVL5uDDzAZnrZDzZUMOWsOVvYM5K4oTF60w9Fdee1MaY0l53oSjvWjdOWzVlDkM7RsD62NHSR5M4AAfRoHgOHjLgIuaSRh7GKz5t16pMZ2XDFPMFgK97VJ+VLl2FO6/ozNpmzw5YOJDkPE4n9YmjwHyfKWwWmIXh2zJpunZqkckMYu8WsJWpObvajTkvd9ebnBVS4/fxnVdnwQ3ThYjzFX/8rupBVbzqzrv+jE7cpsy1SAnMrEGX82thOxvqS18RwTPuki4P8WG0tjrEOPwQkLvsx6TPVdmLy7njGBoa83+6XZHQ6QBkHaubydrddk0TNE4sony0n4P374stgv5HaIxH5N2zW6/PBNZpMvlDQGx3+yBAwIBLYgNOiIXF+szvCcdoqqHtyvPsFAMw9zXo+Yh5H3CKn0LbHTKbdXD2WNQ2e8t0umbEx5hiFfJZszSWOTP/L243YshzIe3v0NjZLGWj5xB7EzpZs+SvIa8p10ia9aU8GnLTm15R3vC7BbDDYI4EEEhhAYJI1DEbZ+Hpy0SGPTOhPD+VjbGsvVHMdqKbz9MWoYi4f7Y/URasPDz6T1S7HrdWE2HIZVND3xRZGGDL4uCJPZ4YnmS7W7zpYuFqsWodYRGzLVy0roore+aDPuQRrhR/fkyZMZsRg0NAJ3795deegU9cg63zcLCjeTCOpJAM0YoO0cbR1caYJBaIDr9LYg5wsVZRfJXqz3LmlEW9mQOPsR7pNIa7GzlkW0uUU9yaWzfmIz1O1B2LTF9fOaNMpyNuITadte92ehH1r+8jsyBK0ztnW3FyWG6Beaoel6qBnrSJYgqfY36ZZLyaH2CdoXtM+tLyd8IhsS6hUNQ4/AGh9OPIhAHwIkjUBFrHd2Vhl+YNZQ0rWYNAs54AddtwZKAmVWnJA/9YdphznQSMiMN2dtrHFLY0/HCxmbjrpLGsXnBWt/1QTRbahQFnnuLxvRVxMuPPvXf/3XJg/Na+kzfMt4tAhgBwfsYLLegQ8e++ER6wSDpbDwG8al8mG6lxEYngDjxFXSKISrNQIIOUTb6HyY22dOGEmm/vB3JsLA57BjYdfsfNIoO7Ro21+fc8+iV8cRo0Dvwt4wEnRHpDQ7WdQbBBZD4fqwJpYtOa77GQlQT9ipw7qkEY/OluvRNOtzrBt7eGLydiME/LaxGZ7eSJ6L2Ya1NLZDwZrxJdKIWXdiFXSWQ2ieaSJ6FjJqZ9bhCxbLOegwsh021gampqQ6O1V8UDA7Dn46Np4sv2AzPt8poJ69B6ulWiz1axPETr84VaxrzrA0futb31p1o3vIzqNF4Pnz5wZ/qxzRTzBYHgVY1t+9e7d8RsxhFIGpM9p7vIYG0z0Pe77otRHXpYamddI6j995fX4jbXt/WueBQz/x/CIvJL9qO3NBFr6OD4FB0ghyhpexHSFJI9aywtIHrj/KGGmURVdlRhuGmTFMUK/KD2IGi4xr5muA0+E9PKiHqp3hCFlKQePVpFGIZYFZbl3SaNPvWholGxmOgUWotXC2X9jeF28j17wL9WnERveYxbjG8AVJY1dHqzqpxz7BoAvNIncX/egWyZWJ+gjQ8uUjsuy9tvXL5sLUU0VgkDTG+kMNSRqt0kDkWrI1RhpB+mDax7BFw/P02hm2disD0rN+i7AC1nk5QyAgrjrcbeOBFKrF0CGIyFc+b51ndUayrZUMwShB1GFFTceV6LprtyFZiziSNLa68n+o7ZuFr3TYr87G9aHCI9Rv35Itz9aaYLBg8d06v2A2THoEAfrYjYCz0CsYBO7cubOKYWChIjDZBRHw+6JmPPCopBGdohDChgR2SaVY8BrGaB2e7dpeju9X489iCSCGogtYNYsLw9OyIb07nFxZR+imAtj8uiRTCWJr6bREtS5HE/e2C78DXYM4kjS2OttsDTWXNIpFWz+wIplg0EIU/AqEBZ0nj+0Q8Duo7SQ5Vs7wJwf2PIiAjwDXaZQh47YjbKyOvaRRSZudBS3rgymiTXh9YGQbKCyBY7d+wvPWh1L8IGVFf/vMidXdlUAmwNQLwNYWyjYsrmriWvsuiu8jZlw3M3e6oa+980kj0sGzJRsWksZWW69evTJPnz5tH6x1paQRZ9dnVu4jmGCwMA7vvfceLS4LYzyWfF+7Mxae78IgEKvRKEzpmEpIBA5qabQTUopCF4iVcbfOenPKwSp/66Z6QowsJpuXsj1Vd7jOIY2yWj98FeFHWeepK/Srj7S7zRRm2TXL7+h2U/4Mu5Y0NsPgKmzAmrFF403S2CpwS+f0OU7/52EXnmDQQrTIFS0ui8A6OVGuGzgZqqABsVYjsOdBBC4hcEDSWFsPMfFEh6aBEsibTEV2h6fhz1jY1fgzrJ9YT4iR8OqbiPRcX0KHNGq6zr6n2MVgaM0sUZZYGpVRyhPvP4c0jqy/5UWafUvSOBuyoBGwPib8eXmsiwAtLuvi7efG9TJ9RNa55ySwdXDeQy4HJI3WbxBDx9jV5fxwFveWGaXtWlmY+SwxxHIIX8Q6PqyHDc9rSSOGpM8WVq3jynByPQu6sxyPuxeqXvvL6Miw9bnkIZ+QNIZEc35aDx8+NPAj5bEuArS4rIu3n9uWFnZfliPdE/cjaXteWenTOA+vw4YmadxW9VjmCJNheKyLAHFfF28/N5IXH5F17on7OjinmIs/Oa2xNGIVfjDK2I7wS+7EVsI45SFp3FYvmASDyTChDiz1VLTm8OFkYcXuvLUW+e6zToD2pmdf93Ofxza4XUzZuZ94Wen2awjfk+fEZHqDYQce7MTDYxsENpsAtk1xo8k1dHsTTcEoyM0IDJLGm1NeKAGSxoWAvZAsSeMFgBZ+HfbLHy4T05ZkknUZO1Px4UMLtwzHbcMre7N2o/rj6llm+utKBV4k3Dbh7B65vW4aHVkkUteHWGZ1j+TRk+3YI06EGUNn+XebLTW1fNGizoEW9qjVs6lwJI2bwp9O5iSN2+rq1o+l7p63mcF+6djaEjsidf/ciVnnC8nbJZ7Ul3fIWokJY6UsOYWVBOD7q1tv9u+aVGPrkEYQzzN+CELoPQSpxSz7XoKpPsBenDma5Az+OWiFD7tFuxO+FOmlyAlg6elsLYlJGtdCOvF8tmi82WG3lQaTYDAZ5tqjapZ7sgvMn7AdprudpXOtQ8+YuCV8S6138qJeHQDD29iC82z7TF3Q3pI5XQZK9lB3dkeyJK8ln0Jgm+WlClPITjNYnsr5w2oFDgFsF7F31z+1E9Kwc5P+XYvZZ599Zu7evXttdMYLgIDfQQVIkklMQIAW9gkgHTSI/5tsfBox5R5+jbEdt1pcYitPKvKQNG6rqXC7k3SXhGqGkr3iyT7rWCRe1grFUHYpQ9rY/QhEEPcgZf1HZdcrhaUvtzshNfuuS5R2RQGNL0l5lkasRiCkschNXtQkV/OsiayQy6y1lgqJde6xC9OQlJr30JlDo0PIrPd8vS3tKlOhjl2oLPLx5YaRpdmwaoZdju1S/EHkdK/3wQDrvVgP8/XKxJzCITBIGmM1T5M0hlP+nJRIGuegtUzYm3+TIGXYo9yz1nUXo69lx17nWMgecZzwLfnDu1KGntu90u1EFNxLmjUJFItlngvZlGHqzi5MDlYSHuulWktjk22djhOyuRTS65BEnzTCwtm3kFaTwMgFJwOMgLPiq6WWm1JLtJ7FfxcfGY6V2uWHKHLrNtHWf1lrF9vEytq99kPHjacWcYycuH/4jcBtxC4HfO56Ib+13G4CgZ3FmqPEJhR43tZt+zvoPmvCz7zYoq2fKSKDb4gASeOG4KeU9RYNCYenuzXkxYsX5tmzZ92HM+6k88oKA2sJhpbVioi1Q9Wv0ZI6TRQWQe2YrG8iOivp+BBHrH8YBtbw7hmWSY1rJ7bk6ACtc6PJIYcbHJaaeh1TzOoWX0X1SZTO1naeyL8hk00n3g5FT+n4O9mO3HCIbgScFV8tssC3WKprS7r+FnrO/goDLWk0llyCwOUgmqjvmaxIIKTTxwf51XUedVTrcHON9/pQ4trJakoy3VctCXV/X0pI3Y0lfCGm3aONQVvDgwj0IcB1GvtQ4bMzBEgazyBZ/cG7d+/MvXv3rsgXhK8me9L71MvmwJpY+w5KRydDzpq87bQwvCy7INUWGLwVq4aSPxmqduifdMbagbVnIYvacfodpMRBB66k0pLMhsCOWBqFJDqkN3evaxLgd/xawrHz9ViPpcp31yCwiC60LopAuiJALR02WXBZGh5j+BgfMfoBk+PjC78jWMWtdRHb0Bawvjs/h6a8Tn4NUZQFA2oC6f0mMHnM5oXfUJcIIr79cHM+vOqNIfywTf4zLu7fvx+la9qMIjDoigg0Po03D4UtJDSHpxcC9kKyJI0XAFrp9VUNunZYPZ1hSwD9AsDal9tOEMPU7mtJL7OdaMPs3AAu6XP9F+21by1sYjbkEOFyU8g2na2FUYbkms68Hh50J8rA6oMOtvMMHbonf5Ph8MWtVt3hlPnmGgSCW32lDsPCjvqlJKyua/Uwcre+WaldwmeXiPKGs5s6XJcS+XjD0mo9PGWYTNZPGhEbQ9c2bGtRtO4htbzNb8F+yElY59k1OIfznb4md8ZJEQGSxhS1toLMJI0rgDwhi5smZ8wijVaYxpqS560Fpe4I7VBzn9B2hrZ0uhjOdjsysYi4naATv+lw66V+mvs6DPJt0uqSRqw7ecJsbpm8Y7frbMnjPNKIjhMWXcye5hEHAsH3QhbSqJa6CZZGgQHhTgaTq8SaiLqsLhTNGbP3O59YEtP9OHOJZ3PdqdsW82YYuuPKYWUAQWzzsaMCIayMi7gCxFGFKMVCCJA0LgRs6smSNMajwausjRC/Jo3+8jsyBO1Y56TLU2IoFj+dKd36HWJYTqx6GKLL3Q5McaqHvtViKOs22jjWuqMdtoZvF/duOliQRndpIG/JHcTEzjZ5hjUnMUu67fxhpYF8Er/f6dLJuHsZnKB0k+fdFQiAwMPaiJm9QY4OSauJmBI/WAabj5M2NyVx8OUV/0T5qLlgaUR0+S21Q8wNUWySthNi/DwRzrceijtJbblsRJQPsb7fYJPBpAtgC4z5sTQJrsMGQv14/PhxU36SxgYKXrgIkDS6aGx7fbW1UUkjlrDpcfq3z4aWHYH1T8lZXf6aWJ5khxjFxBJLOwStFhc7LI0JN+rvpZNedGaz7SAxyaUeFkfUUdKoHT2G0DWfljRaaXTyzoBlU0V2zsHJiZM2L29DICiZr38Lsu2k88HUWRdUq5WIjfoPlwk7EQvhKvg5yu8Ivo7tpJq2PiKirfvu7GeJlzm/M/yOZBKNi49aD1syaD+EaiLZ+DnW66I2DNJNY941Xb/m4XXU0IOzp7n39FGrRH+5SRr7cdnq6VV7ItfL6Gwl8/x8z4eVO/34WYJ2yHo8zFmkzgMus9OBI6obv7O6STh1fZBF72uruZJHsVJ7HxqYHV1a30HLz+xkMl1HVBav1/juXui1kLI8VfPeTqpp3Sf6/G7rjyIMh+PLql7Sp/G/bLbyzGS4/JY6rzhePYKhCfB8CAT832FjaYy19Pwa2kYzJI3b4D6UK364aOThf8cjDAJXW3DDZM9UJiCAYbHXr19PCDke5GyIWKzacHGwlsEet0RJEEPUShplxQGs6YgVCDC0Xc+olued7CuDmdWtFbOHNPqL0DdWfFgWdUF9GN9rS2M9lJ6LW0Yns6tugKk75HhVIox0CARIGg+h5tsLSdJ4O4ahU4BOsPBxMD+v0AImlB6WdQEJJ5ZxKw0fSdATOq7rD1jxWh9DTUcJWTvBRN+05yPQWHgAACAASURBVJY02mey+H09UUXI4yQSB2LqWTLbLOqEYf30h6Id0tiZCONHnnfPD9B5eB09NEnj0WvAxPKTNE4EauVgnO14O+AgIhjuB3HkET8Cb9++FX1dLalaFdUnUa12ut4iluEBYaufu1ZHIYZ4IBPBPB/fepkcmSCmzrodi6GSwOFzxzWx3pmmW856Ifvuw5vurnJ1uSlHRk4ZgUHSyL2nU1ZreNlJGsNjGipF/Fbxx2M+Apj4gk7zzZs38yMzxmYIPH/+3ODvtgM+sOd+s22alqC197gaC98NmcJdGBxTKCllDIXAIGnk4t6hIN5HOiSNcesRFsdHjx5xeHWGmjDZD4QRZx7pIbDUntTpIXGdxPDhBYY8iMAcBJIjjXDYvXv3rgGpTe3v29/+tvn93//95OQGzvAjAilZ88AaZTymI4BOACQIP2oe4wigHSFW4xjF/hb+pyA9mBzJYx4CwIwfmfMwY2iLAH53cBHRo+mlY7U0QlBYvVL8++lPfyqNXIqyQ+a1Z+qSNOrPcvoZVjPsZvLs2bPV9TVdyu1CAh+0bZgpykkv2+khZM5PnjwxsLTzmIYAsAJmPIhACASSII0hCrpFGlwuaB7qJI3z8NLQIEPYOxnkkZ2pRQW+i1iDERZzfADx2BcC8OmFftf+sE0JRWADjOj/nJLW4peVpHFBHZE0zgOXpHEeXn5oECV0EHfu3BHLAoavj3Sg/DoMB5eWV69eHan4hysr9IsPpRDrOO4NPPz2gQ1/A3vT7PblIWlcUAckjfPAJWmch9dQaFgYlDwpgcSsSVgjU3WV6JMbHaPOBsUQNIgihuGORpaH6sERnuNDAa4H0D8nOBlZRgp+n/BfBDY8iMCtCOhvTNMhaVQkFjiTNM4DlaRxHl5TQiuBBLmC3yM616X/fvd3f9f82Z/92eL5oGNU0sgh6Cm1Yb9hoH+4IsC6hjpxpDU4UVaUGWXHH5eT2m8936Jkg7On8ZVG/5CwKiFpnIcnSeM8vGINDVJKEherdvYtl0+g9MNiDSv7L3/5y1Us+SgLSCLKpkTxaER537U4rtINksa4xNyHNCSN8/RI0jgPr1hDkzTGqpljyQUCqS4Ma1jZv/71r5tvfOMbi1vYURaQRJTtSBbVY9XeeEpL0riiLkga54FN0jgPr1hDkzTGqhnKtSQCIHL440EE9oQASeOK2iRpnAc2SeM8vGINTdIYq2Yo15IIkDQuiS7T3gqBQdKIpTo4+yysWkga5+FJ0jgPr1hDkzTGqhnKtSQCJI1Losu0t0JgkDSyoQ+vEpLGeZiiDvJIHwG2JenrkCWYjwBJ43zMGCN+BEgaV9QRSeMFsKvKVKN/F+LzdZQIkDRGqRYKtTACJI0LA8zkN0Egyb2nN0EqQKYkjWMgVqYscpPn+peZ7HQyWXOfm7woTTWWBN9FiQBJY5RqoVALI0DSuDDATD4KBLi494JqIGmcCm5liuxkTllhKvwjU5wKXJThSBqjVAuFWhgBksaFAWbyUSBA0rigGkgaL4NblbnJTpnJi9xkII1VYbIMFsfClCSPlwGMMARJY4RKoUiLI0DSuDjEzCACBEgaF1QCSeMIuCCHMhxdk0Mhi7A02sOSyZPJy5E0+CpKBEgao1QLhVoYAZLGhQFm8psgwL2nV4SdpHEM7HoYWifClLAwgkDq5JixuHwXMwIkjTFrh7IthQBJ41LIMt0tERicPc29p8OrhaTxEqbwZcy6k19kIkxmh6ovRef7KBEgaYxSLRRqYQRIGhcGmMlvgsAgadxEmp1nStJ4ScEgjbk5H4EuTS6TYi7F5/sYESBpjFErlGlpBEgal0aY6W+BAEnjiqiTNF4Cm5bGSwil+J6kMUWtUeZbESBpvBVBxo8RAZLGBbXy6NEjA4D18EkjFslEGDiW8gACtaWx8WNUf0ZaGlOuHySNKWuPsl+LAEnjtcgxXswIDJJG7j19u9oALjpMJY4uaVTC+ObNm9szYgpEIGIESBojVg5FWwwBksbFoGXCGyIwSBrZ0IfRiksclTSSMIbBlqmkgQDbkjT0RCnDIkDSGBZPphYHAiSNK+hBieM///M/mx//+McyJE0L42Xg//Ef//FyIIaIHgGSxuhVRAEXQICkcQFQmeTmCHDv6ZVUAOL4zW9+09y9e9eQME4D/XRq1pqfFoGhokSApDFKtVCohREgaVwYYCYfBQJNL82GPqw+QBr/8A//0HzlK18xr1+/Dpv4TlMjadyHYtmW7EOPLMU8BEga5+HF0GkiQNK4gN4++eQTc//+fYMF02Haffz4scFEIx7jCJA0juOTyluSxlQ0RTlDIkDSGBJNphUrAiSNgTXz8uVLmUH9+eefd1Ieet4JdPAbksZ9VACSxn3okaWYhwBJ4zy8GDoNBLj39EJ6mmJRdC2QC4mRdLIkjUmrrxGepLGBghcHQoCk8UDKPlBRB2dPc+/p62sBQH3w4MEk38U5Ya+XKM2YJI1p6s2XmqTRR4T3R0CApPEIWj5eGQdJ4/GgCFPia6yHU6ySYaRLKxWSxrT0NSQtSeMQMny+ZwRIGves3eOWjaQxoO5v9VO8NX7AokSRFEljFGq4WQiSxpshZAIJIkDSmKDSKPJFBEgaL0J0OUBIS+E1lsrLEqYZgqQxTb35UpM0+ojw/ggIkDQeQcvHK+MgaeTe09MqAwCc6r84LUUje1WHTnNq3jGFI2mMSRvXy0LSeD12jJkuAiSN6eqOkg8jMEga2dAPg6ZvlrQKhrReqrypnUkaU9NYv7xsS/px4dN9I0DSuG/9HrV0JI1Xan4t/8O18rkShkWjkTQuCu9qiZM0rgY1M4oIAZLGiJRBUYIhAIPW27dvm/S4uHcDRf/FFhbAJS2a/aWM4ylJYxx6uFUKksZbEWT8FBEgaUxRa5R5LgIkjSOILeG/OJJd59WWeXcEWfGGpHFFsBfMiqRxQXCZdLQIkDRGqxoKFhABksYBMGOw9m1h5RyAY5XHJI2rwLx4JiSNi0PMDCJEgKQxQqVQpOAIkDT2QBqbX2Fs8vRAFuQRSWMQGDdPhKRxcxVQgA0QIGncAHRmuTgC3Ht6BOKYLXsxWD5HoAvyiqQxCIybJ0LSuLkKKMAGCJA0bgA6s1wcgcHZ00ffezoFH8IUZLylBpM03oJePHFJGuPRBSVZDwGSxvWwZk7rITBIGtcTIb6cula8ypRFYcqqlbPMc1NUxlRFbvKyfW6vKlNV/p8TpipMnhfGSc556V1WpSmKygl7LkvM1lCvNLNvSRpnQxZlBJLGKNVCoRZGgKRxYYCZ/CYIkDR6sJ/7C1amyLKGJGZZZkBmTllmMpxPmckySyKRlBBJhMlyk+cIk5m8KE1V5uYkDLM0eVaTxsqnji5BNMY0cVTI0uSn3JzxVGPMudwaJ90zSWO6unMlJ2l00eD1URAgaTyKpo9VTpLGWt9DFrsK1j6QxrIldOOWRkv2MpgijUMQy9z4z8r8VD+zQrj3VVmaAqQzL01Zlkb4JUhklpk8ByHFX9di2bWQpl+RSRrT1yFKQNK4Dz2yFPMQIGmchxdDp4HAIGk8UkMPEHr3epah5FwsihmGpJXIwcro/ukYdVUJwSsLkL3ClGVhrZAgfT2ksWtJbC2axtTXpSWMII/IopSzDn33Wx0Hy5JGfexISdLYgSPZmyO1JckqiYIHR4CkMTikTDACBA5PGi9b50DO7PC0T+ZgASyLXKyBosuaNIqFsADh65LG8+HpwmQ63Fw510Ia22HoqrDWxUyHtSWzftKIV0NW0wjq2ywRSBpnwRVtYJLGaFVDwRZEgKRxQXCZ9GYIHJo0TvEDBGGzfosgjrAA5qZ0J7qAGKqlUdSIIWklmc7wNAilHWNufRrVoigj2erziES6+cByiSwwVN4OSTtpD1SfKeUbiBrFY5LGKNRwsxAkjTdDyAQSRICkMUGlUeSLCMAodbi9p6db4iwBxFB0URYyoUWsiO7QNK4b0gjrn+unWJkCk2AaNdTvm/CYOJOJXyP8GdvHdngaQ+Liu5i179pwl0kjsr1sSW2Ei+6CpDE6lVwlEEnjVbAxUuIIkDQmrkCKPwmB3e8IM8fnD36IeVn7FwrzU3/CSvwLZXJMbXVs0W3DyNI74suIiSzt8zasTLcWv8furOja0lgHlOFpnTKN9IRdTiONSGJOmTuybXxD0rixAgJlT9IYCEgmkxQCJI1JqYvCXonArknjdVY3hzRWdmJKCeImS+3AAunMbgbomG2tFkKcm+V32hnP7pqPMsNalvBxZ0KPkEZVLHwgOz6O+qL/PN262h9/i6ckjVugHj5PksbwmDLF+BEgaYxfR5TwdgR2Sxqv9+9zSCPwFVJofQwx+xnErUsCPSWIpbEdoPbeyi1mRdvlePQt8qzXgsTw96kdntYQBqSxHc9uHl+6uB6HSymHf0/SGB7TLVIkadwCdea5NQIkjVtrgPkvgcDu956+3cLWkkaQOyza3SGJYnWsSR3WUYRPo+/z6N93/B771FqJtVJHpDs7z8gsa7uoeKEB+pIYeXadxXUkwYVekTQuBOzKyZI0rgw4s4sCAZLGKNRAIQIjMDh7OnA+mySXqi/fGmClgA1J4xo1Yfk8SBqXx5g5xIcASWN8OqFEtyOwW9KYijXtdhVen8LtVtjr854Sk6RxCkrxhyFpjF9HlDA8AiSN4TFlitsjsEvSmJLf3vZVIN59q0kaY6gdt8tA0ng7hkwhPQRIGtPTGSW+jMCuSGPslrPL6vBCNLO1dda2cx6fW+MldPk2RsssSeNlvaUQgqQxBS1RxtAIkDSGRpTpxYDAIGlMraFHQXr3j44BZdOu0dis19iRC+87D+RGFv6WPawdsqj7XxfdCDID251wg2V8ZCkfZ5/s3F3W5zy/2DAkaTzXUYpPUmtLUsSYMseHAEljfDqhRLcjsAvSGKOVzFWNbEWY2f2jZYeXPDdYGNweWCjc3UWmjWnj6fqOzjnrD9/ExHaDfcv0NAGGL2Ky1pI0DusppTckjSlpi7KGQoCkMRSSTCcmBJInjSn4Lwr5611T0S7nAyLZXafRVhGxNGIbQmc3GVxjL+q+8IiFXWywriMIF7IUC2TubmU4rfrFgCtJ4zRdxR6KpDF2DVG+JRAgaVwCVaYZGwLJLO59jUWsKkHAsGNLIUQMO7e0Br96JxchaY5ahKTlsu+0O4QsaQlJK0zhDhX3hB8jjZLmwALgWJ9xaM3H3M0TcsC6KAuCo0x2cXDLU+2WhyBgWAxc7ZtOCQcvt7bgkjQOqiapFySNSamLwgZCgKQxEJBMJmoEkiCN1/neWSIF4lTk2G0lN2WRmxOYlSyYjS0BK2up0+356ufYf1oseIgj6rMWQiF08DlUNjkQXkijs+i3T/hkZ5kOCezxgfSsja31EYwRWwp2h7yxo0zHuFlvb9jJZkJVvA7rCQlPCELSOAGkBIKQNCagJIoYHAGSxuCQMsEIEYieNOp4+qeffjoTPkv0QJrssK9cdLbig7UORDI7WXLYhNOclByamoB6DMwPr76KQhph5VPip+np2bc0guAVhSnrfa3ljCFpf1JMkRtXBNk5pt73GkPUIJLqQ3lGVDXvCWdYdf/yL//S3Lt3z4AArPX33nvvTZCOQWJHgKQxdg1RviUQIGlcAlWmGRsC0ZNGAPbhhx+ax48fG5CZ6ccIaRRLXSZD0KVMIuknjSCVlje2abn5+6RR75U0umE71z5p1JciVz3jGWE80ugPNYOkilVUyamesb1hx+yoGUw7v379Wmam/8d//IfBkPVaf+/evZsmIENFjQBJY9TqoXALIUDSuBCwTHZTBNRwp0IkQRohrBIZFGDa0RI9JXMyrAsLoDOxBMPQp9rSiGHjkw5Vi3Uxqy17bVqdvOvw4icp5NOGv5Y0SjzNfzJp7Ehkb24gjdcR9B4Z+OiwCJA0Hlb1hy44SeOh1b/bwg+SxhRKjCHq+/fvi+XrsryVwcQXOzyNiS12eDoXC1xpCl3jsCjkWod9rS+jXesQVjx7tGn5+bbh26FjmdAyZukra3ncxMQ/En6KGC7Hcj2YMW09KptgsCQ2N5gp7Q1J10PVeZbNtjR+/vnnMgyNWdQ8iMAtCJA03oIe46aKAEljqpqj3GMIJE0aUbB9khs7E7rlmVhmpzAgf/5saiW3wCLU8PQ8Mj5WvfiOCBj5+IBLAw8icCQESBqPpO3jlDV50qiq4jAqkHDtjorMvPP8Yf956TP08RCgpfF4OmeJjSFpZC3YIwK7IY1QDgnPbVWUxPs2/Bi7HwGSxn5c+HTfCJA07lu/Ry3dIGlMtaHn0Or8qrzPIf75ODDGMgik2pYsgwZTPQoCJI1H0fSxyrk70gj1kQRNr8Qk2dOxYsjrECBpvA43xkobAZLGtPVH6fsR2CVp1KKuNtyKRcF9d8IKE1fqNRZVIOeMPaH9ydDO61UuOZy/CsyHz4Sk8fBV4JAAkDQeUu2HK3Qy6zRO1cwqxMhd27ERDDOgL5BGIZp2zUd/VnS7PmSTYNCL1Qh1UKmZWIoIkDSmqDXKfCsCJI23Isj4KSCwO9II0NcYgpUt/DrmxmHSiO0EraURe0yvWy04dL8u3syNS+6wDhwTAZLGY+r9aKXeJWmEEtchS6XJTydz6v2zWxNil5ksx4LdJzljcfG1eOMa5PloPxiW9zICtDRexogh9ocASeP+dMoSnSOwW9KoRQ0+LAvfRdl5pej6NWJHl3Z1bs2+PoNc1lsSgkT2LNqNZ4PRvdSm3K4yTD9FEIY5HAIkjYdTOQtsuE4jK8E+Edj1RJghlYUmUFVltyF0d2fR/azLzpB1LZH4QOrWhK2UGqd9EuYqOFEOIxZTOQgCJI0HUTSL2UGAlsYOHLzZCQKDpHEn5RssRtihWjuZpSWNsCTmpqzg1+hbDNuJL0VZmAyTZcrCYF9rJY1VURhvl+nBcoy9WGdIfkwCviMC9GlkHTgmAiSNx9T73kt9WNIIxYYjVS5pxPXJZA2DtH6OOtQMYnjKSzsRpnZmtHtGG4c02jC3VL6wpPgWSRj36AjQ0nj0GnDM8pM0HlPvey/1oUmjKvf24VsljTVhVIaoGYjfYj0RprITX2T2NEgjfB/rpXnU0og9pEE8/WQ0uUvn0MPvl/LjeyIwhgBJ4xg6fLdXBEga96rZY5eLpLHW//VEyy6fIzOiMRRdTJsNraSxKnOT11bJljQaU5U9C4ZPqKu3E+AJmTAIEZiBAEnjDLAYdDcIkDTuRpUsiIPAIGk8YkN/1ZCuzJ5WD8TKlIWdDd237I5rOdQhadUF7k86o1ofzjiHG2qfkSmDEoEJCByxLZkAC4PsHAGSxp0r+KDFI2n0FJ8i+bqK7Hrl5i0RWAoBksalkGW6MSNA0hizdijbtQiQNA4gl8ow7/XD6gMF52MiEBgBksbAgDK5JBAgaUxCTRTyRgR2v7j3HHxiJ2SpENs5mDPs/hAgadyfTlmiywiQNF7GiCHSR4Ck0dNhjEO/KQ6he7Dy9kAIkDQeSNksaoMASWMDBS92jABJY49yYyJpMZLYHsj4iAg0CJA0NlDw4kAIkDQeSNkHLipJ44jyMRz85MkT88UXX4yEWu7Vxx9/bB48eGDgiMqDCKSCAEljKpqinCERIGkMiSbTigUBToSZqYmPPvrIoBP87LPPZsa8LTgaoEePHm1GWG+TnrGPjABJ45G1f9yykzQeV/d7LvkgadxzoW8t29u3b839+/cNzksfGBoHWUQDxIMIpIgASWOKWqPMtyJA0ngrgowfIwIkjVdqBZZGdIavXr26MoXL0d69eyfD0RiW5kEEUkWApDFVzVHuWxAgabwFPcaNFQGSxhs0A9/Gp0+fyl9oP0f1XwRx5EEEUkaApDFl7VH2axEgabwWOcaLGQGSxgDagbURHWMoP0c0NhiSxtA0DyKQOgIkjalrkPJfgwBJ4zWo7SNOVeYmz/FXmGqkSFVZSLiiHAulCVSmqvCn99ucB0kjG/p5Cgnh50j/xXmYM3QaCLAtSUNPlDIsAiSNYfFMKbWqyMzpdDKnU27KQcFLk0uYkzll4+QSSZQ50ruU5mBmwV6QNAaD0oilER3kNX6O9F8MqAgmFRUCJI1RqYPCrIQASeNKQAfKxlrxzi15rdVQrYftechCOI00GtOGy0xxwYLYkMYJBDMQJL3JkDT2wnL9w2v8HOm/eD3ejBk/AiSN8euIEoZHgKQxPKZLpFgVucnU4lefM2dY2SV2mQw5Z034bIDptXEcS2OZmyzLjE2jJZ555lwjfYTJMpMXpSlL+wc+GQtp9HXAxb19RK68n+rniIaF/otXgsxoSSBA0piEmihkYARIGgMDukRyZV4P+Z5MlpcGPoZKIJUQnhPAdlgZ5FKJnXsuch2ezkyhxK+w/ovW1xHk0A43Zz5pFGLqEllrhSRpXKICRJbmmJ8j/RcjUxbFWQwBksbFoGXCESNA0hixckS0yhQ1cXN9Cn2S6N8b05JG62Oovobj57zj3OimkZu+eTBtviSNsdekoPL1redI/8WgEDOxyBEgaYxcQRRvEQRIGheBNVyi1blVURJ3noPoteRNh5pbwqfWSF+o8zjdEI3V8KS+jGU9LN0SyDYNksYuege4c/0cX79+LQt2c/3FAyieRRQESBpZEY6IAElj5Fp3hqaHrIAghS15wyxn+Bu2FsVrSGPpDl3Xk19aEnkyeW12bPONizRyIsyK9frv/u7vzDe/+U2uv7gi5sxqewRIGrfXASVYHwGSxvUxn5VjQxrV2qexu5bEDnkT/8SuhbLU5XWcWc1tHLVO2rRdcng62Qkv7hC3S0LbNBIhjQofz+EQ+Oijj8yTJ0/CJciUiEACCJA0JqAkihgcAZLG4JCGTXA2aVQC2CWVpknnZJT0tYRP49SiY+hbZ0fnhWknzNi4ZWFnUmNSdpsGSWNYxSeUGkljQsqiqMEQIGkMBiUTSggBksbIldWQvamWRiWAHml0l8OpF/NuCZ/GOccC6z+qlVHIpuNLiYk5LaEkaTxH7yBPSBoPomgWs4MASWMHDt4cBAGSxsgV7ZC0jk+j9/ycAJ6TRoOlemQNxlK2DTyP42JRmdavUa2TbZq6i0ybBkmji96hrkkaD6VuFrZGgKSRVeGICJA0xq51h6i5rLGxAFqy1pK32yfCyF7TzUSarJ70gpnTOrmmtUy2+SZCGtnQh6/wJI3hMWWK8SPAtiR+HVHC8AiQNIbHNHSKPjEz5nztxk6YnokwfTK1cVoSiHDNRJisXlqncgkjiKMSSevTaP0fc9lisI17eZ/qPplCPePs6VBITkiHpHECSAyyOwRIGnenUhZoAgIkjRNA2jyIT9rU4gfyZoU7J4C6piK2+uvfMPo8TltQ7HGNAz6NuvvMKcsdH8Z6d5o2ilyRNHqAHOGWpPEIWmYZfQRIGn1EeH8EBEgaU9FyZTBrWWc1Y1s/d4cWEEC1+HU2dRkp3hhpNJ51UbYvrNNq41ni6GYRC2l0ZcI19572EQl4T9IYEEwmlQwCJI3JqIqCBkSApDEgmIkk1RC7U22xdNZuxNC3OwFGrIsuO63LWBaFKYp2CHo8ze2BIWlcUAckjQuCy6SjRYCkMVrVULAFESBpXBDcWJOGFTGv11os7Uzqjqi6TmPe864T0LlpZmbnpihmxHOSWPKSpHFBdEkaFwSXSUeLAEljtKqhYAsiQNK4ILhMOhoESBoXVAVJ44LgMuloESBpjFY1FGxBBEgaFwSXSW+GAGdPrwj9mzdvzD/90z+tmCOzIgLbI0DSuL0OKMH6CJA0ro85c1wegUHSuHzWx8mhqveTVF+H5jwwXf84yLCkR0CApPEIWmYZfQRIGn1EeL8HBEgaV9AiZkyd8UM4xOpCUCvIwCyIwFYIkDRuhTzz3RIBksYt0WfeSyFA0rgUsk66mDKf1TOqGitjnpkTSaODEi/3igBJ4141y3KNIUDSOIYO36WKwCBp/PTTT83nn3+earmikhuWxrwoTSlbENVnLCZK0hiVnijMMgiQNC6DK1ONF4FXr16Ze/fuyd/HH38cr6CUjAjMRGCQNLKhn4nkSPCq8gijksd6O6GRqHxFBJJGAB+eX/7yl80HH3xgXr9+nXRZKDwRmILA48ePzXvvvWe+8Y1vyB8sjjyIwF4QIGlcUpNVYfJMtyCy5xNWivee0eC4pBKY9pYIfPHFF+b999833/72tw3q/tOnT7cUh3kTgcURePLkifnkk08Mh6cXh3pWBtCJ++dHdt/h2h1pRTvmv8czPT777LOz93imx6X3IGJ++m58jPxqfcL5xYsXxn2v+axxJmlcA+WyqDc2r0wh+1pWBpuW68bla4jAPIjAmgi4Da6OWmCYDsTx3bt3a4py2LzQ0bgdkasTgOK/R2fgHm/fvu3E9zsp/72r175O1k0fsriy4dqN39fJ+u/RcbodKcqjB+K773ANefVA/v57yKCH30kjrCs/wvrxsaSae+h7PIM8sEDit6B/H374YRMc7x89etS8Qxj3A6vvPcLrAdk0XT2DvOqB8uhzPUMePYCNPtezGx/v79y5I79fMXycTiKvxgcesK7qO5xd+fDefYfrhw8fanQZhfDfu/GxxrH/3o0PrP33z549a9JHXfHfu+lDF/57N37fe1d/COvHd/UHLP33kFmPvviQWQ+k5ccHJjEcXNx7AS3IRBiZPg3SmHUmxZzNql4g/6MkiYYVjZP+uZ0MMMC9vsPZ7WT63rudDN4jvBvff+++02sXe33mnt338IPSjgZndzgXnfDLly9nvUd4Pfo6SbfRAXZu3riGPHqgU7r0Ho2wdjh3794VeREfz1BmHMBMv9DR6Gp4nBEfcuiBhnLsvZsfwqET0fjIAw21Gx/X7nv/He6VWCE+LKRuQ417fY+z/x5ldt/7nSzea9mBp9/J4r0efe8RXg/g6cqG6wcPHuhrwdl/76YPguO/hw+eHkrw20EtbwAAIABJREFU3TD379/X16JP9x2u3fiou/574KvHJRLQF98lMX3yuZ10X3y3k8d7X/+o33qg7vvv3d9T33v394J09PeCa9Q7v7665cF7Da9nlzSgXulzPbvv++K78vS9d3//fem771FvkZ/mjbNLkhHff++2r3jvtnu4dt9DPv+92373vcdvRI++9BFHD8jvp484evS919+qhuG5H4GgpBGVyq1kqMSuovDDdd+j0rmK8t8jrBvf70TdHzWK51dixHfT73vvpu93Orh34/udHr7c9P3//d//WYTL3GRZboq8JouwNHawr0xV30N+v6Fynaj73gMjPXx5kJb7w+6L76YP+d2GHp0efmh6oNFz36MTc9+j03bf49ptGNDp+O9d4oVObe57N32/k4Z8bsPiv3flg978vHGv8Yfea8OEeuPHR/76Hmfcu2Egj9YXxB8jIWhAffndThxy+nXH/RJHfP+9a2kAjv57t1Pri+920niP/DQNXCt2eObWE61Pl0ghOi23fcC14ok0+n6/iueU9/g9uOn77Y//3u2EkT7u3fj+e7+TcjGAnP57YKhH33v3t4JwY/H73qs+NA+k56bhv9dwPF+HgNaN62IzFhFIA4GgpNEnEX0kQzsZPbsNp/9lhjDue7eT0vja8KHR9d/j3u10/PTd94iPTlXTxRnh8RxH3/sz0ojNyzNnjcaqNAUW+h7waQSB04ZGz25Hcc17xQMy98V38fBJPmRwSTTScjsZXLvvQTzc967syN9/j7CKJ977nRjeuwd0P5a+L59LKJGO/97Fxs2H12ERwG/H12XYHJgaEYgPAW3D45OMEhGBcAgEJY3hxGJKRIAIpIoASWOqmqPctyBA0ngLeowbKwIwtmBUTI+GNGKo07fUaCCeiQARIAJTESBpnIoUw+0JAZLGPWmTZVEEBkmjBuA5HAIg4f/5n/8ZLkGmRAQSQICkMQElUcTgCJA0BoeUCUaAAEnjikqAY787uWDFrJkVEdgMAZLGzaBnxhsiQNK4IfjMejEESBoXg/Y8YZLGc0z4ZP8IkDTuX8cs4TkCJI3nmPBJ+ggMkkYMpbozY9Mv6vYlIGncXgeUYH0ESBrXx5w5bo8ASeP2OqAE4REYJI1s6MODTdIYHlOmGD8CbEvi1xElDI8ASWN4TJni9giQNK6oA5LGFcFmVtEgQNIYjSooyIoIkDSuCDazWg0BrO3sbgzRLLnDhj68Dkgaw2PKFONHgG1J/DqihOERIGkMjylTjA8BksYFdULSuCC4TDpaBEgao1UNBVsQAZLGBcFl0tEgQNIYUBXoLN0F0n3SiC30sDWhu5VfwOyZFBGIAgGSxijUQCEWRABtObahdSeP+qQR7xDG3Tp1QZGYNBFYBQGSxoAwo5FwiaNLGpUwYr9nHkRgzwiQNO5ZuyybIgADAeq6EkeXNPp9gcbhmQikhgC4y9u3bxuxSRobKMJcuI2FkkYSxjDYMpU4EdBOU6XrI41+GA3LMxFIGQGXOCppdPuAlMtG2YkAEBicPc29p8NVEG00fvazn5kf//jHMiRNC2M4fJlSPAigQXGtLZDMJ42o++7su3ikpyRE4HYElDj+9Kc/NfhD/XfdlG7PgSkQge0QGCSN24l0nvMnn3xi9Kst1TMajy9/+cvm//2//2d+9KMfJV+ely9fniuKT4iAMdJBusTRJY0gjPDjpV8Xq4oigLYk1XZ9SO6f/OQn5s6dO/KH66FwKT3n6IDW2GOfkyCN6HSwZ3NKP7A+WWG9/d73vpd8OVA2NIioPDyIQB8Cam1RKzs+/EgY+5A69jPUi/fff38XbaLf5v/whz80f/M3f7OLst2/f9/AvYoHEUiGNKJx4REPAmjoSRrj0UeMkihx/OCDD8zPf/5zWhhjVNLGMqFdh1GAR9wIwGhD0hi3jtaSbpA0osGPxRztDm+tBQzzGUeApHEcn1vfYhkmWOZ860Vq9xia+/Vf/3Xzta99zfzDP/xD0uXBMCo/Xm+t2d34JI1dPGK9I2mMVTPryzVIGmMiajHJsr6K4syRpHEZvYAsYi23u3fvyjk1krhneeFegrbovffeMy9evFimAhwsVZLGNBRO0piGntaQkqRxDZR3mAdJY3ilvn792ty7d08sjOFTZ4qhEMAknmfPnpkHDx7QReNGUEkabwRwpegkjSsBnUA2Sew9TUtjfDWJpDGsTrTzjMUlJGzp9pkaFrjFBAHOBL9ev1rvr0+BMddAgKRxDZTTzCPKxb1JGuOrTCSN4XQCogjywYlF4TBdKyX4OWLYmsd1CJA0Xofb2rFIGtdGPJ38EiSNlamqmQBXpSmK0nSjVaYsu0/GU61MVRRmVpTxBEfeWtnGpKuqsitLXUZjKlPeImdVmLw4z5mkcURdM1+BdHDdy5mgRRQchJ+LN1+nkOmksTJVWXlt9oU82c5fAMh5PdDOawiSRkWCZx+B9EhjmZtTXvrlGLy3BLM0eVYYNEFVwzhLk58y08OPmrQQ1v0r85PJQD7d521oU2QnczpN+BNZmoimzDOTuYKgjF6YNrS9qorMWBjQuJamLHKTZYUpy8LkWWbyojRl2SXKiNMnH/KuitxiURUm68GXpNHXwPX3JB3XYxdDTJL+67UwhTRasoj2OTdoweQebaLXtrptJtv5Vie3tPOaCkmjIsEz3HGi33t6eHi6MkXmED0QnNPJZJmSocxkQtzQ2Bhj8F7IV00ahRCBPNpDiNIQ/5S0M5Pn+ehf0ZgePdmG6lojkwbQxlHvjQE5PZ1QFvuHxtLncS1pNJbElpbswQIpGOErHeS2TdZeOfkjH023uRaMzkEhafSBvO4eP0AslE6/uOvwiyGW7ikfgyypyXCZNGo76rTZaMPLvPNhjfavIY1Nm+bEydnO277P9idT23mtTySNigTPg7On8fUcy5DLEGmUhkJqf20lrIkS1NqQHtMlYfa5bUyKHNY5XLeETIlZltWWNq0jTUMkqddfvfXLXmtn3diVGAq3VA15Nw2b0fdKZG1aTeOn+eGML2r9letzRy6RX766M5OhcawwnF3IEDysi0VRmALWxzPG6BJpFzPnGvlp3pqnMbKLA33wHECuvMRvDJbGS0cFffYq0It59mGAutC1MHsxBm5tvIGXtz32XSlQDfvqpubSE15fjZ1hcfeTBdnIJ+CI39DU4zLxmZrS8cJNwQ4jL2i/MDpU6ojKGGls2n+2802NcvqNtm+83M5rfJJGRYLnQdIYEzS9pLEmU5lY/kCWSmtJrAlO+8PokkY7lFw3QDKsfF5SWOfOugz50cHKqNbLkzkp2ayHSYRwNgRLv5C9Mxo7fCnrj1jPEEPKBLJa1UPUdmgZ97AWCsEdGEJvyyst5vmwudfI2rwGhs6zwhRqdYRMTZlarGhpbLG45WpKpwm/VLg69KjhLGv5MOkE1PpfmSKvLe5eLPvx1Vpi7Gutc15g51biZQOWd/w2XBcLqd71M62LevY+7Jws7GUTDp1c3wde/fvvRIT8fnntxyU+CM9t505k+R26H3jOu57LaTrsichHslg62vexo7fNvjg8jZEVtvO3tvOqF5JGRYLndEkjJnjAeiY+e87wc91htiRKO01LyuzwMoavdagZX6/uUMdAB+2SO7+TG7M0gn1K3KzxS5SOXTtVN12xlFpieubDWDeSfQTOiDwn67eI/BBWCW1z7u8EG8tm83VufxQNfpCvQ0Lse5LGMI3HEOGAq0TrCpFZt4te1wh3MpbtJLsfPE79H7RWYrKUtVLD+i4fP/gQauqOErUu2ULdOQ+jYfvqG/Ipm6FF/O6EV/b+fhx8HdKIPM+qo19H4dSPcuhvvLH013HlN5f3W941WxAOuLp4xFdfu+chHbpheN2PwEXsRJe5jAa5bfal4Wm28128r23nNRWSRkWC54RJo1UeLA9NJyKdgSWD8GWERcF2Hn2dHSaJ1BZFiaeWFqeTdetHp2OyHUrTYbrDx00ca6nRPkeIot4gLbUYdvLuK1Np0JGfMFwuQzTozPPO7G/pvOHnWNRD3dLJehN0nI63FdGRwyONNoydENMMjTcROTztQHHT5VCnKbPh5aOo1n9u66v9ULKTmvRaSWLzW5D6paQIdRXDe7Aew8rtuDoMSq5WRpvy0EitdESTLY0gtCCUat1Wcom6bD/iXNcQsQTqRxR8lCUfuFzAWtktv3z0NY2ALZSQirz+DWDyRJ1HQ8QhC0jl2SoKDiju79R57F8O6dAPx/tzBKZiJ/qTiX2ltRJ77ZnURW1f62zcOFKTO20t2/lWG8PtvIYhaVQkeB4kjSnsPW0bBUum7LIyrVWssZT5VkHco+Oq/WOsFc1pQDoNi1NB1BoC/6q6Mz87a+8t0RzSKGmis7TkVeRWK4afn1gJMXxt85GONq99EpVEyMxoJcsoj+140W9CJgx965d2Y23JgZMrYJcYQGSJB1w0mMgGwuHgUF/S0niOyTVPLneaNemrddLXOSJfkKTGEiND2ZgAZa2F8lzqhSrWldTWn0bnYhh3h5Yt2etwMvGZrX8H7soB3rX+Ptpca7cLELYcSzmhYjm/k861lVEIq0MQbPnrvGGNxXJS+F14zBbhZMUAdfUAgaxXS7DDnQKaHbJvBXSBqd1FLpPsyzrsJsu7FoFp2Nk6KKtBiEUcDR1GUxxrPIwEHdKIOGzn9ffl+vHOaeehKUzSw97x2K0KrgT8OzYG2AkLW6niQwJHUkvuwMKQN4SqmuTTaC1+8BWEZRF+XoV8uSrJHOqU0UhJoyRkrrbQKXkEiasJYdsctp2hTdt2mLD4qOVH4nRIIwhCPVMaQ5HSCNbkrrGuqJ9jnRNmR4s7p5JIHbbXZXdqUl3L6vePsjyPlqNenkcmzTTPemZccyJMq+Ybr0Y7TdQ5z4o9WD+FyGE5ktxzJ9B62C7FhA8Rt3+VOPWMfKTfkE93qFot4yivSxqbejL8MSV1TvzLuj6NYhnNLdm18kDW7qiAwCu/vdKU+K27w9P6mzzTQZ1O8x73lkADTxBgmSSD316HDXcTkt9tUf9e/R+OE3RUh044Xp4jcBk7qzs7YbFts6XOOsudiXuFU6nZznexvradRyrv3r07W97IX+6I9zqCcpwziCM2pkiKNHZ+FrByXJo9LdYYdEr4CtXhaJuKdsZKHjtp9w3d1p2zEE+vE65TtEvd1Osl2j7HNoD6RaxWQV0Kwc/TzuBEHLeTx/15xwr5bf/nrCWJr/LaqmOtKz4BrGRmtVqEdE3HDmkcGL6jpdHX1nX3Y52mEDiZNIUh6tqqIuSntbA4/WRttdO6Af9BDEfXy0/BKiNWOdSPHln1IQihYzGUkPVvy7VW4Ll0zI21xw732olptQ9aLyGDBVRltBNbxIVECnL+u5TF6Rv3DHx41eRPhpfrDyxcy0QxWy5rdT1Zwo0h6LL9zdjfSX0/RhqbtqIuZxfoDoBjOuwE5M0ZApewaz+CvLrRfBDYJLX9lrtGd14c/ELEvcHWo77qedb+H7ydV4VxeFqR4DnhvadtR6qdosyIBGkcW6fRGknQ3bWk0ekgZbbdyc5eboawbCvUu/C3dGA6zHxWl1qyp/2xBOncSCtWrx2Jt7ajhyUI1h5YQZSU6uLcnYk/Tp62M2wfSGNbE2NpKCWt9n3/Vdu59r9vn5I0tljcctXfadqJKfL1Lj1bvWwOCF3t0yf1U4acNXfo7iTDvnDVEF+9uq5pR2knTFkSpbGas7MjhO04tf7quQnZXHQIXE1O5SNFSJw3rAuCJlb07pe4td7Xvrg+iZM48FFuh8thnWz4m0ccGsHkVyOsth6ytNiID7JYGnEPn88hS6MNrx93uqpBj5eGZNmvw1YaXg0jMB07r80W3bd+283vos7KVn0vTtPWW3ckrErBdn5YN+4bkkYXDV67CCRkaUQHikbDEb+3E3D8FZugbWPSnaXaWnDgE9j4AOrXpvoKqmWjHjKWGafoEOvntlMb7mxVDHTmSgy0GOdb/tl0uqTR6TjrxBpioMTZI4kop0y+0Z5POuRuBz42xOB/lZM0qhZvO/d2mtANCD8sJh7wjZ7PsoX1RF0RPIuypJfZiSgN4+omAAJoSZLWW5xhEdT7bnjcSZyZlsaW9Lnp2mvXWtjJrSGHVqaitqC2BLVvyZ2aNML9RBa4B0m0pLuxPPa2F7Zc8HnW36SW1X+mMvbqUF/yPIrAdOy0HbdLRzUTmtQCX5+bNltyZTs/uuROz0ec19w0uiNpbKDghYdAQqTRk3zmbYdsTo5bb2E1GN5+uTavr8ukia4X/iLF/r0N5xEFjbzQmaQxDLCjneYs0ljXAvE3tDOlm8kt9QdCYznzRZf3OmRsiZkli2OkUa00eq479cZ6Uz/v5GVngivZ6xDiZkixE8HeNKSxJgHNfR3WJ3/4cMIwvnzIgTTWpBTEQiYJ1WX049XDlzphrSsJyldPrHDZpDGT1hrspsU7RWC0/mugG87XNcFs533ISRp9RHivCByGNGqBeb4OAZLG63DzY412mjVp1Jn08D0Vq7a3/I5wGCWGuhyT9JZ28hVmmcKtwS7zZP25WgIJAqVWRmuds2TOJY/Wsi1W+ZaJ2j3Om4kwdfrNPSbG9H3I1EPsIicml2HdRhtXhqE9C5/gVZPExsqKexcDWB49E4lg0pBLLYv1aRNLIxY6R74aT6yRIJq6VJGvKTDKmji6k4JIGnuAmv5otP5PT4YhF0aApHFhgBNKPvG9pxNCemeikjSGUehop6mksbPQd9eFAqsHNDyuIxKscvBxhM2wPmpi2bWktSsIWD9Y1+JoyaL4Lp6sn61dfsnuZ64Ww/GzXZ1AJ7QgbDuhBmTOrsGoZcDwtZDcWmTNG3Fk+B2FmUAaJbpPGuvyC0+s92RvrZ2lLFOlcihk52dMHlMfD/t2VIfnCfCJgwCxc8CI+JKkMWLlrCza4DqNKew9vTJWzM5BgKTRAeOGy9FOU4aaG8p3Qy5To/ZZBqfGXTPcuZy9KAG/3hdWVkyCCHGM6jBEBjtOg9iloVySxjT0tIaUg6Rxjcyn5tG79/TUyAy3CAI+aURFevny5SJ57TlRdprpa5c6nK7DZ8+eGbQVehA7RSLus08aMUQJXfI4HgIkjcfTeZASu6QRlQjE3u0MgmRygETYaaavZOpwug6xULTbVhC76dhtGdIljSCMjx49Mm/evNlSJOa9EQIkjRsBn3q2ShpJGG/TJDvN2/CLITZ1OE8LbptB7OZht1VoJY0kjFtpIJ58B0ljCntPxwPj8SQBafyf//mfjtXgeCjcXmJ2mrdjuHUK1OF8DShxfP36tbQh81NgjDURAGn8l3/5F1oY1wQ90rx6SSN80+7cuWPu378vP+itNyj/0pe+ZH7xi19ECuExxfrt3/5t8wd/8AcGjT46Tf5dhwF+a5hRzCNdBFD3//RP/5S/gZntANqOb3zjG+ZP/uRP0lX+QST//ve/b37v937P/PznP5d6jj2H+46p/UBffFgxp8ZHWP+4NT5kmpq/n/eR7ntJI6xIY7uDbPHu4cOHR9JL9GXFZuVf+9rXovio2Pqj5pb88WH29a9/PXp9U8BhBH75y18afNjeUg+OGhcfnzBQ8Igbga9+9asdTgDC7x/Ykxj9whR+8PHHH/vRxSd+avy3b9+excfo6JS8EQZh/QNpTokPGUGcjnr07j0NQNCZwQoylXkvGQ6yoGHmEQ8C+LD44Q9/aD766KN4hEpQEvxuQBh4pIsAdXid7tB2wBjA+n8dfmvGwvD03/7t3xqceRABFwHuCOOiwetBBHQijDpIDwbki1EESDhG4UniJXU4X00gjGg7iN187LaIoe286m0LGZhnnAiQNMapl+ikUtIIwbRBiU7IBARip5mAki6ISB1eAMh77RIPYueBE+mt28a7+otUXIq1IgIkjSuCnXJWLmlEOdxGJeVyrS07O821EQ+fH3U4HVOfcBC76dhtGdJv3309bikb814XAUw4cn1KSRoXwR/7+2YyS9bfd9fu21u0+wMvkn/4RH3SiBzQAfCYhwA7zXl4xRiaOpyuFb+N2Ad2fe079kgvpM3PMt3P3ZiqsP2A+2w6etuF9EkjJPF1uZ106+aMWdYvXrxYN9OIcuudPQ35uPd0KC1VpshOzaysrND9bkuTn/R5ZprHobJdOJ0+0rhwlrtMfh+d5rlqqjI3fsfY9+w8ZnpP9qrDNTSRPnbd9j0vW9RAEO1s3JY0lnmabX4faWxLeqwr1Fno9agzqAdJY0zVALProKgUj7IoTJ5r43EyvY1Ktg9LY4r62Vrm9DvNHgTLwhQlrC8n03wk1c+qokjuA6mnhJ1Hu9Rhp4TL3aSOXVnkJhv4+G8Iotu+l3lNJNMyFJA0tr8B1FmSxvcbQJrh6eZJBBcpk0aBD1YXaVjchqL9Qm061giwnioCLY1TkRoPl3qn2Ve6qqqt6dJBwspSmtKxwPTFSfnZHnW4lj72gF1VKBFsLYrGtO37ybEUNNZH59laWN+SD0ljix5J468M+n89SBoViZDn5uvSaVSqwhJJ9ys0ZJ4Lp0XSGAbgPXSaw0jYjjNLrIMcLk//m33rsL/MoZ7uAbuGCHba8tb9qDUKKJF0jQehkFw2HZLGFl+SxgHSyL2n20py69X5MEW6jYdiQdKoSNx23kOnOYZACdeMAdJYFmVyE8D6yrp3HfaVOdSzPWDXtO9OPS8x4aUetm4e18aDlkSGQnH5dEgaW4xJGgdIY0xDwjHJ0ladqVdKEE9N56lfpk1jMjWpiMKRNIZRxh46zUEkxI8RFvVzywp+A1mem1LnhQ0mEv+LXetwYfjTx65t35UMYrhaCeOpqfulyTPU+TT9NEga2x8CSSNJY1sbFrnqDlPIDNJT1pkQs0i2CydK0hgG4PQ7TQ+HMpe6XQlhtO9giZEOtcIEGfsMHWtqKwZ4JW1ud6fDpmTLX6SPXdu+Cx8sC0sOmxUz4JJkl+TJE7askzS2v4Wjk8bevacBT0zWvZhkaavO1Ku2UcFXJ9Zl1I5zagoxhiNpDKOV9DvNLg7Wio6PIseE2DMsV8LK2I2a7N3edLimIpLHTn3T64mOaONBHpsha1gXs8zkedquGCSN7a/i6KSxRcJeNRNhYiJqMcniA3b53iGNWOTV6Usvx403BEljGN0k32n2wHC5imOoLr1lpnqKKo/2qMOhsoZ+njx2HmlU63lDGk/OslOhwVsxPZLGFmySxhYLXJE0dvEIc1dVRlchCZPg9qmQNIbRQfKd5jUwoKPFB9ROvqAOqcNr9N4TZxfYSfvufyqhza92MdELaiNpbCsvJgm/9957BjvD8CBpZB2YiABJ40SgLgTbRad5oYx7f00dXq9hYnc9dmvGJGlcE+248+Le03HrJ1rpSBrDqIadZhgct0yFOrwefWJ3PXZrxiRpXBPtuPMa3Ebwo48+imZvxbR9GuOuANdKR9J4LXLdeO/evTP37t3rPuRdUgiQ+FyvLmJ3PXZrxiRpXBPtuPMaJI0xiU3SGJM2rCwkjeF0cufOHfrHhINz9ZRevnxpPvzww9Xz3UOGJI1paJGkMQ09rSElSeMaKO8wD5LGcErlR1E4LLdIiR3q9aiTNF6P3ZoxWcfXRDvuvEga49ZPtNKRNIZTzatXr8zTp0/DJciUVkMAMyjhXoAFb3nMR4CkcT5mW8QgaWxRx2/++fPn7YODXQ2SRvo0HqwmzCwuSeNMwC4Ep7XxAkCRvn78+LF5/fp1pNLFLxZJY/w6goQkja2eUGdPp1M0cz5ayda5GiSNMXViMcmyjlriz4WkMayOYKkCpm/evAmbMFNbBAEsOwE/RlqIb4OXpPE2/NaKTdLYIk3SyL2n29rAq8kIkDROhmpyQBDHhw8fylf927dvJ8djwPUQwNDUxx9/bO7fv29evHixXsY7zYmkMQ3FkjS2ejo6aeTe021d4NUMBEgaZ4A1MyhcQx48eCBDICAnsLTzb3sM7t69azDT/dGjRwZLJfG4HQGSxtsxXCMFksYW5aOTxhYJe8VtBH1EeN+LAEljLyzBH2LLKjRS/NseA052CV69pV7jg4hH3AiQNLb6IWlsscAVSWMXD94NIEDSOAAMHxMBIjAZAXTAJI2T4dosIEljCz1JY4sFrqIkjRgOwmwl/sWDATZsp+Wl++PhHREgAvMQwDA/2hK27fG07UO6gC8vDyPWcWCEWcRHPJLYe3ovioGvGr7YeBABIkAEiMA+EWA7v0+9aqmObmkcXHInpnUaVVmpn9mYpK5Byk8EiAARGEeA7fw4Pqm/JWkcWHIndcXGKD8bkxi1QpmIABEgAuEQYDsfDssYU4JLBVZSwPJbRzwGLY1HBGPpMrMxWRphpk8EiAAR2BYBtvPb4s/cl0WApHFZfDupszHpwMEbIkAEiMDuEGA7vzuVskAOAoOkERUfL3mEQ4CNSTgsmRIRIAJEIEYE2M7HqBXKFAqBQdKItbPg8MkjHAJsTMJhyZSIABEgAjEiwHY+Rq1QplAIkDSGQnJCOmxMJoDEIESACBCBhBFgO5+w8ij6RQQwAejly5dNuCgX926kS/yCjUniCqT4RIAIEIELCLCdvwBQ4q+xqcXTp08NFrnmEemOMHtRDBuTvWiS5SACRIAI9CPAdr4fl708Pfo6jb4eaWn0EQl4z8YkIJhMiggQASIQIQJs5yNUSkCRSBq7YJI0dvEIesfGJCicTIwIEAEiEB0CbOejU0lQgY5OGunTGLQ6jSfGxmQcH74lAkSACKSOANv51DU4Lv/RSePg7GlUfK7TOF555r5lYzIXMYYnAkSACKSFANv5tPQ1V1qSRu49PbfOXB2ejcnV0DHiAghgmAF18vnz5+bJkycGa7M+ePDAnE6nXf1hn1iUDX8oK/7evn27AKJMkggY+U3h98RjnwiQNJI0rlazSRpXg5oZDSCA5SKwxhYI1J07d4QsgkShbqIx3COZQplRNvwpaQT03fBsAAAgAElEQVQ5BplE5/7mzZsBtPiYCMxHgO38fMxSikHSSNK4Wn1lY7Ia1MzIQwBrioEw3bt3z3z44Yfc7ckYAzKJ3+TDhw/N/fv3iYlXZ3h7HQJs56/DLZVYJI0DpBEVnz6NYasxG5OweDK1aQi8fv3avP/++0IaMSTN4xyBTz/9VKyvjx49Yrt3Dg+fzECA7fwMsBIMStI4QBoxfAVweIRDgI1JOCyZ0mUEYF3EzgWPHz8Wq9rlGAzx8ccf0+rIanATAmznb4Iv+sjv3r2TEZujfoAPzp4maQxfd9mYhMeUKfYjgKFX/IZfvXplqiIzedkfrvu0NHlWmMp5WBW5yUv3ib6sTFGUNmxVmqLoC6Nh553L/HQub1Wa/JSbvmK45atKT17/3hWlLEzuyF3mmSlKY9AZADt3f1U3Gq+JwBgCbOfH0OG71BFA++i2jVzce0GNsjFZEFwm3SCAL2H46DWTWqrCEj+cs8xkMjs6M1mWmZNLxKrCZB12CRLZT9RMmZtMCZcXr3L5I/LM8w45MyoHZMnOCa2QtzqNqipNWdq/HKSuqO/xvs6oQxqLzKhYAMRNqwGovrDktDQF5Mtzk2Unk9XXeV6YR08+lIkyfjzeE4ExBNjOj6HDd3tDgKRxQY2yMVkQXCYtCOArEDODQRyNAemzxMwlZy3JqkxRk8IKVrccYS2BAvHqhnPJGOI59y5pBJlUayWeI/2qkrT6SKbkUbTErUPeisooaSwgmxJGkMiqJYRWTltWWS5IylyYEuU/nYSY9hJklVOQ88pU1ydMGnK/qlnNiMAlBNjOX0KI7/eEAEnjgtpkY7IguExaEMBEDvjldY/usHOXDKol0RI7DEWXGM4uLOErxMpXGJA2tUoi/unUQxqVJNaZI1xDFIXA1kPfNcmsqjqvEkZDEET7Z4eJK2eY3LF4lkVjSVQrYksadWjdlhflaPNvCbIxuD6ZU00aRc6aLItV1CXExshQNf27uzWKd8MIsJ0fxoZv9ocASeOCOmVjsiC4TLpZg9CHAsOwIE9lngvhUrJlyZOSxtZyZ9/rMHBN5pAohooLa0kEiWyGgYUsWiul63PY9U10fBLr8JagWf9FWDrVdbKVz+aZnzI7xC1DyOfyDpNGWwY70t2SRvg9yjD0RNII6y2G+7mahF+zeN+HANv5PlT4bC8I0KdxRU2yMVkR7INlpX6MmDHtHiBUusOLWt1aUuZaIPUa5AoWO1gB7VC1kDvxS6wnvnR8BUFGs8Zq5+bd5oOnHmmsfSct4QM5hGXTWgq78cBV7TA1/CsLWCdrwqrnhjQ2Q9GeFVHYbUsarYxaXh2GdyydhSXXbllgvYUVlwcRuIQA2/lLCKX9HpMMsSKF39amXarp0g/OnkbF55f1dCCnhGRjMgUlhrkGgb5haWtRK2uSBZIE/8KWLFmfRx3SrWQIWvwahdDVJKsZNnbj1VbJsjAZrICwPnYm0NgSNIRQbp34PcPTsHpiwgusgkoGFQdYIa1vpCV4mpeGa0hjTTq75arLLUPSrZXSDYP46svZNzytcnBFCUWC5zEE2M6PoZP+O67TOLBOY/qqja8EbEzi08keJMIsaUx+GTqUXOG9EKRmXNkhchIZRFGtdMOWOQTVNGUCc00Cm/xBNG1mjfVQCKzm2zM83cR10pZnMtPaElvIDl9KuwQQLKF2SHucNGrKIMVKkPGsLbumi8ky8uf6a2p0YwwWAMcwNQ8iMIYA2/kxdNJ/R9JI0rhaLWZjshrUh8rokgVMCZ4dAm6tbWqJbMASX7/S4HmOGc0gUc0SNCBULelq0kRkIY3uO+tDKa9kNjXSad/b8LX3Y1XqyjmOGI6/pE3EyiLrQtrhacyk1qMhjT3D0xrGJYn2mZJGnYzjDU9jSLyN3Fxhy0HuVd3AwYseBNjO94Cyo0ckjSSNq1VnNiarQX2YjOCUfPfu3VH/GkvwYDlsyZhY19w1Et2lcgS9CcPTDauyk2wa38ccy91cd2DyzMldG1KskhhWd9MDwbP3aiUsMOzeEFPXqlhbTxsLpaZjSSOG63UdyLNzJ08bj79hxY/nIQRYR4aQ2cdzksYB0oiKT5/GsJWcjUlYPJmaMaxT69YCOMGDpPMgAkMI8Dc5hMw+npM0DpDGS0Ne+1D/uqVgY7Iu3kfIDbP4Xr9+fYSiRlNGto3RqCJKQdjOR6mWYEKRNJI0BqtMlxJiY3IJIb6fiwCsXrB+8VgPgWfPnpkXL16slyFzSgoBtvNJqWu2sEcnjVyncXaVuT4CG5PrsWPMfgSwBiOPdRHAtoLYXpAHEehDgO18Hyr7eXZ00uhrsumBOATjQ3P7PRuT2zFkCi0C/iKr7RteLYkAF/peEt3002Y7n74Ox0pA0thFh6Sxi0fQOzYmQeGcnRjW2cMPfi9/v/jFL8y3v/3t2Tgwwm0IYF3MP/7jP06mHkFeHushwHZ+Pay3yAm7b927d89gmJaHMSSNC9YCNiYLgnshaRDGO3fuGFjQ9/L3rW99S8jLhaLzdWAE/vd//9f8xm/8RjL1CH6vsI7yWAcBtvPr4MxctkGAPo0r4s7GZEWwvaxgXQRZ3NPBHUq20WZqdenJkyeyNNM2aB0vV7bzx9P5kUrsu0U1lkZUfK7TGLYqsDEJi+ec1FLr6KeUjWsGTkEpfBgscYSljlI5SBrX1RTb+XXxZm7rIjBIGtcV4xi5sTHZTs97JI1Ak7On169TWG4Hy+6kcpA0rqsptvPr4s3c1kWApHFFvNmYrAi2l9VeSSMcsuGYzWM9BLDcDpbdSeUgaVxXU2zn18Wbua2LAEnjinizMVkRbC+rvZLGp0+fmlevXnmlHb+V/Z1PJ5MVurlyvT9zVhh9Mp7C9Ldr5jVdqttCpkbUSRpv0/fc2Gzn5yKWVni4BcE95YsvvkhL8EDSDpJGVHy85BEOATYm4bCcm9JeSeObN2/Mw4cPZ8BRmjwvjTGlyU+5wZWpCpOdMtNwyBmpjQddM69xSUK91eU2QqW3RjokjWug3ObBdr7FYo9X6EvgFnRUfjRIGrm4d/jqzsYkPKZTU9wracTXLpZUuWbNMFgBwR+rIjOnPitjBdI3Yn2sCiGgVVWYQtjnsDbG8ioLxC9Mno0Q1xl5iRSTwpeSZ5ZlJhMiPSy/vknNnxFykzSq9tY5s51fB+etciFp5N7Tq9U9NiarQX2W0V5JIwqKoRLM6J17gCxmRWmKzJJHN35VlqYscmcI232LaxCu2lIp1yPkUoyZA3lVpbV2SpJD+c3La7JsKKNfrAv39+/fN1jqKKWDpHFdbbGdXxfvtXM7OmnkOo0r1jg2JiuC7WW1Z9IIH5v3339/vo9NmZsTrGx9Vsaa6A0Z4CzhVA9IkLpx0mgu5AV1lXm/pbE3L5BNkD7vDxL1hvfqA26rIhdLaqnF6AnjPkp1+0CSRleLy1+znV8e4y1zODpp9LFv1mnk8LQPze33bExux/DaFPZMGoHJVTN6xZfx3MqoGA+ROLzvvEM6Q+xSE7uQF/wq8wGnyrl5TQ5fVQZD60OkWUXHGW4AmACToh8TSaOryeWv2c4vj/GWOZA0dtEnaeziEfSOjUlQOGcltnfSiCEDkBpYHacfzmSYs0iYUa3Dz/7L7ruuZc8Pq/cjeVWlKQbNff15VfCBzGEpdP8KU1b94VWK83M3/Pl7+wRL7ICYp3iQNK6rNbbz6+K9dm4kjV3ESRq7eAS9Y2MSFM5Zie2dNAKM2cOnMmQ8NKw8NuTsEi3X33BEJUN5yTDz2Pjw3Lxmhh+xcGpp4MP44MGD+cP/msDGZ5LGdRXAdn5dvNfO7eikkT6NK9Y4NiYrgu1ldQTSiCLPmd0LC2HvrGn4+4HkNTOnQcS6/obwByyqSoap7cj0eRhXBf15WcKp1kI7xH2eznlebsrn1+fhXSKJ8KUpitJUsHDifJ5E8wSWWxDGFIeltRAkjYrEOme28+vgvFUuRyeNg0vuoOKn3FBuVaHG8mVjMobOsu+OQhqBImZTo65dOoTIXfJFrBOpiuLiTOOxMKHzulS2y+/HqKKNDT9GrIGJupPyQdK4rvbYzq+LN3LDb3StP7iqYJ1GrFixVp6x5INRl0HSuL7a958jG5PtdIwfHSZ3HeEA2Xn06JFYHYOUF0PIlzjWlDBThAmVzpS8RsKohRGLp6d+kDQuq0Hfj7ivnffDLCvRsVIHiYM/N9r3Nf4w8nDnzh3zne98Z5X81ijTlDyw3BjWBCZpXPH31deYrJj9obM6EmlURT979uzQ210pDnPPb9++NSmuxzhUTpLGIWTCPMcHmvtx4bfz6GTRKZM4hsHbTQUfyFhujNi6qCxzrSt0kDQug6+k6i8C7DcmCIRtyVDxeSyLwBFJIxDFEAq+wjFJhsc4Auh40DDurYMnaRzX+61v1bKvxNFt55Uw4swjPAIpr2oQHo3lUkTbqGsBD5JGVHxW9NuU8Pz5c4M/PdzGBM9AKtFBXbMFnKbJ8zQEjkoagQ5+x7CGwHoGHHh0EcDvD79TkGt0Qnv7iCNp7Op7iTuXOGo7j98d2nf2o0sgbtdOpZVxGWz9VNXKiOeoz8BdDy65o0gEOrvEURsTJE3CGAjgickcmTQqRFrn8INHI3BkAokvZ/weQabhp4Pf6V4/3kga9Rew7FmJ49///d+bH/7whySMy8ItH3hox3gsi4BrZUROJI3L4i2pK3FU0qid9147qRUgnZ0FSWMLGX70sKjBCgKHbpzxBx9Irat7PGNWOcqpDt0gUxi235tlsdW0vUqRNGobqXUzlTMmR/zmb/6m+bVf+zVZqikVuV05r9nH3q9zS9/jNxvOyliZqqwGl96SJbz8mYBVafILy3XZpb9aJCrZgQq7ULV/7dt4r1wrI6QEb0H/oQctjYpE4DM64R/84Afm+9//vnRcJIyBAb6QHEljP0Coh8AGf1jjcY9kUcukS2SAkBzpSJE0QmeQW+tmSuf//u//Nv/2b/+WpOz4cATusR9X+TLKlqHd9WZtOcd2qypMdjqZzNl5CrtXlfnJnDJ/N6ouagjTrmiGPLLODlaZt/ZtN3Ycd76VsU+q6EkjZja6X0UpXX/lK1+RL9APPvggyTKgIU/1QKeDusKDCBwNgVRJY8rtTap1TEfDYpb/JisjNi045d4SYgOkESTzlMkWp1hnFpsPwEpYYlOE+rrIQAyt5bDBrLYkWtKo78532CrzPgLbpBLFhW9l7BMqetKISq0L7qb09amy4itUr1M663BmX6VJ4RmwJmlMQVOUMTQCJI2hEd1veimQxqusjI7KqtLfBWqANGJnrKrC9limLApTYIODsjRlWZhCzva5P3JtsDVpnpssO5kM1sjCppFnmYF10f3Dq1iPKVZGyJ4EaUzBfB5rRbhWrtRJV+ryX6s3xiMCJI2sA1MRiJ00Xm1lBPFToqdEsPEtrEmj3oNUOmROd7NyfRH1GlbHbID5dYenWz9GjSvnqYrZINyQlTE5n8bYK/UGul0ly9RJV+ryr6JkZrJLBEgad6nWRQoVe/96rZUR1kUhjTXJq0prDbT73mcyDN3xW3RIo8GQdtb1R7TxcpPDmjhKGitTYvga+XZ8IBHXDnMvosgbEx2zMg7OnoazeIyTNWKv1DfqKtroqZOu1OWPtmJQsOgRIGmMXkXRCBhz/3q1ldFFt8x7SN7w8LREFT9IDDV3h5blHpNkfNIow9m5TKDBZBlMnAFptJNiKlPkhZ2pjXTbmTKulJtfD1kZIdggadxc6gEBYq7UAyLv4nHqpCt1+XdRiViITRAgadwE9iQzjbl/vdbK2FHEFaRRhqcz9Wd0hrnL0hR5z/B0WcikmcKZPd2SRoegRkoax6yMwJKksVOjeDOEQOqkK3X5h/TC50TgEgIkjZcQ4ntFIFbSGMTKiEIqacRklmYI2iFyCoR7rv0hhSDmLXnEzOmsKL2Z2G1E16exIY2y7E/clsYxKyNKR9LY6phXIwikTrpSl39ENXxFBEYRIGkchYcvHQRiJY1BrIwoJ0ijzGx2l7sZII0I6w5Jn07mdGqHqE/evcySdrB0SaOplw4HecRwtk6CaXirE2/Ly0tWRsg2SBrBNmNcBDfWSr2lotfIO3XSlbr8a+iYeewTAZLGfep1iVLF2L8GszJiCR2ssYi1FztsbYA0ugDrmo1OvC4pdAPb6+57u74jJsNgwR+s0Qg5sMZjTMclKyNkHSSNWNMOHW1sR4yVOjaMlpAnddKVuvxL6JRpHgMBksZj6DlEKWPsX4NZGQEQhprPeNoIacSai5nd/aVLNGG0dHd8cdGvDIauMQkGeVmiil1l6mFpDYqtCDEru9QH256nWBkhIUnjtnpKJvfUSVfq8idTUShodAiQNEankmgFio00hrQyXgu6u2ZjJ43BF51QYKqD+1r7Ibe8n2JlhHxcp3FLLSWUd+qkK3X5E6oqFDUyBEgaI1NIxOLERhqDWhkjxn1r0aZaGfvk5I4wfajwmbgqpLwNH0kjK/FRESBpPKrm55c7JtIYg5VxPoJpxphqZewrHUljHyp8RtLIOkAEEkWApDFRxW0gdkykkVbGdSrALVZGSEjSuI6ekssldUtd6vInV2EocDQIkDRGo4roBYmFNIa1MlamOp/9sqkuqhI7xQyIUNVbDw68Dv14rpURJPPx48eNGCSNDRS8cBFInXSlLr+rC14TgTkIkDTOQevYYWMhjbdbGe1aiFabI7Ojr1Y3ltDJTbMHdT5yXWCRnfqorFwllv7JS7teI166WxXWaa3Bc6+xMg7Onube06plnoFA6qQrdflZC4nAtQiQNF6L3PHixUAag1gZ3Z1XzBKkEZOi60W6m3NpCllmx3+u9QjbDvaRy8LA8rjFPtRzrYwoySBp1GLGdo6hUseGyRrypE66Upd/DR0zj30iQNK4T70uUaoY+tfbrYx2DUWsk2gtgZnJsJNLh7B5ayZeBaZdpNvdNUZ2iXF3kYE10U1b1mZstxHMsvZ6bdJ4jZURRSFpdBXK60EEUiddqcs/qBi+IAIXECBpvAAQXzcIbE0aQ1oZS8cCmJ+w0LZrAWyKfNNFd4FvLOqNHV/qo8d6iO0DC+xfDb9FLA4uWwrWw9NY6NshtsXC49PXWBlRMpJGVTDPowikTrpSl39UOXxJBEYQIGkcAYevOghsTRpvtzKClPm7rCw0PC1cr2c/arU0Ym9qd7sXdy/rzr7VuSlBMLPClCWGuE8mK/p2rumo6qaba62MyHSQNIKFcu/pm/Syq8ipk67U5d9VZWJhVkWApHFVuJPObEvSGMTKiH2dQbhK56/IDfZ8LtxnuHYnqFypta6l0SOnPZZGzQZbC2buvoRO2G6aGiPs+VorI6QYJI3cezqsklJPLXXSlbr8qdcfyr8dAiSN22GfWs5bksbbrYxAG8vrOIQRlrs8M/A1xN7PHTJZ3rq9n/VplLTFugir48m4Po6Za2mUCTk2jPg+irURe1R3J8IsTRpvsTICYZLG1H7VG8mbOulKXf6N1M5sd4AASeMOlLhSEZYmjY8ePeodwQxjZewDCX6GmSmKwmTwa+wLctMzm34O/8POjO2hREtTwI9RLI2W3CKka3lcmjTeYmWErNDV27dvmwJyncYGCl64CKROulKX39UFr4nAVARevXpl/vqv/9qADKR0PH/+3OCPx7oILE0aP//8c4NRTN/1LYyV0cfKEjodBgYxO50y0zvBBITP90H0kxu8Rz6wMJ5Mx7DYEx6EEPIoaQShBeF0iaJ73ZPETY9utTL2ZU7S2IcKn3GdRtYBIpAQArAGPHjwwLz33nvmz//8z0kag+vOTrjAUKRYmTT9sqiHJ1urlhAEGb5sn2nw2M5Lk0aU1yeOS1gZq7IwOYicx+LwXMih+Dg6w9O3kEaZCZ1ZvcvSPhgGd9KulYy1GHWJncayWGHCS9cXcknSeKuVsa++kjT2ocJnSZPGN2/emA8++MDcuXPHPH361OBriwcR2DMCz549M3fv3jXv3r0zhx6ergqTd4iDtQp1HvVWhNLk+dBafjYN9Utz07LWLPittQQRJMCGzYw796E3240frkEaUUSXOIa1Mta6qUlhP5x2Nxf4OHbWUASpm6wgzHLG+o/wScQkmzYlEFP4Uco7ed/NR+uI1hupH3pTz8h2bvuLcMXTJayMEIOk8QplDEfp+xpFpa6/SnRhz+EEonmT6vAuvmJhbbl//7756le/at5//30hj+hMeewDAXQ6Opw5dnb9cNySv3jx4qb4Y3m67/rqHOqnG2bsui8+Ot++OCCMII44fNL48ccf98bx03n9+rULU3ON537Yvvuh+CAmfeHdZ3/xF39hfvSjHzV5XneBSRGWCGB9PBzWwmM7/DN+UOaybp7NqzS50z6XeUv4sH1cQwgw3NnyBRlmFILoxNUt4mRo1Al7XZmWjfWzn/1M2kpXF0PXqLv+gUkSQ+Hd5/jNoe5+5zvfMb/zO78T9kO+1rUv2/h9vZvLeKDOW61TnYcTb7rVoGuVrCpsLzgxoRnBQlkZQT6Pvff0Il+i0GT3a7T9goEpOp0vT62TqZJGX340dBi2g18Nj30gAFIEfV76GyIxcM6/FBfvQbb8A/Vpanz8hvwDHefDhw8n5d9HetGA98XHMyWZPmkEyZ5SXiWdvszo/KfER7i+A+leio+Pu+9973t90ac/k4WUM5PLEiw1gWyWXsHwpX3X9M8dS1OXNFZF3iGHuLfWw9ai2GnzHVORWpY6a/ZNL8WqIX/605+KhfqSflC/UHf9Q/uJS/Hxm0H8P/qjP5Lfj58O78MiENLKODh7+hh7Ty/zJQp1lwWGRexUfzQuThsiX7tnX6Nh60jw1P793//dfOlLX7rY2KMxQAX1D3RgfZ2b37jcGh9fQH1fwNqYQS50/sBf8+4jAwiHoWwNM3buIwOQAbKMxdN3fWRgTnwlBy7m0MEUMuOSi2viAyMecSPgk8a4pbXSqVXqNlkx0mOHDlt/snZXEJA8WA0bS+Es0li37a5F0VlSpTUSqPGga5G8uly6q8lYAlPCDMRfa3ga7dtf/dVfmd/6rd/q7S8GxOPjKxEIZWVE9oOk8UrZFo8WtFIv+CUqQKAREqui22BoI2JnUS0OWKAMQBrx9a+N+di5jzROHbZAun1fsCBGY3m67y6RRqTvDkn2kT7A5oZx0/ev+0gf4vvhhu79mYSIizIMhfef95FGlNEPN3R/bXw0RKgTPOJG4LCkUUaRimZrN/iOYf9hLPRcVoUs9owt3RpLo4Tv7lfsbuvmuK21w9CONaDEMir1KFLzGIs2Y+2+hpneUlcqWTqmKMYWjpkSZliGoP3rQDZo2/BB+5Of/MSgDeGxLAIhrYyQ9NikEUPIC32JSjWoGwzXKVrWcupxjr2q2kz5opwSZkLmrqVuQvDogqQuf3SAUqBkEDgqabTWRXy467Imdjha9gcWqyIWfm5JY9WZ8dodnharZONodv7hj+FqJYyt7yLSyM5m8ErFqZA3CCr2IbZVqSoKIYWWEmIZFvteXiN8Zt2aZJHqRhanGk4J4wTvu1yaNCph/K//+i/54OwzMPTJxWfXIxDSyggpjk0aF/wSBbjNrLlmCEMbG9fyeG1lmPJFOSXMtPxTJ12pyz9NSwxFBM4ROCpptEigzbV+hzKZRdbEs3v9Yn/fljS24Ww8jzRiSZbWfNj4pcsjWd4FkxvVVx352UmQ8KdsLJm1akAwYcEs1C8yA1lUK2XtI6lLwPT1HR1y6+rb6V8Gw7jhz6+XJo1w2cFqFmFnTJ+Xg08sAqGtjEh1kDSCnfYNm22tjJCVerkvUaCkP+B203J1iG7aHgUz0q9OFQ/n1ElX6vK7uuC1RQDD6hj663NnIEYtAocljXW7CgsgCF+B4WlZJuVG0qiErnY9gmURbXprJLCrY2Cpn3PCaH0hbR+gkyLhd6nrB1rLp/YV7eSZNuzw4PSUMG296LsK2b/2pY/fKqyNcGuhlbEPobDPQlsZId0gaYSTPjra2I7wlbr9wgz3JQrU9AdcrwAv/o22cXExjfmr05UzddKVuvyuLnhtEYBOQRrRiPEYRuCwpBH7EMNv3bU0ViB3ljTCCti1NGK3EN23GIt0g8zV9xh+1q99jzSqu2JDGgd9GLVP0BnXzr26MkkesHLWQ9GauOapMvSpe0qYvnjOs/D9q5N4fUkr4zkmSzxZwsoIOY9NGpf6EpUaoA0Cfvz2y9P3X9avyVi/Ot2KnDrpSl1+Vxe8tgiQNE6rCccljcDHI42yY0shexBL+9sM/xpTKUHsO7ukUZK1hLSrgXpmdvdhe6ekTvPU+7xsrJQyZI7ha28CpfYVYxNqpoRphem/Wpo00srYj/sST5ewMkJO6NCd/Hmwxb0X+hKVGuCQRpmt51cLfR/vV6crceqkK3X5XV3Eco0vWTRMWx0kjdOQPzZpnIbRlFD+UPOUOJ0wShLr3WKw3A98G8X/0fGHzOEjWZPGvLAEV62Y2IauxORGLBck5LaV6jxMJ/dJN0uTRloZJ6nh5kBLWRn7BDsYaQQEC32JStIgpX0wI9uuD0tzH9FXpyt56qQrdfldXcRyjQ4Gw8NbHSSN05AnaZyG0/Kh0NfUk2VkYXGdud0+xxB4sz9ys9uM814NEDqcPRbmigItSRppZbxCIVdGWcrK2CdO0wMcx6exD4brng3xw97UlDRG/NXpyp066UpdflcXsVyTNMaiiXE5SBrH8UnzLYgk3J50pCpMKZYkjbQyhtHRpVTWtDJCFpLGSxoJ9r79ejxF+tXpFjV10pW6/K4uYrkmaYxFE+NykDSO45Pk29roMObjeE25liKNtDJeo43r4ixtZQQpPfbe09fpJbJYy3x1uoVMnXSlLr+ri1iuSRpj0cS4HCSN4/gk9xYTOLEQuK4KHrAAS5HGWKyMVVU2i6kLbIIlFjHClpLtQuuzIMV6zzrLfVbE8IHXsDIOzp4+xt7T4a2PH6AAACAASURBVJW2SYoLfXW6ZUmddKUuv6uLWK5JGmPRxLgcJI3j+PBti8ASpDEmKyNmmNvVSio7Wx6z4jG5qF6gHcswYYKRuprpjHT4brt/sPBiuTzhiuh/z5ZCsou7Y13Q3CX3Mnu/61aAPGT90ACuBktbGVFTBkljW43iulqiUsdVwpnSLPjV6UqSOulKXX5XF7FckzTGoolxOUgax/Hh2xaBJfrXWKyMKGVLGo2s4SmTjjD5CP1ohnU6e5ZNAimsl0nCDHXlh831GWl0XM9ObXjN35LP1hdVZ72320+2+phztYaVEfKQNM7RyoHDpk66Upc/xqq3NWmEBePVq1cxQhOVTCSNUakjamFCk8ZorIwYQpbdgOp1k7HneIVli7CFo7Uu2iF/b/ga2ppJGrGU0vk+5FbtDUHUtTrx+Gwm/HVVZA0rIyQjabxOP4eLlTrpSl3+GCvc1qQxRkxilImkMUatxClTaNIYk5URiDfWQXtjsJg6yGPzh53b1D8RZNEblm6GqLFfuFodzyyN4Jl5PZzdWhT7thaGGM0QuJowr6gaa1kZIdogaQRr3fve01fo5rBRUiddqcsfY8UjaYxRK+cykTSeY8In/QiEJI3RWBmbotoNNcRvEU6LsPDJskXqU4iz3fa3iVKTOiWSLulsrntJo91j/ORaFL2thW0eOpSdWf9IN+MZ12tZGSHSIGnkOo0zNHaAoKmTrtTlj7GK4aPy/v37MYpGmRwESBodMHg5ikBI0hiblVEtethlR3wUxao4YmkEUmJtbAldQxQbFO2EmJNnJUQ4sUo6z8v/397ZhEyS5HW4FhEbXNzWXaR3GGcaV3QY17VdRdpiHPey8t62Dx5a9zAtStm3GVZhGvbQF6EPe3gLQRr0MOzpBWFtRKxm8DB4avCy7KkPddijxznOMeQXWVEVGZWZlR+RmZGZT0CRX/H5RFbUr/7xpQkvB8vl8faha9qJ0mO0DU6GtDIqW4jGBpWzZK9TF11Tz/+S3z3K3o0AorEbvyWFjiUak7Qyrjdme5g9bWdIa5zjRls5SsytD+cbbymjbCk7f/bz3o6N9Jbmkai0E2j8t8RZD09WS3VXO8F4mvCyy8ZZHhWkH0f98yGtjMqV6nbBe0/Xr5il+5y66Jp6/pf+/pWVX/+ycdUEEI3VfHh6IhBLNKZmZTSaHb3Lxg9mGs3t3b0zduKKBKXdyzu/5I7I7L37bmke3+9OM65PCNXvfdg7/DBz+rCcj7q+TzOnsyV51FWeD5uL6OLF0FbGogyxI0wRFe6ZqYuuqeefV/CcwOvXr20jjHA8Z+PfQTT6NDivIhBDNKZnZTyV+LTkjjf5xa2TeJhRbSfFHIPs7ULqskxmn2wWdk40hsLPdmk7gaixjdnakMcu68M4yo2W+jmm0+5kaCtjUS4RjUVUuIdo5B1IjoD+COifu8bY4MoJIBrL2fAkTyCGaEzOyugV8SQas5t7jWs8TFbRMy3SXS3k1PXsz4j2InengWh0k7GPonF16rZ2QdocU7AyKt+Ixja1t4AwU7fUTT3/C3jFGhcR0VgPGaKxHid8GdNVNKZsZVT9WmEoFaedWSTeApGYjT3UIt9uEoyzGF4+5oYmHpbxyb9TBQuH5z00uhrLyiixyt7TjapqmZ6nLrqmnv8U3zp1D0uQjOUQjfXIIxrrccJXd9GYspUxq99w/OE0a31MK2Pp7Gn2np7my9RXrqcuuqae/77qtUu8skqoe3gsh2isRx7RWI8TvrqJxtStjHOq37GsjGJYKhpTBdzVfJ5quVLP19RF19Tzn+L7gWhMsVbO84RoPGfCnWICXX5f07cyFpd5anfHtDKKFaJxam/MSPmduuiaev5HqvbKZBGNlXiSeThV0ah863s7xc+nn346yXw/efKk1ZATrIzDfd3HtDKqlIjG4ep60ilNXXRNPf8pvjyIxhRr5TxPUxSN7vuqncmm9nn33XfNm2++Obl8O87Pnz8/f4ku3MHKeAFQpMdjWxlVjFLRKDWb6t7TV1dXk/wXp4bwJz/5ySTzrkZBjcpUnfsRmmr+U8w3ojHFWjnP0xRF43kppnOnSxfvdEp5yilWxhOLvs/GtjKqfKWiUQJBP7SpOc3YdP+IpnbUP9A7d+5MNv8SjlN1iMb4NTe2aNRWVqzTeLleEY2XGcX0sTTRiJUx5ttTHlcKVkblbnKisRxp+k+W1pikVCOIxvi1MbZoVIlubm7iF2xmMSIah63QJbXzWBmHe7dSsDKqtKrzSe09PVwVxU9pSY1JfHrdYkQ0duNXFDoF0ViUL+7lCSAa8zz6vlpSO4+Vse+3KYs/FStjUWmPi66l2j1dlOmp3FtSY5JanSAa49cIojE+0z5iRDT2QbU8zqW087I4abjV48ePzdOnTxfz+fu//3vzW7/1W+aHP/zhYGXWPI5Uh4chGsvbgs5PltKYdAbVQwSIxvhQNVHuwYMH8SMmxqgEEI1RcV6MbCntvETjs2fPBhNOqQjT3/3d3zW3b982f/qnfzpY2VMVjPoyIBovNgntPSylMWlPqL+QiMb+2BJz2gQQjcPWD+38sLyHTM3/LjkRO2T6KaSlrvJJ7T2dArS2eaAxaUuuezhEY3eGKcag1RRw1QT8H7pqnzyNQYB2PgbF9OIo+h4tUTiWzp5Ode/p9F6l+jmiManPKrZPRGNsouPHpzZKS+7ony+unEDRj125b550JUA735VgeuGrvkNLE46lojG9apt+jmhMxqtDRON47PtKWXXKOo2X6Vb94F0OjY+mBGjnmxJL279Eoeq0ytXxUxV+Ss8QjQPWFo3JgLCDpBCNAZAWl59//vnFUBocr08fLky/TDSG/vrIy5TiRDQOW1u088PyJrVhCSAaB+RNYzIg7CApRGMApMWlFpf1/3Gre9gfEC2xqNnU/sKvLZIpDaIZhPpH71yRaJRAevHihfPC0RiDaBz2NaCdH5b30KlpHLWWGlrqn9NS0Zjq3tNDvyAx06MxiUmzWVyIxma8ynz7AkTvs7qH5ZxgfPnyZVnQKPf98UOhaPTzFiWxmUQCl2ErknZ+WN5Dpxa2O0OnP3Z6paKRxb3jVw2NSXymdWNENNYlddmfEyFONA4lGF3OnHD0G2+XJ+eH44kAbE4shjijnR+C8nhp+O3OeLkYL2VE44DsaUwGhB0khWgMgHS8lBD5m7/5G2tpVJd03xbGMLsSjh988IFN/y/+4i9y3eah36VfIxqHfQNo54flPXRqSxeNMhL4Q5BY3LvHN5DGpEe4F6JGNGaA9A46S13X41tvvWVF2/e///1ocTbJ0+///u/b9L/73e+Okn6TvMrvWGOgEI0XGofIj2nnIwNNLLqli8awOhCNIZGI1zQmEWE2jArRaIwmrrzzzjvRBJb2YF2v19HiayrCtPfrH/7hH46Wft38PnnyxNy6dWu09SQRjQ0bi47eaec7Akw8OKIxX0GIxjyPqFc0JlFxNooM0WjszGZmFjd6baJ41qxvTSwcyyEahyVPOz8s76FTQzTmiSMa8zyiXtGYRMXZKLKli0ZZGe/du9eIGZ67E9D4n7t3745mZVQJEI3d67FJDLTzTWhNz+/SRSN7Tw/4ztKYDAg7SGrpolGTVbAyBi/FAJdjWxlVRETjABXtJUE778GY4enSRWPp7OkZ1vXoRaIxGa8KliwasTKO896lYGVUyRGNw9Y/7fywvIdODdH4c9t74rgfu6fdDY7xCNCYxGPZNKYli8Y2Vsb9viHh/c7smoYJktjvtmZbJ5L93uST2pvdbhfcCyIf4TIFK6OKjWgctvJp54flPXRq6p7VJDj9KVyiw9LYY62r8fBdUWMiMaNKwMUloB9sf4mTItGotQX99abi5iCN2FpZGfdbs15vDyJsZzbrtZ0lrZnS2WdjtnnVZsxuY9aHm7uN8xccN7sKKHuzXa9MpZdD6N1mZdY5jzuzWW2MZON2o+P4biwro955veu+KxKNDFXwCXU7l4jwXVE777dFvl/OITA1AojGHmssbDzCa4kWWYGW+o+lR/R2eRntauQa61A0LoV9GyujCUWjFWSutiTu1pWicb9dn4s/xZkTesbstxuz2bjP2qxXEoPu2j9uPSumRKwTtC5PTjQaY+paK13Qno5jWRnVlqjO/cXWQ9HolgrqqeiLi1btjM87bOf1I+u3RYsDRIFnRaBUNLKNYJx69hsQ/3wpoiUOxXaxyMrmGmtfNC6FfXMrY2ap22zWZrVam81GYk2CbGVWRytj9uxoadxJDG6sNXK1ltDbmu12bdbbne0yVrex/Ww356JRXdqH51ulqfSc/+DoDJuyYlrtKREqMWsfKI9rs5Vg3GzMer0yq0CgtnuD2oUay8rochsKR180IhgdpXjHkLffzjvBqCMOAnMggGgcoBZdI+KOSxEtA6C9mIQTjv/5n/9pBeSS2LezMu7Nbrs2q7UEoxSZZ8WztM8tjZm3U/e0LI1H0Shr4vYgBksHSh5E30EZZuGdTDxV8X63OYhZiVR1Ze9sl7YErRW5GtdYmsYpnr7PxrIy+uXyhYwTjQhGn1Dcc5+3a+cRjHEZE1saBBCNA9WDGpL33nvPaMszuqQHgn5Ixlnc3n333cWwd2VuQ1pjBmU13NrJJZmg87uN17LqhZrOjmncmd3B0ng09HljHQvzoueyZB4DqNtaojNMwBiz14SXvZF4zHd1OyGrZzuzk1At6kIvzEDcmxIPY6/L6ErkhIzanO9973t28L57xjE+Acf7Bz/4gdF+6OrlwMIYnzMxjktA77k/F+A4e5ru6e4Vox/uZ8+e2cZDPL/61a+aL33pS+b999+39x4/fmzXzlMl4OIS0EB/WVjE/fbt23aP4pXEyWplt9LTfVleXr9+HTfhRGJrZWVU3m23byYanTXPTjJRN/Va3cESZv4YQxvIqNs4E5p7k4nOwyQYy/w0IcbThpaUBKKsmvv9znYt2zGO6l62Xd3ZuMa8fpRAdJNdZBVVd7QsjYcw1qq5l74cxaVgZdRQDL3bV1dXtq3RFoa//uu/br8LDx8+tG3SXN/7USrdGCsOxf1HP/qR+frXv25++Zd/2Xz44Yd2UhKsx6qVftLV77q+U268fD+pTCdWRGPHutKLpAb7zp07dgcO7TurxkQfNR4SiO76+fPn1vKlF1CNuV5GXHsCmsWo7dokEiWaZN0V6/DLrXrQfdWT9mLWR37n4rpaGWVVtLOnrUVvc5qZbK13sjyqa/igyqzI1PjHk3VQAvIo9EotjYdu8KOV8bBsjqyJh+5tdTXLcngSgBKMmiyzNbvt1my2p+7ok3Uys4we8zdgpeq7PZaVUe++/oSq3XF/iDQUw7U17nhzc2PUJrn3Xn9q+dPa7iVRO6L2RixV7+Ku648//tjWhdoX3XPPVT+qB9y0CagO9ScVK3JWj4jGDu+zrAxqINRYhMswXIpWjbm2eZPY4Z/pJVr55/rRcwJQdRCKxLzv8yvxllVS/PVDO3XX2spoxwzKmhgsuXOYPW2tgpogU7SmzVEcZpbA7cECeFqmZ53vUnZpKM0gwpMADGtCVsys29x2U/uPbXzrbHmgo2L1PfR/PoaVUe+6RKBEi/6ENml39N77YfsnNI8UJBbUXqitV53Xaa8VRvUjEakP4nG67wKiMV93iMY8j1pXarjVFaR/mU0a7aLI1a16//79WYiXovLFvifeaoQlGpuKxTAvstCpHvVDOlXXxcpozD6bjewEnYUgy92hO9h2UXtWRB/SUTQelsQ5Xh88Kc5AHGbRNxGNWVyyQO4OM6WdwdN1qxeOhfTz2dP5GFZG1bWES1drob5DsoKp3en6HeoJbzLRSvhJoHfpmZDoUJsl5lh5k6na2hlZumjUHyB9B5xDNDoSNY/6lxlb5DkRqn+xuHIC+tEUe39Qbrnv+k/0Iyxr3RQb9NZWRh/PmWjUmMRVNjlFz+x6isEOLAeReLQS6tpfQqdgyR2b5MHSqDGNbrkdLb+TC+t2e3Fpa5LOsWta1sdsPKWEZDZJJxtXOaSAHNrK6P5cdv2T6le7vkeytut7hTsnIJGnTyznLI8I9VhEh4kH0VgiGofBP+1UpLj1T1+z5WI7NSTf+ta3rBUhdtxziM+JddVBH04/ylMTjt2sjB5FXzQelrnJbe8ni6NnNbQTX2y39aH7WMMdm4rG3ELf/sLe2dqPR4uil027HJAd4+gJ2IOwXDnraM5/PxdDWxll5err3dT3SVYwhOPpXVH9/tmf/Zn5x3/8x9PNSGf/8z//Y37zN3+T8XGReA4RDaIR0djqPVNDIiuXGld1jeoTy0kwuoY7iuUoVsYSiUd8ZBHpSzC6YsoSENOy4OLt6xjzXTlNPmmb23B/aHV+F7jDMjoFTyZza0gro36wNISiTyu4rJdq2/r+fk2lgtUGSDCqTY7JRHWo7+w///M/W9591ulUWE8hn4hGRGOr9zT8gY4lHH3BqIz54rRVRmcWSDzUeMfuki7DpHGqUxgmEM3KWAaC+4UE9D5qfE/MbuLChA7LuujPktqIvp3eJwnHpQsZ/w+Bs8LGEI7iqt8QN/HO9Wz0Xa/E350AohHR2PgtKvuCdxWOoWB0GUMQOBLGCjgJuaHckKKgS5nCPzFd4iJsfQK+qKgfqp3PoccbDlm2dkT6DVXU7sYQjqFgdKWYyh9Ul9+lHhGNJaJR1hzBweUJ6AuvcYxl/zbbCscywehSRxRkVtehrDqOu46p/3gW/bj5+ee8HwJD/qEo+6PaT8myWIcsX5/laBu3hgE4S6AfRxfhWCYYFb+s1fptGcKS7JeH82YEEI2IxkZvTB0B0VQ4XhKMyiDCwNilcDSzeQynxrzOemxj5G3YPxRafNubeBIWeO8txq1dXrTtX+in5NpuAeh5znae8W6UhBvrdp22IEbeJDTc+OkY8TWJY6gyNsnTEH4vifQ2wrFKMLoyLZW3K/8Ujvq9Hut3KAU+evdZcqdBTdS1wNYVjnUEo8ve0N1TLt1UjnpRyyy8feexbn32nY8w/th/JuySOW5mtF0GZ2u0td9xq76VlsPRAtsuJ3tjl8jJbeWXCT3NqtbajHZnF+3uEuo/zcL2dpexi4drS0EbtXvm0jkdtcRObtHwdXi9Oe1IcwoW9WxIK5wsG2p3xnAqp3ZY0nFJrszK6DNoIhzrCEbFrd8D7eqzNN4+V86nRYB1GivqS19oNaB13SWh0UQwKs2i+NR9MqUZvnXZhf408UXWljKXLftyWEvQesq2nLP7GpcFanBfVkZZG32nhl3bP6oex3LxrYy+WNtZq2K23/T5ItyuzFYUGn9PaLeHtbYXPCyfo/2knRh1AXX0l/dRHJtMNFoBWeTfhpUALft4i5H76UQ+78sipIXlQ8Gg77dm8pe5vt99vePasWqOTu1n2AUt/nWFch3hqPj0PQ3TKeNZ1zBRFp77EBiSAKKxgrYaTjWgTVyR0FP4poJRYUKLgxohNUbhj0yT/E3Fr35My7sE3LqBnmCw6/WV7F7SstB+F3XTH4KWSVYGi21ldImF3cT2fsF2f85/dvRFo+phbbbatcUusKhnYV1o55jQQni61t6uq+NzZ308pbjfytoZmi713HsHTt6jnqnu+xpbW/SdluWpfHZ2/+9+m3YvKvAeIyv6HqsOZGms66qEY1H8l+JVOzflXakulY/n8yKAaKyozzIBWBHEPgrDtRGMikjhnKWz6MflUj6m/LyuRU1WFxmo8l2dXsntwtTnIsTzUXrq8tDmh6A00g4PXH46RFEd1LfmHXduOVn4bGAt4m3F3cochd6hS1orM0os6vm50fAg7vw0is61y8uxy/qU3b3SLdqZZgDR2JeV0ZXO/25LkPjjh5yfouPFd78oUI17TfJQI7rkvITf5+o/qMXZLxKOYbzFIc/vhsaBcx/cgUA6BBCNFXVxqZuoIuixa7mtYHRx37p1y/zHf/zHYiyMrtzqmq6zNqMdk7fdme06E48uvI7Wgqbt7LZFFqrM577QepU9U/3/0z/9U6OuJj/9mOd9WBllvcvGLsoqeBqraEWhLH8SaUfrXzBu0O4cc9ijWgXVot2KT2MWC3m7ruh9Vi+70zaCbjvBnepCk2kkQgvhZXlUt/fxubUwe/koDNf+poRAX1ZGP1dOOGrHkKphGX6Yqnd/t5XVd2utu4XV4UcUnKvManfm7HyB9+jRo1Z7S/vC0Y+vKbe5i/SmPPCfFoHw/UQ0VtRPV8uO/sHqB0c/+G3dr/7qr5pvfOMb5oc//OFRiDpLZt9HjavSv+AxPm+88Ua9STASL1bYFFsT9cN6bvXKasP+6PoCJKikv/3bvzVf+9rXzPe//33LXn8AQqd7depBXVD6YQmdvpB1wr/77rvm3/7t38LgEa6LupKzbQELxyQeUszG1WVWRYkT7QG92e6yfaEPlkeNQzx356JRE2us1bKiLs7jOdzpWTT+5V/+pRVxl+qobKa9/vjU+f6oO1rC8U/+5E/Mn//5n5cWN/eg7N3XhCbnURbaEtVY9Yfpl37pl8ynn35aK+91ypeiH5XvvffeM7/zO79jy+mQNTk64VhnIk1ZvEsQ6WVln8J9/X6rfSpq/6eQ/655LBWNXSOeY/guDYGzMMpapR+ctu5XfuVXjATDpR+tPp4r7xqkPcbny1/+cj3RaEXDuZXR8dbM25LfTGPHyRXpmkNg7T+rH0/9sIhBkTCQKKjLR1++0OnH9FL4P/qjPzLi0U+j1UI0WrGyMZv1xuzE/9CdbLuQ16d9pCUky9hnHJS2xjJuTYXBN0Rm9hpyoD2oFbmX/pnHjjf0Y676t4L2YHktOy8bf6txsWVh/PvqApfTu6ZPLXfh3VccZe//pT9MX/nKV6xYvvRuTv35H//xH5tf+IVfMP/93/9dC3noyVkYu650oXcBlyYBtdGqn6L2O80cx80VorEBz7bdFk4wOgujE3QNkj56VTfRv/zLvxjlZUmufiNcNRFCoqSs69J1l5ZT1Y4N//AP/2BFXT+CrTxt/0lXi7cf1/l5Q9HoLZtzYrvPLIwSf7tD1/GZmCueCJMJp9OEmKw7vKDOvO7vtRWrB7V/ls55Cdve6XssY5gvtRMffPCBfd/CZ8XXVe9+NlO9eKiAtHYw3CBIYAkiRj+GEr36cygrb1PnBKPChm1+k7gU1o1dbxIOv8MQQDTmx1nz96bivWsj9soaj7Zxucbkk08+WZRwVGOuL+tFZ61exV3TdmZtwaSKLE43C7U8BfenQeJf+RlDOCptCej+XCYaz7rwxfXspnKxt8Iwm/TiiTtNatFjO1EmGyt5ZmU8m/jixqKeJttkS+v4pT1YI+16kd5C4s5LT6JRgmCIsYyuGK5HolF9V737h4XWXfz5Y/UfpiWIGCcYdXTf8zyj6itfMDqfZW2/e152LFreq8wv94cngGhENNZ+65oKtUuNRlPhGK5V2DQ/tQuaoEf9iFatVeeyrG62srUZ1V26OqwD6Gb2HoXMXotY7yq7Rf3JOGMJx/6tjFqQW13NWsQ7W5jbspVlr3BM4pF8oRU3m+VcPo7Uhc6OmSAs1Ka+RydI/XvuvEo4OT8tjkNaGSVa3LuusY1acqeOK3337SLtFeMuNOO8AvrcRYwvGMW56ZI3RYLR1del3wDnzz/KUtlkyR8/LOf9E0A0lojG2pad/usomRSa/OOu21g0EY5FfiUc1W06d1d3rTj7w1nxA+hz2m+3pwkC/oOCc9VnuFPD0MKxkdWpoAwXb9nliI5TJoy28dto95XC8Xvh+MRTt7ZbDmdVZg0syEh+5naBhwu33ALX6kYt64K9EEXp4yGtjEVWLn990NJM2t7ndYE1WMMAvHGl9rtxqisb34U/TBKw+tM2RxcKRpUx/HNeVe4qwejC1f0tcP7bLPnjwnLsnwCiEdHY6C3zrU1lAZs2EkVisCjusrSV3tydGue6uzTUYiHrS5XxJYikzKqrH52hXL9Wxnql8HdiqQpRaZQsDJh1czcPd4qsS9hTLOdnQ1oZi4Zg1G0fznNefqfJH6Y5GxD0R6zoO6y25lK7Wkcwuhpo8ptQf/y2i53jkAQQjYjGRu/bpR+QJo2Dn/ClH4berUx+ZhI9H3M7sy4z52PgpP5jUGwex5BWxrLcRa/7Bn+YmnSPl+V/iveLLL5+OZoIRheuzm+DBGzdxdxdvByHJbB00RjSPk6EmfO/y7DQTa6rfkTqNApVaVUJxxSsTFV5H+JZ9B/PmpkeK10/e9S/T2O480t/EofKyVj1r6EvYrA0V/WdbyMYHb9LvxFL5e34TOGIaMzXEqIxz6PwquiH5FJjUBhRwc0i4VjVgBVEMetbY1gbsTLO+pUqLVzVH8TSQD09GKMNkJVRVi9xWKIrEnBdBKNjWPZbMUYduzxxrE8A0ZhnhWjM8yi8UsMhIaGXR66sESgMXOOmLxyVlqy+GpyNM0Y/ZJoYIOZDuLoTcPrMy9BWJrtmXzjgU5Nktt52fXUKbLtBGwwcrRPnwY8m22xPc3byITXTe3dY8if/pNFV0Z/DRhFE9jz0H6a6KxZELmYy0YVtTQzB6ApX9Jsx9p9TlzeO1QT0HrjVDap9LuMporFmPetLrwHLP/vZz6yo07/EmM4Jx6F/KGKWoa+4hlqSQuOLVMdDCdQiXoNbHw67ithld7T0zkbiTIt1a6eW0yzczcbbtcXOvj1fG7N6Jnu2N7Xiv/jxxephbcedllY6bk942ObQ7Y19iDPUvUV8y+7ph2HIdRnL8uHf13uoyXBFOxH5/mKcp/BnKUY5usYhw4DEnNjrz1ubRb/L8qA4ZRDQd5wZ02WUuJ8agXDcLaKxQQ2p8daWbv/1X//VIFR9r3/913/dacvB+ilNz2fTtdSallANugTjED/QVXkb1MpoBePaikQJPrdOoy/QtM3fRla83FRlCUDtF61tBI19pue6t5bgc4t4hwV1949HLe6tOMoW996ZbaHIwfjCJQAAIABJREFU3JpsDc4y02OY8OXr1KyMLsdD/JGRiJE4lXDGGWtV+u53vxtVMDquame0n7mMAzgITIFAqWicQuZTyKOzBMXsPlZjrUakbP/aFMqdQh405khdaLF/3CQU9aMZ06rQhpd7t9qEbRvGikF1K2+3Zqt1LHc7s9ttzdYes/tlFjwb9rADjLUe2n2kT5ZEidC8y7YbzLYKzLYOtNsIamFx95E10Q9k95k+WDVtWqfz4h1r/MD1zlO0Mvo5l/VL76ca79hOcevPUh9xx87rkPGpLVabHLut0Z8T/TGMHe+QbEhrWQQQjRHq23UzqEtZ512c+0FQ9xDuMgGNLVEXT6wfOXEfqgvwUukGtTJ6mXHdykcLoWf5y6yHvozLFo8uEpLWWnnccsdLwDtVt/dJS2rRaW8rwoKtC5Wnre0az7rMtZC3NXranWDWua5udau3calaGf2y6I+NxF3MPzYSRvoudW3D/HzO6dy1DTHaGjGWCNUfXxwEpkQA0RiptvRPUaJRkzT0o9O04ZVYVIPtxrhEytYiopGVV+PP1ABr8Hob58S6GvKmddcmvUthxrAyHvNUIMCO4w7XK7MOhKDbAUbd1r6rKxrtzjEHy2LO0qidaE6K8rCP9cEKaXepcRbJjdkdtg+UZVRd6OoWD7LjZ630PHUro59xvacab6eP3pe27sWLF7bd0rg6XDUBcVZbo3Uc24hH1Zl+JxQHhoFq1ik/bfs7k3KZ6uYN0ViXVE1/epkkXrSjgCxW+vcuQaKPc4KuazUaany0PZ3Eou/H+eVYn4DEukS7hJ/YXuryUT0ojCw24h9ziEH9XBf7HMvKaHMjAeYmlbhuYnfU/UA02jCyRmoPY+dPXdMSdsdrCbyNCYPmLY07s9G4SIdE+fBFo7t/2DIvlw/Pbz5OL1CN0ylYGcNiyNqod7jue6/waqdkpVcbpXdt7LG7YZlSv9YOUWprxE4cqwSkWMu/6kdiMUaPVOp85pw//U6obVuqcCwVjYiY7q+9Xi79exdLfeyP6GplGw5dqxFRY7LUl6874fMY9E9eglFsJdwde12rsXbXavCddbKLleY8B93vjGpldHsYr914Ro1pPH222os6VH6HItsxja74dlKNJwDd/dwxG9N4EqiZ0DyOZ5TgzIlGicqDGPWP6/xEmLaicUpWxhzGw0X43qvt0TvvfzQGWEJRf1R1ntIfpaIypXxP74ustOKotkTvscS7+Lo/oron1jIOqH5S6MVImekU8ibjjuq16o/CFMrRNo+IxrbkWoQr27+4RVQEqUFAjbq+4M6qqx9Pd52yZWVUK6O4aiKMunklEDV+8CAaK7t9JRK98Yi+cKve51jjGNd2RraxcZwv3ZOv6p3ZahzjYWa28mazbK+z7nE/7XzY6qspWhmLSuTee/Vy+IJR57KKIRSLqMW5pz98H3/8cW4d3zgxE0sqBBCN+a0uWXKnxzcT0dgj3JlEPaqV0c5GduME12adGzeoJXVk5Ts91ySUzEn4eRNaAvFnJ9bIGlhaR1n4tR9HiV8JQlk6nWh0gtMXiv55STRnt6duZTwrEDdGI0A7Pxr6QRJeumgMISMaQyIRr2lMIsKcaVSjWxkdV9u9vM6NQSwTYzlR6MLZtRxdt/bWbAom0LikNP15J6umuqMlSq1183xHFzvh5iA+M9GoRSE14SU/FrIsn8f0Ck7mYmUsKBq3BiZAOz8w8IGTQzTmgSMa8zyiXtGYRMU5u8hGtTI6mtrd5bC+4tGQeHhWKMacSHRmxIO10s62Pq7zqAW+Jex8EapZzgdrpibIeFOd91oXUiLSjVsMrJRWpK5Olk3ly58wU5hPV76CI1bGAijcak2Adr41ukkERDTmqwnRmOcR9YrGJCrO2UWWipUxt9mLT7n0ge+p/nlu4kz9YNan06hZsLxVUgK1SVaxMjaEj/dKArTzlXgm/xDRmK9CRGOeR9QrGpOoOGcVWRJWxlkRrVcYrIz1OOGrPgHa+fqspuhz6aKR2dMDvrU0JgPCnlhSqVgZJ4atc3axMnZGSAQBAdr5AMjMLhGNJbOnZ1bPSRSHxiSJakguE1gZx6kSrIzjcJ97qrTz865hRCOicbA3nMZkMNSTSggr4zjVhZVxHO5zT5V2ft41rD+bWqh9qa60e3qpQPosN41Jn3SnGTdWxnHqDSvjONyXkCrt/BJqebllRDQOWPc0JgPCnkhSS7QyprAbD1bGiXxBJphN2vkJVhpZrk2gVDRqj1713ePiEaAxicdyDjHJ2qX9sbOdVgr2VHbrFHKMzkh7BbPn+xy+RemVgXY+vTohR/EIIBrjsbwYE43JRUR4mDEBNTb379+3AvDevXtGXfM4CMyNAO383GqU8vgEEI0+jZ7PaUx6Bkz0yRJQQ6Pei5/97Gfm1q1b5n//93/tNcIx2SojYy0J0M63BDehYCkMsUkFF4t791gTNCY9wiXqZAk4waij7z7//HOEow+E81kQoJ2fRTWWFuLVq1e2t4ThLRkiRGPpq9L9AY1Jd4bEMC0CZYLRlQLh6EhwnAsB2vm51GRxOZa+TmNIBdEYEol4TWMSESZRTYKAGtjQwhhmXMLxxYsX4W2uITBJArTzk6y22plGNOZRIRrzPKJe0ZhExUlkEIAABJIjQDufXJVEzdDSRaOMAFp9wjlEoyPRw5HGpAeoRAkBCEAgIQK08wlVRg9ZQTSWiMYeWC8+ShqTxb8CADDGPHv2jDUSeRNmS4B2frZVawuGaEQ0DvaG05gMhpqEEiWgrg0tZq6GFweBORKgnZ9jrZ7KhGhENJ7ehp7PaEx6Bkz0yRNANCZfRWSwIwHa+Y4AEw+OaCwRjVp0V7MacfEI0JjEY0lM0ySAaJxmvZHr+gRo5+uzmqJPRGOJaGTv6fivM41JfKbEOC0CiMZp1Re5bU6Adr45symFQDQiGgd7X2lMBkNNQokScKLx+vrajmtUA1y1s4KeX/qU9Yh88cUXF8Mq7q7hlU6RU7yX8q7nXcMXpa174lon/bLw3G9HgHa+HbephHLtylTyGzufasNZcic21ZL4aExKwHB7MQQkpLT3tCbDuM+9e/cKy//RRx8d/Ti/Rcc7d+4Uhn/y5Emt8GXpP3r0qFb4+/fvF6b/8OHDWuEfPHhQGF7xFpU3vKd0ipzKFfotuhZnXDwCtPPxWBJT+gRYp7HHOqIx6REuUU+GwOvXr3MWsDJLo/tHf8lapn++Ra5u+LL061oKu4Yvs3TWtRSWhReXS+yqLJ1FTLl3mQDt/GVG+JgPAURjj3VJY9IjXKKGAAQgkAAB2vkEKoEsDEYA0dgjahqTHuESNQQgAIEECNDOJ1AJZGEwAojGHlHTmPQIl6ghAAEIJECAdj6BSug5Cxpis1RXOhFGg6O1ViMuHgEak3gsiQkCEIhDQD8CNzc3cSIjFkM7P++X4NWrV3aCWdlY5nmX3phS0Tj3go9RPhqTMaiTJgQgUEXg6dOnRuvy4uIQoJ2PwzHVWDR5TKsQSDwt0SEaB6x1GpMBYZMUBCBQiwCisRam2p5o52ujmqRHRGPJOo2TrM3EM01jkngFkT0ILJAAojFupdPOx+WZWmyIxhLRyN7T8V9VGpP4TIkRAhDoRgDR2I1fGJp2PiQyr2tEY4loZO/p+C86jUl8psQIAQh0I4Bo7MYvDE07HxKZ1zWiEdE42BtNYzIYahKCAARqEkA01gRV0xvtfE1QE/W2dNGoWeP+1qWs09jji0xj0iNcok6OgBoXvfPaW1k9F/6+x9p/WvfU+Gi5F235hxuHAKIxLnfa+bg8U4tt6aIxrA9EY0gk4jWNSUSYRJUsAa1jdnV1Ze7cuWMePXpkXrx4YfdAVobdsBe3L7QEo4Tj7du3rd+lLmMxZmUiGuPSp52PyzO12BCN+RpBNOZ5RL2iMYmKk8gSI6BdEmRVvH//vnn58mVh7pxoDB9KROr7cffuXaONBT7//PPQC9c9EUA0xgVLOx+XZ2qxLX1x77A+EI0hkYjXNCYRYRJVUgQkEiUWZVWscmWi0Q9zfX1t7t27x45UPpQez8VblmFcHAK083E4phqL6yVJNX9950vll3B2DtHoSPRwpDHpASpRjk7AiY461sE6olEFUje1/JZZLEcvNBmAQAkB2vkSMNyeBYHSHWHYezp+/dKYxGdKjOMSkGDUuMW6rq5oVHwSoeruRjjWpYu/FAjQzqdQC+ShLwKlorGvBJccL43Jkmt/fmWXmGvardlENIqYhKO6vTVeEgeBKRCgnZ9CLZHHtgQQjW3JtQhHY9ICGkGSJCARJzFXp0vaL0BT0aiwSktjHDWWBgeB1AnQzqdeQ+SvCwFEYxd6DcPSmDQEhvdkCajb+NKkl6LMtxGNiufJkyfm2bNnRVFyDwJJEaCdT6o6omcmnAgSPYHEIywVjew9Hb/maEziMyXG4QmobZDlr41rKxrVUGs5Hi0YjotLQD8CWi8TF4cA7XwcjqnGsvQld0pFY9vGPdWKTiFfNCYp1AJ56EqgrZVR6XZpV2RplMURF5cA6zTG5Uk7H5dnarEtfXFvROOAbySNyYCwSaozgSKrnu5pp5e2rotoDBsrlwdZIZuOrXRhORqDaIz7FtDOx+WZWmxLF436DWDv6YHeShqTgUCTTBQCsuxJUPju+fPn5vHjx/6tRuddRKMS0uQbf2FZCUZZPtWQ49oRQDS241YWina+jMw87i9dNIa1yOLeIZGI1zQmEWES1SAEJCh84agldrqsm9hVNPpd1E4wdsnPIBATTkQCXONTv/a1rzGuMVI90c5HAploNIjGfMUgGvM8ol7RmETFSWQDEfCF4zvvvNNpzcSuotF9hxCM3StfLGW5/d73vme++c1v2i6nJgu1d8/BPGNw7+g8S0epEI35dwDRmOcR9YrGJCpOIhuQgBOOt2/f7jR+sKtoVIP9/vvvs1NMx7rX+FD9AZD4Vt2qXuQ0VomZ1N3g0s5345d66KWLRrUZ/hAhRGOPb6waE00iUAPNBwZTewfefvtt86UvfcmsVqvRPt/+9rfNL/7iL5pvfetbfIc6tCMSjNoqVs4XjVp7kzaqW9sktlhse/whHTnqpYvGcELiUTSy93T8N1MKXS8cHxhM7R349NNPzXvvvWfFYpdvhoSyyt7WaY3IX/u1XzMffPAB36OObYmbce6LRtXL1N7NFPNbtPJA23eecGkR0PumP84ST0t0paJxiTAoMwQgcE7AHz8oK1SXH8SuotHtd+26y89zy52mBELR2DQ8/iGwJAIs7v1zu9GCq/OjpdHd4AgBCCyXgC8YRUEzbWXta+u6ikZ/vBjCsW0t5MOJqZYtwkEAApcJhGP6LoeYlw8sjfOqT0oDgWgEQsGoiLtOlOgqGsM9qBGO0aqbiCAAAQhcJFAqGtl7+iI7PEBg1gQk0MI1EDWz1t8NoCmArqJR+0+HY4kkHDWBAwcBCEAAAv0SKBWNXRv3frNN7BCAwBgEZH3Usjs6tnFd2pXXr1/bZWLapEsYCEAAAhDoTgDR2J0hMUBgUQS6dFF3EY1a0eH6+npRrCksBCAAgZQIsPd0SrVBXiAwAQL6p+kWhm6a3baiUQ2VuqbbWjib5hP/EIAABIoIqA3qsmxYUZxTvnecPd22cZ9y4ck7BCBQj0Bbq1/bdqVtevVKs2xfGr/+/PnzZUOg9BCoSWDp6zSGmBCNIRGuIQCBMwJaGFrL74STUs48BjfaiEY10gqH64cA6zT2w5VY50kA0ZivV0RjngdXEIBACQFNTJFwbNJl3FQ0SpQqDbd7SUlWuN2BAKKxAzyCLo7A0kWj2nv2nl7ca0+BIRCHgJa6ubq6qi3qmohGJxglTnH9EUA09seWmOdHYOmiUe2yxpc7d7Q0sve0Q8IRAhCoIqC1HO/fv2/qiLu6olENsyyMdeKsyhvPLhNANF5mhA8IOAKIxhLR6ABxhAAEIHCJgMSdhKMESFVX8iXRqFnSjx8/tmMYq+K5lB+e1yeAaKzPCp8QQDQiGvkWQAACEQhI5EmAaDmeZ8+eFU6SKRONEp3q3VC3BzN5I1RGgygQjQ1g4XXxBBCNiMbFfwkAAIGYBGQt1BaEEoDqYpYo0dhHNbZ/9Vd/ZX784x/bc21JKH8Smfpo4e4mk2pi5nnJcSEal1z7lL0pAURjiWhk7+mmrxL+IQCBkIDaEYmSBw8e2C7nN99803zzm9+059pZRhZJxi2G1Ia9RjQOy5vUpk0A0VgiGsu6kaZd3eQeAhAYk8CjR4/MJ598MmYWSDsggGgMgHAJgQoCWm5mtVoZ9ags0ZXOnkY0LvF1oMwQ6JcAorFfvm1i1zABTT7CQQAC9QgsuXdEYlm9RM4dl9xBNDokHCEAgVgEEI2xSBIPBCAAgfEJIBrHrwNyAIHZEkA0zrZqKRgEILBAAojGBVY6RYbAUAQQjUORJh0IQAAC/RNANPbPmBQgsFgCiMbFVj0FhwAEZkCAvadnUIkUAQJTIYBonEpNkU8IQKCIgESTJo8t1ZXOnmbv6aW+EpQbAv0RQDT2x7ZtzFp3Tsvu4CAAgcsEWKexZJ3Gy+jwAQEIQKAZAURjM15D+GadxiEok8ZcCCAaEY1zeZcpBwSSJ4BoTK+KEI3p1Qk5SpcAohHRmO7bSc4gMDMCiMb0KhTRmF6dkKN0CSAaS0Qje0+n+9KSMwhMlQCiMb2aQzSmVyfkKF0CiMYS0ciOMOm+tOQMAlMlgGhMr+YQjenVCTlKlwCiEdGY7ttJziAwYQJamkEi0XehaPz888/P/Pj+Oe+fAKKxf8akMB8CSxeN7D09n3eZkkAgOQKffPJJThT6olGCUT0aGgqDG48AonE89qQ8PQJLF41hjbEjTEiEawhAoBMBXzg60Sgr5P379xGMncjGCYxojMORWJZBANGYr2dEY54HVxCAQAQCTjhKNP7oRz+yFsbXr19HiJkouhJANHYlSPglEXj16pVZrVZG3bQ4YxCNvAUQgEB0AuqK/vjjj83Xv/5189Zbb5l///d/j54GEbYj8OLFC/PkyZN2gQkFgQUSWLJgZO/pBb7wFBkCfRPQOEUJkXfeecf+K799+7a1Lv7Gb/yG+YM/+APbNa1/6/poXOPz58+NuqxxEIAABCCQLgH2nk63bsgZBCZFQP9Ar6+vzd27d829e/fMs2fPTJ0uaI0Revz4sQ2ncY66xkEAAhCAQHoESkVjelklRxCAQKoE1MUpq+JHH33UyWKo8UKyPF5dXdUSnKnyIF8QgAAE5kgA0TjHWqVMEBiIgMYqSuA9ePCgk1gMs/vy5UsrQmW5xEEAAhCAQBoEEI1p1AO5gMDkCKjxUHeyBF5fTpZLzbhW1zcOAhCAwNgE1BZpDPZSXalo1BIZeoiDAAQgEBLQuEONW6wzZjEM2/RabZG6rGXVxMUnwOzp+EyJcb4Elr5OY6loVCPNgPT5vviUDAJtCUgoysI4pIhTW6Q2CYtj21orD8c6jeVseAKBkACikb2nw3eCawhAoISAhKIsjGP0Qtzc3JiHDx+W5IzbbQkgGtuSI9wSCSxdNLL39BLfesoMgRYEZOXTpJcxeyC09qOW8sHFI4BojMeSmOZPYOmiMaxhdoQJiXANAQhYAprJrIkpYztZOrV4OC4OgZiiUVYIvSeavKR6cgu4c8wWsh+Dw507d+zQDtVzn5PW4ryN6ceCaMzXEaIxz4MrCEDAGLvPqhbtTmFMoSZuaIkfXBwCsUSjJiy5tTp1jrCPUz9dY5GQl9BRPaunQJ8lb4PXlSeiMU8Q0ZjnwRUEIGCMtTCmtGaifviwmsR5NbuKRv2RkIiXdXHIyVFxSr+8WNwaqHx/2tX90kWjvu/ahME5RKMjwRECELAENOlFFqQUrIyuStRoaQY3rjuBrqKRcabd62DoGCTu9Z3G4tic/NJFY+mSO6zT2PxlIgQE5khAC9lqb+jUnLrLx5jFnRqHrvnpIhoR713pjxdelkZZ7HHNCCAaS5bcaYYR3xCAwFwJdF6zdb8169XKrNZbs48ISUJ2yTszxELZRTR2fjdiFYJ4WhGg/ppj01hdTWha6lCMUktjc5SEgAAE5kZADaNmX3bpmt5t1ma735vtemU2u3iE9I9fP3q4bgS67Ahz+/btqD+e+jF2zj/XvfDa+fOPdfz4/t15m3B1w9T1dykvTeNx8VUdtRpCSmOVq/LKszQIIBrTqAdyAYEkCXTuwtpvzdYTirttPGujhOytW7eS5LaETIU/HjHKHAojd+2Ol9Jo4k9+qz5+WlX+wmd+OJ3ruXOhX/9ZmZ9L993zNkcNQ9MEJhwE6hIIv/fHt5sxjXUR4g8C8yWQ+o9KbEvXfGsyfsn6sPQ6EVUkrtw9VxJ3XefowpQdFUeVu/TchS3yV3TP+Q+Pzq87uufu2h3d/a7HPuqwa54InzaBUtHIWIe0K47cQWAIAtp9RbNjm7usO1o/cqvVxmTGxp3Z5K6bxxqG0AxQ7YWNG55ATMGRvScny59fmiZCqanfMF137acfnvtp+OdF/lx8Vf7CcO7ahXHH8L677nKMWYdd8kHY6RBANE6nrsgpBAYn0G3M0/k4xmx8Y7xi8Oc2HsumMfUhOEKBpDwV3SvKq/y5T9Hz8F5ZvGX3/fDOjzv6z8Jz50fHsk8Yxl37Yd29mMc+6jBm/ogrPQIa5+6Pgz3a6GmM06sscgSBoQl0nqG823izpndmE3kGNe3U0G/EKb3YgsMJKpeCu/aP7ll4DMWVuw79+dd+vOG5788/D+MNr32/OnfxFt0P7/nXReGK7vlh2pzHrsM2eZhaGIkm9cDgMgKIRt4ECEDgSEDLsejT3nnWxt0mmD29N1t/lkyLRNiHugW0IEjb2dOxBYcTRTr6Lrz2n7lz5yc8uudFR+c3fFZ23/nzn/vn7rl/1HP3Ce/71+68yK975o51/Di/l46x6/BSenN4LmaqA3XT4ow5flv5B8/rAAEIxFjYe79dm9V6YzZrN7bxwFVWSP2odliHR8sBsatFt/e07TqNMQWH3gM5d/RLVHSv7Lnv1z/3/btzPS/7OD/uWOav6L4fRufy45w7D4/uuTsWxevuOT8xjjHrMEZ+phAHojFfS8e3G9GYB8MVBJZIQFYo7SvczR0mwATicLddm3Vwr2k67se3aTj8nwikIBpdblx9OoFUdHR+dXT+3b1L185fUVj3LIzD3Q+Pbfy5MO5YlY9Lz8L8tLlGNDantnTRyJjG5u8MISCwGAKamawZyl3dfrsx23A7GO0U00E0xspb17JNPXyKotFn6gusovt6XvaR/zB8md+i+356/rkfpwvnP/fPnV931LOycxeu7Ll/3/ntckQ0Nqe3dNFYOnuadRqbv0yEgMAcCXRf1qZkAkxH0Sixow+uG4GpisaiUjcVVaH/8DpMQ8/L/DS5X+bXTy/0E177ftueIxqbk0M0svd087eGEBBYEIGu4kxjGosNisXd1nXR3r9/37x69aqud/yVEFiqaCwTYUX3da/ofoi0yE94ryou96zOMUy7zTWisTk1RCOisflbQwgILIiAhJkEWlNnJ8Dox7ZYMTaNLuc/7CLJPeSiEYGURGOjjOO5MwFEY3OEiEZEY/O3hhAQWBiB1CbGdVt0fGGVd6G4iMYLgGb8GNHYvHIRjSWikTGNzV8mQkBgrgR++tOfGq2JmILTBBjl5YsvvkghO5PPA6Jx8lXYugCIxuboEI0lojE1y0LzqiUEBCAQk8DDhw/Nzc1NzChbxaUlgLQUEC4OAURjHI5TjAXR2LzW9Af61q1bRkvPLNGFQ4NYp3GJbwFlhkANAlpEWxa+MRfTfvnypbm6uqqRW7zUJSDhIOHY1CE4mhJLzz91mF6dpJ4j1mlMvYbIHwQSIqAfGYm2MbqG1S2tCTlL/Yc/5GtwfX1t1NtU9dEfiDfeeGPIbJFWZAKq59u3b1fWs94BfeeLvndOdFa9J3qm3oGiNkM9F5fCuvBFRa8b/tGjR0XBbc9JnfTLwhdGurCbWBoXVuEUFwJNCcTYWrBpmvrBkmCUcMT1T0AWXVkfqz4ffPCB+e3f/u3+M0MKvRH48Y9/bO7evVtZz+4dKBJ96qp1z6uOz549KyyDVmaoCueelYWXaHV+qo5qs4pc1/BFcS7tHqJxaTVOeSHQgoBmLz9+/LjQetAiusogGkMjwSghg0uHgLMypZMjctKUAHXYlBj+QwKIxpAI1xCAQCEB/Xsv67YqDNDiplsjUhYNXFoEEBxp1Ueb3FCHbagtOwxjGpdd/5QeAp0I6EdH2wzGnlWthunJkyd2vNOYE286wZl5YATH9CuYOpx+HQ5dgtLZ06zTOHRVkB4EpklAok7L8WhihH6EujoNztc4K41jKhpH1TV+wschgOCIw3HMWKjDMelPM+1S0TjN4pBrCEBgLALqQtZMRIlHCb4mk1Y0XlFjJO/cuWM0XrJopuZY5SLdYgLzERyHPdAP+0uv1luzt0Xem+0623N6tdqYXTGGSd+dTx1OuhomlXlE46Sqi8xCIH0CEo/qWla3tT4SkrrW7MYPP/zwONtRy1jomZb80NhIjZGkKzr9+nU5nJXg2O8ygXgUjK6UEpQbs8tUpLs5m+Os6nA2tZJ2QRCNadcPuYPApAnI2qgfJlkeJRrV7aylWnSuITB6hlVxmlU8O8Gx25jVamU2nklxv12b9XamitEY+/3THzccBOoSKBWNjGmsixB/EIBAXQL6gZLYwE2fwOxEozl0Rx+tjbpemxlrRkTj9L+Gg5egVDTSuA9eFyQIgdkToF2ZTxXPTzQaY6y18SAU91uzPgrIU73tt5vZCMlZ1uGpqjjrgQCisQeoRAkBCBQTQDQWc5ni3XkKjsOkmM3O7Darwq7p3WY+1sd51uEUv03TyTPrNE6nrsgpBCZPANE4+So8FmCugkPjGDW2sXDG9GHcYzj28QhlYidzrcOJVcOks8uOMJOuPjIPgbQJIBrTrp/JtwAWAAAbkUlEQVQmuZuv4DhZG0MeezvLGktjyIXr5RJANC637ik5BHongGjsHfFgCcxXNGpoY34W9QnqvCbHzLkOT3XGWZ8EEI190iVuCCycAKJxPi/AfAXHzmwKJsBkNYdonM8bTEnaEGBMYxtqhIEABFoRQDS2wpZkoLmKxuq1GRGNSb6MZGowAqWzp1mncbA6ICEILIYAonE+Va3de7Tt4xzcafJLyQQYr5Dqup7LRBjtwqTtO3EQqEugVDTWjQB/EIAABOoSQDTWJTUNfxKNs9j6cbcxa82YXs93y8CiN0qCUcIRB4G6BBCNdUnhDwIQ6EwA0dgZYVIRPHjwwLx48SKpPJGZ+gS0N7y2+sRBoC4BRGNdUviDAAQ6E0A0dkaYVAT6AZHw+OKLL5LKF5m5TICu6cuM8HFOoFQ0MqbxHBZ3IACBbgQQjd34pRha4uPRo0cpZo08lRCQdRGxXwKH25UESkUjjXslNx5CAAItCNCutIA2gSBPnjwx9+/fp6tzAnX17Nkzc+/ePaMffxwEmhJANDYlhn8IQKA1AURja3TJB3z16pUVI6pjiUj1VmlZnil/fvKTn0w6/47906dPzcOHD611UXXDcILkv07JZpB1GpOtGjIGgfkRQDTOr079EkmMSKjImqUua9X3lD+3b9823/72tyddBvGXaLy5ucES7L+snEchwI4wUTASCQQgUEQA0VhEhXupEuB9TbVmyFcqBBCNqdQE+YDADAnwIzzDSp1xkXhfZ1y5FC0KAURjFIxEAgEIFBHgR7iICvdSJcD7mmrNkK+xCDCmcSzypAuBBRLgR3iBlT7hIvO+TrjyyHovBEpnT7NOYy+8iRQCiyGg7eW0Y4g/UzP8Ef7pT3/KGn+LeSOmV9DwfZ1eCcgxBOISKBWNcZMhNghAYIkEXr58mROO/o+wBKOu1d2Bg0CKBPz3NcX8kScIDE0A0Tg0cdKDwMII+MLR/QgjGBf2Eky0uO59nWj2yTYEohNANEZHSoQQgEBIwAnH999/3/zrv/4rFsYQENdJEkA0JlktZGpEAqWikTGNI9YKSUNghgQkHL/yla+Y3/u936NLeob1O8ciIRrnWKuUqQuBUtHIl6ULVsJCAAI+AU2G0fZlX/3qV803vvENIwGJg0DqBPgdTL2GyN/QBBCNQxMnPQgsjIAE4t27d+3Wciq6ZlVfXV3Zj85xEEiVAKIx1ZohX2MRYJ3GsciTLgRmTkCC8OHDh6XiUGLynXfeMdfX1zMnQfGmSgDRONWaI99DEWBHmKFIkw4EZkxAY6IlCG9ubipLqX+tH330kbl//77RjGocBFIigGhMqTbIS4oEEI0p1gp5gsBECLx+/doKwEePHjWa7PLq1Stz7949O+7RXwx8IsUmmzMlgGicacVSrGgEEI3RUBIRBJZDwE10kfCTAGzrnj17Zi2UTJRpS5BwMQkgGmPSJK45EGBM4xxqkTJAYEQCn332mbUSSvDFsBJqdp4myshayUSZESuWpO16onq/cRCAQEagdPa0xhexvRevCQQgUEZA7YOEnawx6paO7dy4SB1xEBiDAJbGMaiTZsoESkVjypkmbxCAwLgEhhJ0TphqokwfwnRciqSeOgFEY+o1RP6GJoBoHJo46UFgwgTG6jp2E2WePn0apQt8wlVA1gckgGgcEDZJTYIAonES1UQmITA+gbEnqWi8pERj18k245MkB1MhgGicSk2Rz6EIlIpGrZ3GumlDVQPpQCBdArLyac1FbQMYY6JL15K2Xdana7qEXx4BROPy6pwSVxMoFY18WarB8RQCcyeg8YRu4e0UxxMONa5y7vVM+coJ8DtYzoYnyySAaFxmvVNqCFQSmMoWf1qSRzO4tUSPGjMcBGISQDTGpElccyAgY4K/9SuLe8+hVikDBFoSkAiTANNnSmskOpGrcZc4CMQigGiMRZJ45koA0TjXmqVcELhAQP8eNXZxqruxuF1pVIYuu9JcwMTjBRFANC6osilqKwKIxlbYCASB6RLQhDetg6jxi+p6mLpzE2XmUp6p18eU849onHLtkfchCCAah6BMGhBIgICzzM11CZupW04TeEUWnwVE4+JfAQAEBBjTGADhEgJLILCUMYBTHaO5hHdwCmVENE6hlsjjkARKZ0+z9/SQ1UBaEBiGwFJnGy9FJA/zFi0nFUTjcuqaktYjUCoa6wXHFwQgMBUCtdc13O/Mbr8vLtZ+b3a7kmfFIYypCLPf703Zpyy6tvfVraIFyjV+k40L2lJcVjhE47Lqm9JeJoBovMwIHxCYNAFNDNGPn9YzrJroIvEmt9+uzXp7OA/F435r1pvdicduY1arlVmv19lntTIr/3kWYT6MC624Vmuz2WzOPuvVypxHszml49IrOoYBXXqHo9vHOpUdboLscZkQAURjQpVBVpIggGhMohrIBATiE/D3av7ss88uJLA323Um1I6iUaJuvTV7szfbzcZYHVkkGn2RJhF5uN5tDsIvDONyYuPfmO1uZ3a5z9ZsDnlxXrNjYJXcbazo3O6C+/lApVdj76VdmjEeJEMA0ZhMVZCRRAiUikb2nk6khsgGBFoQcNa0p0+f1t8verc1VoAdLI373dZkPdESlOt+RGMDS6OPYW8F48qsrKg1Zi/h6Huoea4GUAuZP3z4cFKLmdcsHt46EkA0dgRI8NkRKBWNfFlmV9cUaAEE1P2sbmiN22u2X3RmTbRdxWuJsUOX8XaXWRqrRKO6pP1Pb5ZG9Z3vzHazNqvV2my3m4No3Fkrqe5tbH6bV/TNzY1d2FzjPnEQcAT4HXQkOEIgI4Bo5E2AwEwIdBY+h0kpO2tp3B0mqAhOhaXxwG63WZtNMEHmYve00aSasGv6dJ0bTumJRY2ptFZFdYUfLI02l7usW9sKyhZmx/aCeyYvEMU4I4BoPEPCjYUT0LAnf8ctFvde+AtB8adHwK1FGKuL9Tim8YiiTDTuzf4g+jQecr3NC75y0ehZNQsmweQnxpy6yHehFTEQjS67ylMLzeiC2wZRC54zUeaIZLEniMbFVj0Fr0kA0VgTFN4gkAIBTea4e/du5/2i91tvZrLtaj7Mhl5rAky5aNQEGYk8zXZeu/PDJJZy0SjjZTB5RZbE9cYu9RMuweNzPs+nN3N7re7pLnLxlJL+TYutxOPlSUSncJzNiwCicV71SWniE0A0xmdKjBCITsBNdOnDGnYUe8dcl4lG58F7boxx4d3RlM2eNjuz0dhEq/OyOJzwzKyNmrmdd+dW0NPzqmcnX83O6i5X1CxWfE+FAKJxKjVFPscigGgcizzpQqAGgf4XqJaQ2xhvJcYsV26AYZEADLqJNb5RQlBWwcJlelw5FU6i0Y6FlGgMLI0FM6KrhGHVM5dk22PthdGDBKrWxQy8cpkgAURjgpVClkYloOFQGgrlHKLRkeAIgcQI9L4Vnu0i1oSWioKHolHXuYW481ZHG1MYxt6UONU6jju7JuN6re5xicYgbXVje7ckDI8zu8PxkHZcpe/bCxjh1N+Csc7MdM0ylOhAOEaAP1IUiMaRwJNssgRKZ0+z93SydUbGFkZAYuXBgwd2PUGd9+IO4s/tBFOUhhVsGru4PajKo2A8CLXDtT+jWVZHu2OMC2MjPghFb/yh1oTUUjprLffjL99z7L7OcpRZE93M7vy4yGzWd3+i0TGReNdYR415LHNOMOqImy4BRON0646c90OgVDT2kxyxQgACTQg8f/7crh/44sWLJsEG8+t6rUsTDCyFpf5qP8hbHvPBqp7lfXa90kQZjSd95513cstPKF4EY1e66YRHNKZTF+QkDQKIxjTqgVxAIEdA3Z9aoPvx48d0b+bIpHXh6kk7aKkbGsGYVv10zQ2isStBws+NAKJxbjVKeSZPwO2J7C+gOvlCzbwA19fX5u233zZvvPGG+fDDD422b+QzfQZazooll2b+5aV4jQiUikb2nm7EEc8QiEbA7eyiIy59Aq6r+t133zVvvvmm+bu/+zsE40xEs/4M4CAAgROBUtGIWf4EiTMIDE3ALWtwdXVlepv8UrNQ+32zHVZyO7JUjWk8e6ZtBd1ElqLxiUX3ahaiJ2/hjHZ1Uavt1ERCHAQgAIG5EUA0zq1GKc+sCEiUqIusaqZu/AJr2Rwth5PFrEW6q2ZVm/35It3ZxGi3rI4TgvmcnsXrLc1TtObifucvy5PFnZ9prZnXBWtM5pONcuWLejWivkM4+jQ4hwAE5kSAvafnVJuUZZYEXPenJsYMMs4xWKzb5HZuKUEswbfWDi6ndRrPRKEf1C7Po4W9t2a71R7WW7PR8jzaClDrL2rpnbW2KAx2hZFwtGpWy/YEz2za/YtGt9B31fABhKNf2ZxDAAJzJcDi3nOtWco1eQISjBKOWupFoqQf51sNTylkazSGgiyzSK7Xbp/q7Gitf8G9dc4CeLBAbndmt9vZ/aaN5OZuawWh9p7O1lzUeoynPOTPsnxm2w1m+19ne2CHecyH6nLlZko/evSoFn8nHPurqy6lISwEIACB7gQQjd0ZEgMEeiXgZler6zqu29t9o8u6ojPh6Lb9K0jZWhsz4bhVl/V6c9giMPBrrYXbTDBa0WiM1GGxaDyMY7Rd04r7sDWholSYs0+QVoRLWXo1E1oLeg9i6Y2QZ6KAAAQgMAQBROMQlEkDAh0JaEydJslop5g4E2UywVi6RZ/dsk9dyRuzXoVbDSpstr2fpsxs19ne03aso7b22xRMpNkfrJSyNlrL4slaGFoPs72ppRF3x7iz7uySMNuC9Fry1nIrEosSjRKPOAhAAAJLJuDGczsGiEZHgiMEJkBAO8VoVxLtHNPVZbOeZfHbmd1BHG51bj/aY/rQ9ev1GTvr4+Yo1PZ2O8DTDoGZoDyzXkoobjTZRtbCQ87PrIbugSuZJ0jVnX3w78ZOuutjfC5Yi6O6lNUNrZnQdfaZbpEEQSAAAQhMjkDp7Gn2np5cXZLhhRKQwNHOMRrvGE3gHCe2OKgaQ1gwXrBA6MnSmInBk7CToDs5CUvNhF7Z7uZsssv5GEU9dzO4s7An0WiF7UHQaqa39sPOxG12zCV3SrjWmZvooiMOAhCAAAROBEpF48kLZxCAwBQIaLydulI1UaZrV6q1IPqK7UxEikgm/vLdyWuTTYQJu4635rgE4wFmZml0ZLPZ0OqqdhbD/PNDerbrW+s5OpGo7vJspvXJKqoubxdv/aMaQ3X5y8IYp8u/ftr4hAAEIDAFAojGKdQSeYRATQISi5ooI/HYfqJMZvU7dTEbY86W4SnOkMY2rrdbs3HjGou92btWFG6zCTO7w7I+vgAttjRqLcbTmMpM3G5z60pWJFn6qL/JRaVJ8gACEIDA5AggGidXZWQYApcJqJvaWc0aLfliF+o+X8z7zPIYZkGTVCQYj9ZJicHDJJgSq59EowTgcSFwO9vaWRA16SXsnpaYPeUtG0/pxllqncisWzzMWtW1rLMaExrDOluVDs8gAAEIzIFAqWhk7+k5VC9lWDoBjcvTjjJ1xudlIiwUXtksZ82qzlkeLdjDJJdj93CoDrXe4qn7+LDBzLFKdpuN143sluipEo3G7NXvbBcGlyANFvc+CNeTED0mdXYiIa02Luo40LNUuAEBCEBgXgRKRSN7T8+roinNcgm4mcCyPEabKONwagyiO6845ifCVHjMPSqPuctEFzfj/Pr6OpcaFxCAAAQgUE0A0VjNh6cQmA0BjXHUWEeN3+s6UWaKUOKvbTlFCuQZAhCAQHsC+u3wNzlgncb2LAkJgeQJ6Auv8XsSj/4XP/mMd8wgE106AiQ4BCAAgQICiMYCKNyCwNwIqJta4/m0vmOjiTITA6H1Zvvfr3tiUMguBCAAgUgEEI2RQBINBKZAQDvJaPawxvnNyS3VojqnOqQsEIBA+gQQjenXETmEQFQCGuunPaw1UWYOi1pr7KZmjKtLGgcBCEAAAvEI6Dfi4cOHxwgRjUcUnEBgWQQktmR1nKrYco3ZXMTvst4+SgsBCEyBQOnsafaenkL1kUcIxCWg8Y2aKKNxgFOaKOP2i765uYkLhNggAAEIQOBIoFQ0Hn1wAgEILI6ABKObQJLy8jxuQo/2i57zhJ7FvYAUGAIQSJIAojHJaiFTEEiDgLqqNT6w/T7W/ZSDiS79cCVWCEAAAlUEEI1VdHgGAQjYyTEaJ6jBzylMlPnss88WvUg5ryQEIACBsQiUikb2nh6rSkgXAmkS0HhBTZSps491HyVw2yFqi9Po2yH2kWHihAAEIDAzAqWikb2nZ1bTFAcCEQg44abxjkMKNwlVdZOPJVgjoCMKCEAAApMngGicfBVSAAgMT0ATZbQVoWZa9zlRRsJUXeNMdBm+jkkRAhCAQEhA7b2/sgbrNIaEuIYABAoJqPHQRBmJR40zjO1c3KlNwoldTuKDAAQgMFUCiMap1hz5hsBIBGQN1HCWWNZA/YvV2Mm+rZgj4SJZCEAAArMhgGicTVVSEAgMS8AtsN123KHGSz5+/NiuDznkeMlhKZEaBCAAgfkQQDTOpy4pCQQGJ6AleWRx1DhEDZiu6168eGGti8+fP68bBH8QgAAEIDAwAbddq0sW0ehIcIQABFoTqLuPtRogCcwHDx4ksQZk6wITEAIQgMACCJTOnmbv6QXUPkWEQI8E3K4tGp/oz7ZzSWqii54x0cUR4QgBCEAgbQKlojHtbJM7CEBgKgQ0PlHrOmrDAI1blIB0+1rrGgcBCEAAAtMggGicRj2RSwhMnsD19bW1LEowFlkeJ19ACgABCEBg5gQQjTOvYIoHgZQIpLB3dUo8yAsEIACBKREoFY3sPT2laiSvEIAABCAAAQhAoF8CpaKRvaf7BU/sEIAABCAAAQhAYEoEEI1Tqi3yCgEIQAACEIAABEYiwN7TI4EnWQhAAAIQgAAEIDBlAizuPeXaI+8QgAAEIAABCEBgIAJH0aitwNruITtQXkkGAhCAAAQgAAEIQGAkAkfR+OTJE6MdG3AQgAAEIAABCEAAAhDQboFaXce5o2jUQrz+A+eBIwQgAAFHQDPpPvvss+gfxYuDAAQgAIG0CLx48cI8fPjwmKmjaNQivJolg4MABCBQRkB7R2uHFy3RFetz7949G1dZmtyHAAQgAIFxCDx9+tTo49xRNLobHCEAAQiUEbh7966JbRWU5VICFAcBCEAAAmkRkKHA3wYW0ZhW/ZAbCCRNANGYdPWQOQhAAALRCMhAcOfOnVx8Z6IxthUhlxoXEIDApAkgGiddfWQeAhCAQG0Cmhz9+PHjnP+caNSYRo0v8k2ROd9cQAACiyaAaFx09VN4CEBgIQSkB2Vl1Oxp3+VEox5opoyEIw4CEIBASADRGBLhGgIQgMD8CMh4qKUYQ3cmGuVBovHm5ib0yzUEILBwAojGhb8AFB8CEFg0gULRqNmMMku+fv160XAoPAQgkCeAaMzz4AoCEIDAkggUikYBeP78udEPxOeff74kHpQVAhCoIIBorIDDIwhAAAITJ3DJWFgqGlVu7RBzdXXFot8TfwnIPgRiEUA0xiJJPBCAAATSIqAxjNq8ocpVikbNntGUa3aKqULIMwgshwCicTl1TUkhAIFlEJDGe/DggRWMl3qXK0XjMnBRSghAoC4BRGNdUviDAAQgkD4Brc2tyc/aX7qOgbCxaFSXdbhuT/pYyCEEIBCDAKIxBkXigAAEIDAugf/7v/+zQxBv375te5Tr5qaRaJQKvb6+tjOrZcrUsjx1lGndzOAPAhBImwCiMe36IXcQgAAE6hD4zne+Y0Xjpe7oMK5GotEFllD85JNPbB/4arWyx6dPn1pBqeV6wk9omZTCDf341+Hsnb79yzzrpx+eh1sr9u1f5Q/z4F+Lh+9i+w9fItWfn3543rf/8I+JFh0N8+Bf9+3fZ69zP+2i8z79h7s3qexFeXD3uvp/++23Tfh9CMvX9Fp5UwMmp3fJ5bXoGLYll/wP3ZZcaqtCdnNvS8K2auy2JGyraEtOv9dd24bYbU/T73rf/qfalkirSZ+F9du0nXb+W4lGF1hHvSjaRUaZ0kcWSP0A+B91afvu5cuXuee+X51r8o3v+vYvqGEe/Gs9913f/lV+P/3wXDx8F9t/+OVT/YV58K/79h/+8GjshZ9+eN63f5+9zsP0w+s+/YuF71T2MH3/uqv/t956q1fRqHfJz294HrYll/wP3ZZcaquW1paEbdXYbUnYVtGWnH6ru7YNsduept/1vv1PtS1x2iz8Lvq/G03OO4vGJonhFwIQmDYBuqenXX/kHgIQgEAXAojGLvQIC4GFEUA0LqzCKS4EIAABjwCi0YPBKQQgUE0A0VjNh6cQgAAE5kwA0Tjn2qVsEIhMANEYGSjRQQACEJgQAUTjhCqLrEJgbAKIxrFrgPQhAAEIjEcA0Tgee1KGwOQIIBonV2VkGAIQgEA0AojGaCiJCALzJ4BonH8dU0IIQAACZQQQjWVkuA8BCJwRQDSeIeEGBCAAgcUQQDQupqopKASKCVxarN5fYPvWrVsmXDy9ONb6d7XgsvY/9dOpOo+1SG39HOITAhCAAAREANHIewCBhRPQ1mpXV1dGO0IUbd3n3wt31IiFTvH66RSdK3/KZ7hNZKw8EA8EIAABCFQTQDRW8+EpBBZD4PHjx+bJkydJllf5Uv5wEIAABCAwHgFE43jsSRkCyRHQ/qqy6KVizVM+lJ9w39fkwJEhCEAAAgsggGhcQCVTRAg0IXBzc2PHF6rbekyn9DW2UfnBQQACEIDA+AQQjePXATmAQHIEXr16Ze7fv29+/vOfj5I3pav0lQ8cBCAAAQikQQDRmEY9kAsIJEfg9evX5t69e6avyS9lBVZ6Slfp4yAAAQhAIB0CiMZ06oKcQCA5AuoilsXvxYsXg+RN6Si9sbvGByksiUAAAhCYGAFE48QqjOxCYGgCmozy4MEDc3193WvSil/ppDIJp9fCEjkEIACBCRJANE6w0sgyBMYg8NFHHxl9+nB9xt1HfokTAhCAwBIJIBqXWOuUGQItCcS2Bg5lxWxZXIJBAAIQgIBHANHoweAUAhC4TCDWuMOhx0teLhk+IAABCECgigCisYoOzyAAgUICXWc4jzUzu7Aw3IQABCAAgVoEEI21MOEJAhAICbi1FLVPdBMn/2OuAdkkr/iFAAQgAIETAUTjiQVnEIBAQwLqYr66uqq9a4t2d5F/ltRpCBrvEIAABBIggGhMoBLIAgSmTKDu/tCp7Ws9ZebkHQIQgMAYBBCNY1AnTQjMkMCTJ0/Mo0ePCkum+3qOgwAEIACB6RJANE637sg5BJIj8Mknn+S6n133te7jIAABCEBg2gQQjdOuP3IPgeQIvHz50nznO98xmvCio65xEIAABCAwfQKIxunXISWAQHIEtCSPBKOOOAhAAAIQmAcBROM86pFSQAACEIAABCAAgV4J/D9LFePbQJlVbgAAAABJRU5ErkJggg==;rotation=-90;" vertex="1" parent="1">
          <mxGeometry x="343.5" y="-779.86" width="300" height="346.86" as="geometry" />
        </mxCell>
        <mxCell id="PCQHjBC-jvNUetgwWqMC-71" value="" style="group" vertex="1" connectable="0" parent="1">
          <mxGeometry x="219" y="-350" width="331" height="310" as="geometry" />
        </mxCell>
        <mxCell id="PCQHjBC-jvNUetgwWqMC-10" value="数据支撑平台" style="text;html=1;strokeColor=none;fillColor=none;align=center;verticalAlign=middle;whiteSpace=wrap;rounded=0;" vertex="1" parent="PCQHjBC-jvNUetgwWqMC-71">
          <mxGeometry x="250" y="290" width="81" height="20" as="geometry" />
        </mxCell>
        <mxCell id="PCQHjBC-jvNUetgwWqMC-6" value="" style="rounded=0;whiteSpace=wrap;html=1;fillColor=none;" vertex="1" parent="PCQHjBC-jvNUetgwWqMC-71">
          <mxGeometry width="331" height="310" as="geometry" />
        </mxCell>
        <mxCell id="PCQHjBC-jvNUetgwWqMC-88" style="edgeStyle=orthogonalEdgeStyle;rounded=0;orthogonalLoop=1;jettySize=auto;html=1;startArrow=none;startFill=0;fontSize=19;fontColor=#000000;" edge="1" parent="PCQHjBC-jvNUetgwWqMC-71">
          <mxGeometry relative="1" as="geometry">
            <mxPoint x="61" y="180" as="sourcePoint" />
            <mxPoint x="61" y="138" as="targetPoint" />
            <Array as="points">
              <mxPoint x="61" y="170" />
              <mxPoint x="61" y="170" />
            </Array>
          </mxGeometry>
        </mxCell>
        <mxCell id="PCQHjBC-jvNUetgwWqMC-72" value="" style="group" vertex="1" connectable="0" parent="1">
          <mxGeometry x="560" y="-350" width="271" height="310" as="geometry" />
        </mxCell>
        <mxCell id="PCQHjBC-jvNUetgwWqMC-7" value="" style="rounded=0;whiteSpace=wrap;html=1;fillColor=none;labelPosition=left;verticalLabelPosition=top;align=right;verticalAlign=bottom;" vertex="1" parent="PCQHjBC-jvNUetgwWqMC-72">
          <mxGeometry width="271" height="310" as="geometry" />
        </mxCell>
        <mxCell id="PCQHjBC-jvNUetgwWqMC-11" value="前端页面展示" style="text;html=1;strokeColor=none;fillColor=none;align=center;verticalAlign=middle;whiteSpace=wrap;rounded=0;" vertex="1" parent="PCQHjBC-jvNUetgwWqMC-72">
          <mxGeometry x="190" y="290" width="81" height="20" as="geometry" />
        </mxCell>
        <mxCell id="UEzPUAAOIrF-is8g5C7q-195" style="edgeStyle=orthogonalEdgeStyle;rounded=0;orthogonalLoop=1;jettySize=auto;html=1;startArrow=none;startFill=0;endArrow=open;endFill=0;strokeColor=#808080;strokeWidth=2;" parent="1" source="UEzPUAAOIrF-is8g5C7q-177" target="UEzPUAAOIrF-is8g5C7q-178" edge="1">
          <mxGeometry relative="1" as="geometry" />
        </mxCell>
        <mxCell id="UEzPUAAOIrF-is8g5C7q-196" style="edgeStyle=orthogonalEdgeStyle;rounded=0;orthogonalLoop=1;jettySize=auto;html=1;startArrow=none;startFill=0;endArrow=open;endFill=0;strokeColor=#808080;strokeWidth=2;" parent="1" source="UEzPUAAOIrF-is8g5C7q-178" target="UEzPUAAOIrF-is8g5C7q-179" edge="1">
          <mxGeometry relative="1" as="geometry" />
        </mxCell>
        <mxCell id="UEzPUAAOIrF-is8g5C7q-198" style="edgeStyle=orthogonalEdgeStyle;rounded=0;orthogonalLoop=1;jettySize=auto;html=1;startArrow=none;startFill=0;endArrow=open;endFill=0;strokeColor=#808080;strokeWidth=2;" parent="1" source="UEzPUAAOIrF-is8g5C7q-178" target="UEzPUAAOIrF-is8g5C7q-181" edge="1">
          <mxGeometry relative="1" as="geometry">
            <Array as="points">
              <mxPoint x="-554" y="-470" />
            </Array>
          </mxGeometry>
        </mxCell>
        <mxCell id="UEzPUAAOIrF-is8g5C7q-199" style="edgeStyle=orthogonalEdgeStyle;rounded=0;orthogonalLoop=1;jettySize=auto;html=1;startArrow=none;startFill=0;endArrow=open;endFill=0;strokeColor=#808080;strokeWidth=2;" parent="1" source="UEzPUAAOIrF-is8g5C7q-178" target="UEzPUAAOIrF-is8g5C7q-182" edge="1">
          <mxGeometry relative="1" as="geometry" />
        </mxCell>
        <mxCell id="UEzPUAAOIrF-is8g5C7q-200" style="edgeStyle=orthogonalEdgeStyle;rounded=0;orthogonalLoop=1;jettySize=auto;html=1;startArrow=none;startFill=0;endArrow=open;endFill=0;strokeColor=#808080;strokeWidth=2;" parent="1" source="UEzPUAAOIrF-is8g5C7q-178" target="UEzPUAAOIrF-is8g5C7q-183" edge="1">
          <mxGeometry relative="1" as="geometry">
            <Array as="points">
              <mxPoint x="-333" y="-470" />
            </Array>
          </mxGeometry>
        </mxCell>
        <mxCell id="UEzPUAAOIrF-is8g5C7q-197" style="edgeStyle=orthogonalEdgeStyle;rounded=0;orthogonalLoop=1;jettySize=auto;html=1;startArrow=none;startFill=0;endArrow=open;endFill=0;strokeColor=#808080;strokeWidth=2;" parent="1" source="UEzPUAAOIrF-is8g5C7q-179" target="UEzPUAAOIrF-is8g5C7q-180" edge="1">
          <mxGeometry relative="1" as="geometry" />
        </mxCell>
        <mxCell id="UEzPUAAOIrF-is8g5C7q-201" style="edgeStyle=orthogonalEdgeStyle;rounded=0;orthogonalLoop=1;jettySize=auto;html=1;startArrow=none;startFill=0;endArrow=open;endFill=0;strokeColor=#808080;strokeWidth=2;" parent="1" source="UEzPUAAOIrF-is8g5C7q-179" target="UEzPUAAOIrF-is8g5C7q-184" edge="1">
          <mxGeometry relative="1" as="geometry" />
        </mxCell>
        <mxCell id="UEzPUAAOIrF-is8g5C7q-177" value="Amazon S3&lt;br&gt;Bucket&lt;br&gt;" style="outlineConnect=0;fontColor=#232F3E;gradientColor=none;fillColor=#277116;strokeColor=none;dashed=0;verticalLabelPosition=bottom;verticalAlign=top;align=center;html=1;fontSize=12;fontStyle=0;aspect=fixed;pointerEvents=1;shape=mxgraph.aws4.bucket;labelBackgroundColor=#ffffff;" parent="1" vertex="1">
          <mxGeometry x="-660" y="-530" width="75" height="78" as="geometry" />
        </mxCell>
        <mxCell id="UEzPUAAOIrF-is8g5C7q-178" value="AWS&lt;br&gt;CodePipeline&lt;br&gt;" style="outlineConnect=0;fontColor=#232F3E;gradientColor=#4D72F3;gradientDirection=north;fillColor=#3334B9;strokeColor=#ffffff;dashed=0;verticalLabelPosition=bottom;verticalAlign=top;align=center;html=1;fontSize=12;fontStyle=0;aspect=fixed;shape=mxgraph.aws4.resourceIcon;resIcon=mxgraph.aws4.codepipeline;labelBackgroundColor=#ffffff;" parent="1" vertex="1">
          <mxGeometry x="-480" y="-530" width="78" height="78" as="geometry" />
        </mxCell>
        <mxCell id="UEzPUAAOIrF-is8g5C7q-179" value="AWS&lt;br&gt;Organizations&lt;br&gt;" style="outlineConnect=0;fontColor=#232F3E;gradientColor=#F54749;gradientDirection=north;fillColor=#C7131F;strokeColor=#ffffff;dashed=0;verticalLabelPosition=bottom;verticalAlign=top;align=center;html=1;fontSize=12;fontStyle=0;aspect=fixed;shape=mxgraph.aws4.resourceIcon;resIcon=mxgraph.aws4.organizations;labelBackgroundColor=#ffffff;" parent="1" vertex="1">
          <mxGeometry x="-209" y="-530" width="78" height="78" as="geometry" />
        </mxCell>
        <mxCell id="UEzPUAAOIrF-is8g5C7q-180" value="AWS Single&lt;br&gt;Sign-on&lt;br&gt;" style="outlineConnect=0;fontColor=#232F3E;gradientColor=#F34482;gradientDirection=north;fillColor=#BC1356;strokeColor=#ffffff;dashed=0;verticalLabelPosition=bottom;verticalAlign=top;align=center;html=1;fontSize=12;fontStyle=0;aspect=fixed;shape=mxgraph.aws4.resourceIcon;resIcon=mxgraph.aws4.cloudwatch;labelBackgroundColor=#ffffff;" parent="1" vertex="1">
          <mxGeometry x="-53" y="-530" width="78" height="78" as="geometry" />
        </mxCell>
        <mxCell id="UEzPUAAOIrF-is8g5C7q-181" value="Account&lt;br&gt;Baseline&lt;br&gt;" style="outlineConnect=0;fontColor=#232F3E;gradientColor=#F34482;gradientDirection=north;fillColor=#BC1356;strokeColor=#ffffff;dashed=0;verticalLabelPosition=bottom;verticalAlign=top;align=center;html=1;fontSize=12;fontStyle=0;aspect=fixed;shape=mxgraph.aws4.resourceIcon;resIcon=mxgraph.aws4.cloudformation;labelBackgroundColor=#ffffff;" parent="1" vertex="1">
          <mxGeometry x="-593" y="-350" width="78" height="78" as="geometry" />
        </mxCell>
        <mxCell id="UEzPUAAOIrF-is8g5C7q-182" value="AWS Service&lt;br&gt;Catalog&lt;br&gt;" style="outlineConnect=0;fontColor=#232F3E;gradientColor=#F34482;gradientDirection=north;fillColor=#BC1356;strokeColor=#ffffff;dashed=0;verticalLabelPosition=bottom;verticalAlign=top;align=center;html=1;fontSize=12;fontStyle=0;aspect=fixed;shape=mxgraph.aws4.resourceIcon;resIcon=mxgraph.aws4.service_catalog;labelBackgroundColor=#ffffff;" parent="1" vertex="1">
          <mxGeometry x="-480" y="-350" width="78" height="78" as="geometry" />
        </mxCell>
        <mxCell id="UEzPUAAOIrF-is8g5C7q-183" value="AWS&lt;br&gt;Parameter&lt;br&gt;Store&lt;br&gt;" style="outlineConnect=0;fontColor=#232F3E;gradientColor=none;fillColor=#BC1356;strokeColor=none;dashed=0;verticalLabelPosition=bottom;verticalAlign=top;align=center;html=1;fontSize=12;fontStyle=0;aspect=fixed;pointerEvents=1;shape=mxgraph.aws4.parameter_store;labelBackgroundColor=#ffffff;" parent="1" vertex="1">
          <mxGeometry x="-370" y="-350" width="75" height="78" as="geometry" />
        </mxCell>
        <mxCell id="UEzPUAAOIrF-is8g5C7q-184" value="Core OU" style="outlineConnect=0;fontColor=#232F3E;gradientColor=none;fillColor=#BC1356;strokeColor=none;dashed=0;verticalLabelPosition=bottom;verticalAlign=top;align=center;html=1;fontSize=12;fontStyle=0;aspect=fixed;pointerEvents=1;shape=mxgraph.aws4.resources;labelBackgroundColor=#ffffff;" parent="1" vertex="1">
          <mxGeometry x="-204" y="-340" width="68" height="78" as="geometry" />
        </mxCell>
        <mxCell id="PCQHjBC-jvNUetgwWqMC-62" style="edgeStyle=orthogonalEdgeStyle;rounded=0;orthogonalLoop=1;jettySize=auto;html=1;dashed=1;startArrow=none;startFill=0;fontColor=#B9E0A5;" edge="1" parent="1" source="UEzPUAAOIrF-is8g5C7q-187">
          <mxGeometry relative="1" as="geometry">
            <mxPoint x="384.5" y="-360" as="targetPoint" />
          </mxGeometry>
        </mxCell>
        <mxCell id="UEzPUAAOIrF-is8g5C7q-187" value="数&lt;br&gt;据&lt;br&gt;调&lt;br&gt;用" style="outlineConnect=0;fontColor=#232F3E;gradientColor=#F34482;gradientDirection=north;fillColor=#BC1356;strokeColor=#ffffff;dashed=0;verticalLabelPosition=middle;verticalAlign=middle;align=right;html=1;fontSize=12;fontStyle=1;aspect=fixed;shape=mxgraph.aws4.resourceIcon;resIcon=mxgraph.aws4.cloudformation;labelBackgroundColor=#ffffff;labelPosition=left;" parent="1" vertex="1">
          <mxGeometry x="345.5" y="-290" width="78" height="78" as="geometry" />
        </mxCell>
        <mxCell id="UEzPUAAOIrF-is8g5C7q-188" value="Amazon VPC" style="outlineConnect=0;fontColor=#232F3E;gradientColor=#945DF2;gradientDirection=north;fillColor=#5A30B5;strokeColor=#ffffff;dashed=0;verticalLabelPosition=bottom;verticalAlign=top;align=center;html=1;fontSize=12;fontStyle=0;aspect=fixed;shape=mxgraph.aws4.resourceIcon;resIcon=mxgraph.aws4.vpc;labelBackgroundColor=#ffffff;" parent="1" vertex="1">
          <mxGeometry x="-325" y="-176" width="78" height="78" as="geometry" />
        </mxCell>
        <mxCell id="UEzPUAAOIrF-is8g5C7q-190" value="Aggregate&lt;br&gt;CloudTrail&lt;br&gt;and Config Logs&lt;br&gt;" style="outlineConnect=0;fontColor=#232F3E;gradientColor=none;fillColor=#5A30B5;strokeColor=none;dashed=0;verticalLabelPosition=bottom;verticalAlign=top;align=center;html=1;fontSize=12;fontStyle=0;aspect=fixed;pointerEvents=1;shape=mxgraph.aws4.flow_logs;labelBackgroundColor=#ffffff;" parent="1" vertex="1">
          <mxGeometry x="70" y="-217.25" width="78" height="78" as="geometry" />
        </mxCell>
        <mxCell id="PCQHjBC-jvNUetgwWqMC-79" style="edgeStyle=none;rounded=0;orthogonalLoop=1;jettySize=auto;html=1;startArrow=classic;startFill=1;fontSize=19;fontColor=#000000;" edge="1" parent="1" source="UEzPUAAOIrF-is8g5C7q-192" target="PCQHjBC-jvNUetgwWqMC-51">
          <mxGeometry relative="1" as="geometry">
            <Array as="points">
              <mxPoint x="759" y="-190" />
            </Array>
          </mxGeometry>
        </mxCell>
        <mxCell id="PCQHjBC-jvNUetgwWqMC-80" style="edgeStyle=none;rounded=0;orthogonalLoop=1;jettySize=auto;html=1;startArrow=classic;startFill=1;fontSize=19;fontColor=#000000;entryX=0.292;entryY=0.445;entryDx=0;entryDy=0;entryPerimeter=0;" edge="1" parent="1" source="UEzPUAAOIrF-is8g5C7q-192" target="PCQHjBC-jvNUetgwWqMC-7">
          <mxGeometry relative="1" as="geometry" />
        </mxCell>
        <mxCell id="PCQHjBC-jvNUetgwWqMC-82" style="edgeStyle=none;rounded=0;orthogonalLoop=1;jettySize=auto;html=1;startArrow=none;startFill=0;fontSize=19;fontColor=#000000;" edge="1" parent="1" source="UEzPUAAOIrF-is8g5C7q-192" target="PCQHjBC-jvNUetgwWqMC-60">
          <mxGeometry relative="1" as="geometry" />
        </mxCell>
        <mxCell id="UEzPUAAOIrF-is8g5C7q-192" value="用户&lt;br&gt;权限认证" style="outlineConnect=0;fontColor=#232F3E;gradientColor=none;fillColor=#C7131F;strokeColor=none;dashed=0;verticalLabelPosition=bottom;verticalAlign=top;align=center;html=1;fontSize=12;fontStyle=0;aspect=fixed;pointerEvents=1;shape=mxgraph.aws4.addon;labelBackgroundColor=#ffffff;" parent="1" vertex="1">
          <mxGeometry x="720" y="-150.75" width="78" height="40" as="geometry" />
        </mxCell>
        <mxCell id="PCQHjBC-jvNUetgwWqMC-85" style="edgeStyle=orthogonalEdgeStyle;rounded=0;orthogonalLoop=1;jettySize=auto;html=1;dashed=1;startArrow=none;startFill=0;fontSize=19;fontColor=#000000;" edge="1" parent="1" target="UEzPUAAOIrF-is8g5C7q-193">
          <mxGeometry relative="1" as="geometry">
            <mxPoint x="639" y="-360" as="targetPoint" />
            <mxPoint x="639" y="-360" as="sourcePoint" />
          </mxGeometry>
        </mxCell>
        <mxCell id="UEzPUAAOIrF-is8g5C7q-193" value="网络&lt;br&gt;安全&lt;br&gt;实时&lt;br&gt;评估" style="outlineConnect=0;fontColor=#232F3E;gradientColor=#F54749;gradientDirection=north;fillColor=#C7131F;strokeColor=#ffffff;dashed=0;verticalLabelPosition=middle;verticalAlign=middle;align=right;html=1;fontSize=12;fontStyle=0;aspect=fixed;shape=mxgraph.aws4.resourceIcon;resIcon=mxgraph.aws4.guardduty;labelBackgroundColor=#ffffff;horizontal=1;labelPosition=left;" parent="1" vertex="1">
          <mxGeometry x="600" y="-290" width="78" height="78" as="geometry" />
        </mxCell>
        <mxCell id="UEzPUAAOIrF-is8g5C7q-194" value="Amazon SNS" style="outlineConnect=0;fontColor=#232F3E;gradientColor=#F34482;gradientDirection=north;fillColor=#BC1356;strokeColor=#ffffff;dashed=0;verticalLabelPosition=bottom;verticalAlign=top;align=center;html=1;fontSize=12;fontStyle=0;aspect=fixed;shape=mxgraph.aws4.resourceIcon;resIcon=mxgraph.aws4.sns;labelBackgroundColor=#ffffff;" parent="1" vertex="1">
          <mxGeometry x="-480" y="-166" width="78" height="78" as="geometry" />
        </mxCell>
        <mxCell id="PCQHjBC-jvNUetgwWqMC-74" style="rounded=0;orthogonalLoop=1;jettySize=auto;html=1;startArrow=none;startFill=0;fontColor=#000000;" edge="1" parent="1" source="PCQHjBC-jvNUetgwWqMC-4" target="UEzPUAAOIrF-is8g5C7q-192">
          <mxGeometry relative="1" as="geometry" />
        </mxCell>
        <mxCell id="PCQHjBC-jvNUetgwWqMC-4" value="" style="aspect=fixed;pointerEvents=1;shadow=0;dashed=0;html=1;strokeColor=none;labelPosition=center;verticalLabelPosition=bottom;verticalAlign=top;align=center;shape=mxgraph.mscae.enterprise.user_permissions;fillColor=#0078D7;" vertex="1" parent="1">
          <mxGeometry x="873" y="-201.75" width="47" height="50" as="geometry" />
        </mxCell>
        <mxCell id="PCQHjBC-jvNUetgwWqMC-76" style="edgeStyle=none;rounded=0;orthogonalLoop=1;jettySize=auto;html=1;dashed=1;startArrow=none;startFill=0;fontColor=#000000;" edge="1" parent="1" source="PCQHjBC-jvNUetgwWqMC-12" target="UEzPUAAOIrF-is8g5C7q-192">
          <mxGeometry relative="1" as="geometry" />
        </mxCell>
        <mxCell id="PCQHjBC-jvNUetgwWqMC-77" value="X" style="edgeLabel;html=1;align=center;verticalAlign=middle;resizable=0;points=[];fontColor=#000000;fontSize=19;fontStyle=0" vertex="1" connectable="0" parent="PCQHjBC-jvNUetgwWqMC-76">
          <mxGeometry x="-0.1143" y="-1" relative="1" as="geometry">
            <mxPoint as="offset" />
          </mxGeometry>
        </mxCell>
        <mxCell id="PCQHjBC-jvNUetgwWqMC-12" value="" style="aspect=fixed;pointerEvents=1;shadow=0;dashed=0;html=1;strokeColor=none;labelPosition=center;verticalLabelPosition=bottom;verticalAlign=top;align=center;shape=mxgraph.azure.user;fillColor=#CC0000;" vertex="1" parent="1">
          <mxGeometry x="873" y="-122.25" width="47" height="50" as="geometry" />
        </mxCell>
        <mxCell id="PCQHjBC-jvNUetgwWqMC-37" value="" style="group" vertex="1" connectable="0" parent="1">
          <mxGeometry x="324" y="-420" width="110.00000000000001" height="90" as="geometry" />
        </mxCell>
        <mxCell id="PCQHjBC-jvNUetgwWqMC-45" value="" style="group" vertex="1" connectable="0" parent="PCQHjBC-jvNUetgwWqMC-37">
          <mxGeometry width="110.00000000000001" height="60" as="geometry" />
        </mxCell>
        <mxCell id="PCQHjBC-jvNUetgwWqMC-28" value="" style="outlineConnect=0;fontColor=#000000;gradientColor=#F34482;gradientDirection=north;fillColor=#BC1356;strokeColor=#000000;dashed=0;verticalLabelPosition=bottom;verticalAlign=top;align=center;html=1;fontSize=12;fontStyle=0;aspect=fixed;shape=mxgraph.aws4.resourceIcon;resIcon=mxgraph.aws4.appflow;fontFamily=Helvetica;" vertex="1" parent="PCQHjBC-jvNUetgwWqMC-45">
          <mxGeometry width="110.00000000000001" height="60" as="geometry" />
        </mxCell>
        <mxCell id="PCQHjBC-jvNUetgwWqMC-36" value="数据处理" style="text;html=1;strokeColor=none;fillColor=none;align=center;verticalAlign=middle;whiteSpace=wrap;rounded=0;fontStyle=1" vertex="1" parent="PCQHjBC-jvNUetgwWqMC-45">
          <mxGeometry width="24.444444444444446" height="60" as="geometry" />
        </mxCell>
        <mxCell id="PCQHjBC-jvNUetgwWqMC-38" value="" style="group" vertex="1" connectable="0" parent="1">
          <mxGeometry x="440" y="-420" width="260" height="85" as="geometry" />
        </mxCell>
        <mxCell id="PCQHjBC-jvNUetgwWqMC-27" value="" style="outlineConnect=0;fontColor=#000000;gradientColor=#945DF2;gradientDirection=north;fillColor=#5A30B5;strokeColor=#000000;dashed=0;verticalLabelPosition=bottom;verticalAlign=top;align=center;html=1;fontSize=12;fontStyle=0;aspect=fixed;shape=mxgraph.aws4.resourceIcon;resIcon=mxgraph.aws4.emr;fontFamily=Helvetica;" vertex="1" parent="PCQHjBC-jvNUetgwWqMC-38">
          <mxGeometry width="260" height="60" as="geometry" />
        </mxCell>
        <mxCell id="PCQHjBC-jvNUetgwWqMC-35" value="评估算法" style="text;html=1;strokeColor=none;fillColor=none;align=center;verticalAlign=middle;whiteSpace=wrap;rounded=0;fontStyle=1" vertex="1" parent="PCQHjBC-jvNUetgwWqMC-38">
          <mxGeometry width="20" height="60" as="geometry" />
        </mxCell>
        <mxCell id="PCQHjBC-jvNUetgwWqMC-47" value="模&lt;br&gt;型&lt;br&gt;转&lt;br&gt;化" style="outlineConnect=0;fontColor=#232F3E;gradientDirection=north;strokeColor=#ffffff;dashed=0;verticalLabelPosition=middle;verticalAlign=middle;align=right;html=1;fontSize=12;fontStyle=1;aspect=fixed;shape=mxgraph.aws4.resourceIcon;resIcon=mxgraph.aws4.fargate;labelPosition=left;fillColor=#BC1635;gradientColor=#F34482;" vertex="1" parent="1">
          <mxGeometry x="240" y="-290" width="78" height="78" as="geometry" />
        </mxCell>
        <mxCell id="PCQHjBC-jvNUetgwWqMC-84" style="edgeStyle=orthogonalEdgeStyle;rounded=0;orthogonalLoop=1;jettySize=auto;html=1;startArrow=none;startFill=0;fontSize=19;fontColor=#000000;dashed=1;" edge="1" parent="1" source="PCQHjBC-jvNUetgwWqMC-48">
          <mxGeometry relative="1" as="geometry">
            <mxPoint x="489" y="-360" as="targetPoint" />
          </mxGeometry>
        </mxCell>
        <mxCell id="PCQHjBC-jvNUetgwWqMC-48" value="算&lt;br&gt;法&lt;br&gt;调&lt;br&gt;用" style="outlineConnect=0;fontColor=#232F3E;gradientColor=#F34482;gradientDirection=north;fillColor=#BC1356;strokeColor=#ffffff;dashed=0;verticalLabelPosition=middle;verticalAlign=middle;align=right;html=1;fontSize=12;fontStyle=1;aspect=fixed;shape=mxgraph.aws4.resourceIcon;resIcon=mxgraph.aws4.cloudformation;labelBackgroundColor=#ffffff;labelPosition=left;" vertex="1" parent="1">
          <mxGeometry x="450" y="-290" width="78" height="78" as="geometry" />
        </mxCell>
        <mxCell id="PCQHjBC-jvNUetgwWqMC-51" value="&lt;span style=&quot;font-family: &amp;#34;helvetica&amp;#34; ; background-color: rgb(255 , 255 , 255)&quot;&gt;异常&lt;br&gt;流量&lt;/span&gt;&lt;br style=&quot;font-family: &amp;#34;helvetica&amp;#34;&quot;&gt;&lt;span style=&quot;font-family: &amp;#34;helvetica&amp;#34; ; background-color: rgb(255 , 255 , 255)&quot;&gt;实时&lt;br&gt;检测&lt;/span&gt;" style="outlineConnect=0;fontColor=#232F3E;gradientColor=#F54749;gradientDirection=north;fillColor=#C7131F;strokeColor=#ffffff;dashed=0;verticalLabelPosition=middle;verticalAlign=middle;align=right;html=1;fontSize=12;fontStyle=0;aspect=fixed;shape=mxgraph.aws4.resourceIcon;resIcon=mxgraph.aws4.waf;labelPosition=left;" vertex="1" parent="1">
          <mxGeometry x="720" y="-290" width="78" height="78" as="geometry" />
        </mxCell>
        <mxCell id="PCQHjBC-jvNUetgwWqMC-73" style="edgeStyle=orthogonalEdgeStyle;rounded=0;orthogonalLoop=1;jettySize=auto;html=1;entryX=0.5;entryY=1;entryDx=0;entryDy=0;startArrow=none;startFill=0;fontColor=#000000;dashed=1;" edge="1" parent="1" source="PCQHjBC-jvNUetgwWqMC-60" target="PCQHjBC-jvNUetgwWqMC-67">
          <mxGeometry relative="1" as="geometry">
            <Array as="points">
              <mxPoint x="639" y="-70" />
              <mxPoint x="385" y="-70" />
              <mxPoint x="385" y="-80" />
              <mxPoint x="385" y="-80" />
            </Array>
          </mxGeometry>
        </mxCell>
        <mxCell id="PCQHjBC-jvNUetgwWqMC-60" value="导入&lt;br&gt;模型&lt;br&gt;/算法&lt;br&gt;/数据" style="outlineConnect=0;fontColor=#232F3E;gradientColor=#4AB29A;gradientDirection=north;fillColor=#116D5B;strokeColor=#ffffff;dashed=0;verticalLabelPosition=middle;verticalAlign=middle;align=right;html=1;fontSize=12;fontStyle=0;aspect=fixed;shape=mxgraph.aws4.resourceIcon;resIcon=mxgraph.aws4.sagemaker_ground_truth;labelPosition=left;" vertex="1" parent="1">
          <mxGeometry x="600" y="-170" width="78" height="78" as="geometry" />
        </mxCell>
        <mxCell id="PCQHjBC-jvNUetgwWqMC-70" value="" style="group" vertex="1" connectable="0" parent="1">
          <mxGeometry x="240.5" y="-170" width="299.5" height="82" as="geometry" />
        </mxCell>
        <mxCell id="PCQHjBC-jvNUetgwWqMC-67" value="" style="rounded=0;whiteSpace=wrap;html=1;fillColor=none;gradientColor=none;fontColor=#B9E0A5;" vertex="1" parent="PCQHjBC-jvNUetgwWqMC-70">
          <mxGeometry y="1" width="288.0607638888889" height="81" as="geometry" />
        </mxCell>
        <mxCell id="PCQHjBC-jvNUetgwWqMC-49" value="" style="outlineConnect=0;fontColor=#232F3E;gradientColor=#4D72F3;gradientDirection=north;dashed=0;verticalLabelPosition=bottom;verticalAlign=top;align=center;html=1;fontSize=12;fontStyle=0;aspect=fixed;shape=mxgraph.aws4.resourceIcon;resIcon=mxgraph.aws4.database;fillColor=none;" vertex="1" parent="PCQHjBC-jvNUetgwWqMC-70">
          <mxGeometry x="24.438368055555557" width="82" height="82" as="geometry" />
        </mxCell>
        <mxCell id="PCQHjBC-jvNUetgwWqMC-64" value="" style="outlineConnect=0;fontColor=#232F3E;gradientColor=#4D72F3;gradientDirection=north;dashed=0;verticalLabelPosition=bottom;verticalAlign=top;align=center;html=1;fontSize=12;fontStyle=0;aspect=fixed;shape=mxgraph.aws4.resourceIcon;resIcon=mxgraph.aws4.database;fillColor=none;" vertex="1" parent="PCQHjBC-jvNUetgwWqMC-70">
          <mxGeometry x="87.35416666666667" width="82" height="82" as="geometry" />
        </mxCell>
        <mxCell id="PCQHjBC-jvNUetgwWqMC-65" value="" style="outlineConnect=0;fontColor=#232F3E;gradientColor=#4D72F3;gradientDirection=north;dashed=0;verticalLabelPosition=bottom;verticalAlign=top;align=center;html=1;fontSize=12;fontStyle=0;aspect=fixed;shape=mxgraph.aws4.resourceIcon;resIcon=mxgraph.aws4.database;fillColor=none;" vertex="1" parent="PCQHjBC-jvNUetgwWqMC-70">
          <mxGeometry x="149.75" width="82" height="82" as="geometry" />
        </mxCell>
        <mxCell id="PCQHjBC-jvNUetgwWqMC-68" value="" style="outlineConnect=0;fontColor=#232F3E;gradientColor=#4D72F3;gradientDirection=north;dashed=0;verticalLabelPosition=bottom;verticalAlign=top;align=center;html=1;fontSize=12;fontStyle=0;aspect=fixed;shape=mxgraph.aws4.resourceIcon;resIcon=mxgraph.aws4.database;fillColor=none;" vertex="1" parent="PCQHjBC-jvNUetgwWqMC-70">
          <mxGeometry x="214.22569444444446" width="82" height="82" as="geometry" />
        </mxCell>
        <mxCell id="PCQHjBC-jvNUetgwWqMC-69" value="底层存储" style="text;html=1;strokeColor=none;fillColor=none;align=center;verticalAlign=middle;whiteSpace=wrap;rounded=0;fontStyle=1" vertex="1" parent="PCQHjBC-jvNUetgwWqMC-70">
          <mxGeometry y="31.5" width="20.79861111111111" height="20" as="geometry" />
        </mxCell>
        <mxCell id="PCQHjBC-jvNUetgwWqMC-86" style="edgeStyle=orthogonalEdgeStyle;rounded=0;orthogonalLoop=1;jettySize=auto;html=1;startArrow=none;startFill=0;fontSize=19;fontColor=#000000;" edge="1" parent="1" source="PCQHjBC-jvNUetgwWqMC-64" target="UEzPUAAOIrF-is8g5C7q-187">
          <mxGeometry relative="1" as="geometry">
            <Array as="points">
              <mxPoint x="385" y="-180" />
              <mxPoint x="385" y="-180" />
            </Array>
          </mxGeometry>
        </mxCell>
        <mxCell id="PCQHjBC-jvNUetgwWqMC-87" style="edgeStyle=orthogonalEdgeStyle;rounded=0;orthogonalLoop=1;jettySize=auto;html=1;startArrow=none;startFill=0;fontSize=19;fontColor=#000000;" edge="1" parent="1" source="PCQHjBC-jvNUetgwWqMC-68" target="PCQHjBC-jvNUetgwWqMC-48">
          <mxGeometry relative="1" as="geometry">
            <Array as="points">
              <mxPoint x="489" y="-180" />
              <mxPoint x="489" y="-180" />
            </Array>
          </mxGeometry>
        </mxCell>
        <mxCell id="PCQHjBC-jvNUetgwWqMC-93" style="edgeStyle=orthogonalEdgeStyle;rounded=0;orthogonalLoop=1;jettySize=auto;html=1;entryX=0.055;entryY=0.694;entryDx=0;entryDy=0;entryPerimeter=0;startArrow=none;startFill=0;fontSize=19;fontColor=#000000;exitX=0.997;exitY=0.344;exitDx=0;exitDy=0;exitPerimeter=0;" edge="1" parent="1" source="PCQHjBC-jvNUetgwWqMC-95" target="PCQHjBC-jvNUetgwWqMC-5">
          <mxGeometry relative="1" as="geometry">
            <mxPoint x="440" y="-756" as="sourcePoint" />
            <Array as="points">
              <mxPoint x="439" y="-777" />
              <mxPoint x="260" y="-777" />
            </Array>
          </mxGeometry>
        </mxCell>
        <mxCell id="PCQHjBC-jvNUetgwWqMC-96" style="edgeStyle=orthogonalEdgeStyle;rounded=0;orthogonalLoop=1;jettySize=auto;html=1;startArrow=none;startFill=0;fontSize=19;fontColor=#000000;exitX=0.004;exitY=0.36;exitDx=0;exitDy=0;exitPerimeter=0;" edge="1" parent="1">
          <mxGeometry relative="1" as="geometry">
            <mxPoint x="170.00000000000023" y="-470" as="targetPoint" />
            <mxPoint x="444.9395999999999" y="-457.6299999999999" as="sourcePoint" />
            <Array as="points">
              <mxPoint x="445" y="-436" />
              <mxPoint x="245" y="-436" />
              <mxPoint x="245" y="-470" />
            </Array>
          </mxGeometry>
        </mxCell>
        <mxCell id="PCQHjBC-jvNUetgwWqMC-97" value="" style="group" vertex="1" connectable="0" parent="1">
          <mxGeometry x="219" y="-789.5" width="701" height="359.5" as="geometry" />
        </mxCell>
        <mxCell id="PCQHjBC-jvNUetgwWqMC-5" value="" style="rounded=0;whiteSpace=wrap;html=1;fillColor=none;" vertex="1" parent="PCQHjBC-jvNUetgwWqMC-97">
          <mxGeometry width="701" height="359.5" as="geometry" />
        </mxCell>
        <mxCell id="PCQHjBC-jvNUetgwWqMC-46" value="异常流量检测模块" style="text;html=1;strokeColor=none;fillColor=none;align=center;verticalAlign=middle;whiteSpace=wrap;rounded=0;" vertex="1" parent="PCQHjBC-jvNUetgwWqMC-97">
          <mxGeometry x="600" y="339.5" width="101" height="20" as="geometry" />
        </mxCell>
      </root>
    </mxGraphModel>
  </diagram>
</mxfile>
